<svg id="SvgjsSvg1221" width="1750" height="1750" xmlns="http://www.w3.org/2000/svg" version="1.1" xmlns:xlink="http://www.w3.org/1999/xlink" xmlns:svgjs="http://svgjs.com/svgjs"><defs id="SvgjsDefs1222"><path id="SvgjsPath1229" d="M 833.6422374285137 48.534159523165386 L 916.3577625714863 48.534159523165386"></path><path id="SvgjsPath1239" d="M 1225.9511258078192 195.25129106836516 L 1279.5223984186614 104.76521165451516"></path><path id="SvgjsPath1249" d="M 1518.8069449021373 461.7959127794397 L 1610.4440676031131 410.2183056236103"></path><path id="SvgjsPath1259" d="M 1639.1552130283794 839.0582359705023 L 1744.3040927950508 840.209279257628"></path><path id="SvgjsPath1269" d="M 1554.7487089316348 1225.9511258078187 L 1645.234788345485 1279.522398418661"></path><path id="SvgjsPath1297" d="M 97.50964664682317 1276.414686381493 L 188.35255739845036 1223.446968086611"></path><path id="SvgjsPath1307" d="M 0.9662596080627281 833.8901391819477 L 106.12238722013547 833.4402049338955"></path><path id="SvgjsPath1317" d="M 138.6195074648756 402.3809459895554 L 229.91235246455483 454.56935530674593"></path><path id="SvgjsPath1327" d="M 473.58531361850766 97.50964664682294 L 526.5530319133898 188.35255739845013"></path><path id="SvgjsPath1336" d="M 539 875.0000000000001
      A 336 336 0 0 1 1046.0379156921247 585.7906789266749"></path><path id="SvgjsPath1341" d="M 454 875.0000000000001
      A 421 421 0 0 1 572.6688286416977 582.0207126346354"></path><path id="SvgjsPath1346" d="M 863.9795047623852 454.1442661852904
      A 421 421 0 0 1 1089.3064360309063 512.6276066313397"></path><path id="SvgjsPath1351" d="M 389.8372141566944 1018.7117644201853
      A 506 506 0 0 1 384.2447602659181 751.7308040362728"></path><path id="SvgjsPath1356" d="M 386.24153189773136 744.0375631781247
      A 506 506 0 0 1 511.6280933318267 522.8681249242886"></path><path id="SvgjsPath1361" d="M 621.9999999999998 436.7911456850742
      A 506 506 0 0 1 853.8109192130248 369.44384796997764"></path><path id="SvgjsPath1366" d="M 861.7544641562159 369.173393562368
      A 506 506 0 0 1 1132.574956369688 439.46453433600453"></path><path id="SvgjsPath1371" d="M 1139.38427374627 443.5640768368293
      A 506 506 0 0 1 1375.571800479272 801.0819875474198"></path><path id="SvgjsPath1376" d="M 1376.671099855148 808.9537467366538
      A 506 506 0 0 1 1317.1287448559456 1121.0857024942861"></path><path id="SvgjsPath1381" d="M 284 875.0000000000001
      A 591 591 0 0 1 358.60061618604016 587.575790169717"></path><path id="SvgjsPath1386" d="M 363.1789863633968 579.5
      A 591 591 0 0 1 571.4971200336213 367.88364071732616"></path><path id="SvgjsPath1391" d="M 722.0379443444098 304.1378366631608
      A 591 591 0 0 1 942.9278559412842 287.9166955301657"></path><path id="SvgjsPath1396" d="M 1027.9620556555897 304.13783666316067
      A 591 591 0 0 1 1382.116359282674 571.4971200336215"></path><path id="SvgjsPath1401" d="M 289.56682704171953 1213.0000000000002
      A 676 676 0 0 1 199.08339644239743 885.6181465027909"></path><path id="SvgjsPath1406" d="M 199 875.0000000000001
      A 676 676 0 0 1 284.32997722802565 546.2372828337203"></path><path id="SvgjsPath1411" d="M 289.56682704171953 537
      A 676 676 0 0 1 455.104100531862 345.2232228477325"></path><path id="SvgjsPath1416" d="M 492.10938383881296 317.8906964915175
      A 676 676 0 0 1 724.0829215765972 216.06143272673398"></path><path id="SvgjsPath1420" d="M 786.6211396087649 1147.0021636604138
      A 286 286 0 0 0 955.575511256649 1149.4149904537462"></path><path id="SvgjsPath1424" d="M 760.3546950868944 1227.841967545502
      A 371 371 0 0 0 979.5227785881706 1230.9718932109786"></path><path id="SvgjsPath1428" d="M 734.0882505650238 1308.68177143059
      A 456 456 0 0 0 1003.4700459196921 1312.5287959682107"></path><path id="SvgjsPath1432" d="M 707.8218060431533 1389.521575315678
      A 541 541 0 0 0 1027.4173132512137 1394.0856987254429"></path><path id="SvgjsPath1436" d="M 681.5553615212827 1470.3613792007661
      A 626 626 0 0 0 1051.3645805827352 1475.6426014826752"></path></defs><circle id="SvgjsCircle1223" r="875" cx="875" cy="875" fill="#1b2028"></circle><line id="SvgjsLine1224" x1="875" y1="140" x2="875" y2="160" stroke-linecap="round" stroke="#eeeeee" stroke-width="3"></line><line id="SvgjsLine1225" x1="875" y1="615" x2="875" y2="625" stroke-linecap="round" stroke="#eeeeee"></line><text id="SvgjsText1226" font-family="Roboto" font-size="40" font-weight="300" fill="#eeeeee" size="40" weight="300" family="Roboto"><textPath id="SvgjsTextPath1228" xlink:href="#SvgjsPath1229"><tspan id="SvgjsTspan1227" dy="52" x="0">0:00</tspan></textPath></text><line id="SvgjsLine1230" x1="951.8284205017253" y1="144.02640690431917" x2="950.7831358690488" y2="153.97162585800186" stroke-linecap="round" stroke="#eeeeee" stroke-width="2"></line><line id="SvgjsLine1231" x1="1027.815092751053" y1="156.0615134606528" x2="1025.7359758428754" y2="165.84298946799083" stroke-linecap="round" stroke="#eeeeee" stroke-width="2"></line><line id="SvgjsLine1232" x1="1102.1274908655864" y1="175.97346052306216" x2="1099.037320921837" y2="185.48402568601364" stroke-linecap="round" stroke="#eeeeee" stroke-width="2"></line><line id="SvgjsLine1233" x1="1173.9514326607132" y1="203.54408863268839" x2="1169.8840662299551" y2="212.6795432091144" stroke-linecap="round" stroke="#eeeeee" stroke-width="2"></line><line id="SvgjsLine1234" x1="1242.5" y1="238.47132821843752" x2="1232.5" y2="255.79183629412637" stroke-linecap="round" stroke="#eeeeee" stroke-width="3"></line><line id="SvgjsLine1235" x1="1005" y1="649.8333950160459" x2="1000" y2="658.4936490538903" stroke-linecap="round" stroke="#eeeeee"></line><text id="SvgjsText1236" font-family="Roboto" font-size="40" font-weight="300" fill="#eeeeee" size="40" weight="300" family="Roboto"><textPath id="SvgjsTextPath1238" xlink:href="#SvgjsPath1239"><tspan id="SvgjsTspan1237" dy="52" x="0">1:00</tspan></textPath></text><line id="SvgjsLine1240" x1="1307.0221604349676" y1="280.3725091344136" x2="1301.1443079120431" y2="288.4626790781631" stroke-linecap="round" stroke="#eeeeee" stroke-width="2"></line><line id="SvgjsLine1241" x1="1366.8109956737608" y1="328.7885532741152" x2="1360.1196896101721" y2="336.22000152888916" stroke-linecap="round" stroke="#eeeeee" stroke-width="2"></line><line id="SvgjsLine1242" x1="1421.2114467258848" y1="383.18900432623917" x2="1413.779998471111" y2="389.8803103898278" stroke-linecap="round" stroke="#eeeeee" stroke-width="2"></line><line id="SvgjsLine1243" x1="1469.6274908655864" y1="442.97783956503224" x2="1461.537320921837" y2="448.855692087957" stroke-linecap="round" stroke="#eeeeee" stroke-width="2"></line><line id="SvgjsLine1244" x1="1511.5286717815625" y1="507.49999999999994" x2="1494.2081637058736" y2="517.5" stroke-linecap="round" stroke="#eeeeee" stroke-width="3"></line><line id="SvgjsLine1245" x1="1100.1666049839541" y1="745" x2="1091.5063509461097" y2="750" stroke-linecap="round" stroke="#eeeeee"></line><text id="SvgjsText1246" font-family="Roboto" font-size="40" font-weight="300" fill="#eeeeee" size="40" weight="300" family="Roboto"><textPath id="SvgjsTextPath1248" xlink:href="#SvgjsPath1249"><tspan id="SvgjsTspan1247" dy="52" x="0">2:00</tspan></textPath></text><line id="SvgjsLine1250" x1="1546.4559113673117" y1="576.0485673392867" x2="1537.3204567908856" y2="580.1159337700446" stroke-linecap="round" stroke="#eeeeee" stroke-width="2"></line><line id="SvgjsLine1251" x1="1574.0265394769378" y1="647.8725091344136" x2="1564.5159743139864" y2="650.9626790781631" stroke-linecap="round" stroke="#eeeeee" stroke-width="2"></line><line id="SvgjsLine1252" x1="1593.9384865393472" y1="722.184907248947" x2="1584.1570105320093" y2="724.2640241571246" stroke-linecap="round" stroke="#eeeeee" stroke-width="2"></line><line id="SvgjsLine1253" x1="1605.9735930956808" y1="798.1715794982747" x2="1596.028374141998" y2="799.2168641309512" stroke-linecap="round" stroke="#eeeeee" stroke-width="2"></line><line id="SvgjsLine1254" x1="1610" y1="874.9999999999998" x2="1590" y2="874.9999999999998" stroke-linecap="round" stroke="#eeeeee" stroke-width="3"></line><line id="SvgjsLine1255" x1="1135" y1="874.9999999999999" x2="1125" y2="874.9999999999999" stroke-linecap="round" stroke="#eeeeee"></line><text id="SvgjsText1256" font-family="Roboto" font-size="40" font-weight="300" fill="#eeeeee" size="40" weight="300" family="Roboto"><textPath id="SvgjsTextPath1258" xlink:href="#SvgjsPath1259"><tspan id="SvgjsTspan1257" dy="52" x="0">3:00</tspan></textPath></text><line id="SvgjsLine1260" x1="1605.9735930956808" y1="951.8284205017252" x2="1596.0283741419983" y2="950.7831358690487" stroke-linecap="round" stroke="#eeeeee" stroke-width="2"></line><line id="SvgjsLine1261" x1="1593.9384865393472" y1="1027.815092751053" x2="1584.1570105320093" y2="1025.7359758428756" stroke-linecap="round" stroke="#eeeeee" stroke-width="2"></line><line id="SvgjsLine1262" x1="1574.026539476938" y1="1102.1274908655862" x2="1564.5159743139864" y2="1099.037320921837" stroke-linecap="round" stroke="#eeeeee" stroke-width="2"></line><line id="SvgjsLine1263" x1="1546.4559113673117" y1="1173.9514326607132" x2="1537.3204567908856" y2="1169.8840662299551" stroke-linecap="round" stroke="#eeeeee" stroke-width="2"></line><line id="SvgjsLine1264" x1="1511.5286717815625" y1="1242.4999999999998" x2="1494.2081637058736" y2="1232.4999999999998" stroke-linecap="round" stroke="#eeeeee" stroke-width="3"></line><line id="SvgjsLine1265" x1="1100.1666049839541" y1="1005" x2="1091.5063509461097" y2="1000" stroke-linecap="round" stroke="#eeeeee"></line><text id="SvgjsText1266" font-family="Roboto" font-size="40" font-weight="300" fill="#eeeeee" size="40" weight="300" family="Roboto"><textPath id="SvgjsTextPath1268" xlink:href="#SvgjsPath1269"><tspan id="SvgjsTspan1267" dy="52" x="0">4:00</tspan></textPath></text><line id="SvgjsLine1270" x1="1469.6274908655864" y1="1307.0221604349676" x2="1461.537320921837" y2="1301.144307912043" stroke-linecap="round" stroke="#eeeeee" stroke-width="2"></line><line id="SvgjsLine1271" x1="1421.2114467258848" y1="1366.8109956737605" x2="1413.779998471111" y2="1360.119689610172" stroke-linecap="round" stroke="#eeeeee" stroke-width="2"></line><line id="SvgjsLine1272" x1="1366.8109956737608" y1="1421.2114467258848" x2="1360.1196896101724" y2="1413.7799984711107" stroke-linecap="round" stroke="#eeeeee" stroke-width="2"></line><line id="SvgjsLine1273" x1="1307.0221604349679" y1="1469.6274908655864" x2="1301.1443079120431" y2="1461.537320921837" stroke-linecap="round" stroke="#eeeeee" stroke-width="2"></line><line id="SvgjsLine1274" x1="1242.5" y1="1511.5286717815625" x2="1232.5" y2="1494.2081637058736" stroke-linecap="round" stroke="#eeeeee" stroke-width="3"></line><line id="SvgjsLine1275" x1="1005" y1="1100.1666049839541" x2="1000" y2="1091.5063509461097" stroke-linecap="round" stroke="#eeeeee"></line><line id="SvgjsLine1276" x1="1173.951432660713" y1="1546.4559113673117" x2="1169.884066229955" y2="1537.3204567908856" stroke-linecap="round" stroke="#eeeeee" stroke-width="2"></line><line id="SvgjsLine1277" x1="1102.1274908655864" y1="1574.0265394769378" x2="1099.037320921837" y2="1564.5159743139864" stroke-linecap="round" stroke="#eeeeee" stroke-width="2"></line><line id="SvgjsLine1278" x1="1027.815092751053" y1="1593.9384865393472" x2="1025.7359758428754" y2="1584.1570105320093" stroke-linecap="round" stroke="#eeeeee" stroke-width="2"></line><line id="SvgjsLine1279" x1="951.8284205017252" y1="1605.9735930956808" x2="950.7831358690487" y2="1596.0283741419983" stroke-linecap="round" stroke="#eeeeee" stroke-width="2"></line><line id="SvgjsLine1280" x1="875.0000000000005" y1="1610" x2="875.0000000000005" y2="1590" stroke-linecap="round" stroke="#eeeeee" stroke-width="3"></line><line id="SvgjsLine1281" x1="875.0000000000001" y1="1135" x2="875.0000000000001" y2="1125" stroke-linecap="round" stroke="#eeeeee"></line><line id="SvgjsLine1282" x1="798.171579498275" y1="1605.9735930956808" x2="799.2168641309515" y2="1596.0283741419983" stroke-linecap="round" stroke="#eeeeee" stroke-width="2"></line><line id="SvgjsLine1283" x1="722.1849072489471" y1="1593.9384865393472" x2="724.2640241571247" y2="1584.1570105320093" stroke-linecap="round" stroke="#eeeeee" stroke-width="2"></line><line id="SvgjsLine1284" x1="647.8725091344138" y1="1574.026539476938" x2="650.9626790781632" y2="1564.5159743139864" stroke-linecap="round" stroke="#eeeeee" stroke-width="2"></line><line id="SvgjsLine1285" x1="576.0485673392868" y1="1546.4559113673117" x2="580.1159337700449" y2="1537.3204567908856" stroke-linecap="round" stroke="#eeeeee" stroke-width="2"></line><line id="SvgjsLine1286" x1="507.5000000000002" y1="1511.5286717815625" x2="517.5000000000002" y2="1494.2081637058736" stroke-linecap="round" stroke="#eeeeee" stroke-width="3"></line><line id="SvgjsLine1287" x1="745.0000000000001" y1="1100.1666049839541" x2="750.0000000000001" y2="1091.5063509461097" stroke-linecap="round" stroke="#eeeeee"></line><line id="SvgjsLine1288" x1="442.9778395650323" y1="1469.6274908655864" x2="448.85569208795704" y2="1461.537320921837" stroke-linecap="round" stroke="#eeeeee" stroke-width="2"></line><line id="SvgjsLine1289" x1="383.18900432623917" y1="1421.2114467258848" x2="389.8803103898278" y2="1413.779998471111" stroke-linecap="round" stroke="#eeeeee" stroke-width="2"></line><line id="SvgjsLine1290" x1="328.78855327411543" y1="1366.810995673761" x2="336.2200015288894" y2="1360.1196896101724" stroke-linecap="round" stroke="#eeeeee" stroke-width="2"></line><line id="SvgjsLine1291" x1="280.3725091344137" y1="1307.0221604349679" x2="288.4626790781632" y2="1301.1443079120431" stroke-linecap="round" stroke="#eeeeee" stroke-width="2"></line><line id="SvgjsLine1292" x1="238.47132821843775" y1="1242.5000000000005" x2="255.79183629412648" y2="1232.5000000000005" stroke-linecap="round" stroke="#eeeeee" stroke-width="3"></line><line id="SvgjsLine1293" x1="649.833395016046" y1="1005.0000000000001" x2="658.4936490538904" y2="1000.0000000000001" stroke-linecap="round" stroke="#eeeeee"></line><text id="SvgjsText1294" font-family="Roboto" font-size="40" font-weight="300" fill="#eeeeee" size="40" weight="300" family="Roboto"><textPath id="SvgjsTextPath1296" xlink:href="#SvgjsPath1297"><tspan id="SvgjsTspan1295" dy="52" x="0">20:00</tspan></textPath></text><line id="SvgjsLine1298" x1="203.5440886326886" y1="1173.9514326607136" x2="212.67954320911463" y2="1169.8840662299558" stroke-linecap="round" stroke="#eeeeee" stroke-width="2"></line><line id="SvgjsLine1299" x1="175.97346052306216" y1="1102.1274908655864" x2="185.48402568601364" y2="1099.037320921837" stroke-linecap="round" stroke="#eeeeee" stroke-width="2"></line><line id="SvgjsLine1300" x1="156.06151346065292" y1="1027.8150927510535" x2="165.84298946799095" y2="1025.7359758428759" stroke-linecap="round" stroke="#eeeeee" stroke-width="2"></line><line id="SvgjsLine1301" x1="144.02640690431917" y1="951.8284205017259" x2="153.97162585800186" y2="950.7831358690494" stroke-linecap="round" stroke="#eeeeee" stroke-width="2"></line><line id="SvgjsLine1302" x1="140" y1="875.0000000000001" x2="160" y2="875.0000000000001" stroke-linecap="round" stroke="#eeeeee" stroke-width="3"></line><line id="SvgjsLine1303" x1="615" y1="875" x2="625" y2="875" stroke-linecap="round" stroke="#eeeeee"></line><text id="SvgjsText1304" font-family="Roboto" font-size="40" font-weight="300" fill="#eeeeee" size="40" weight="300" family="Roboto"><textPath id="SvgjsTextPath1306" xlink:href="#SvgjsPath1307"><tspan id="SvgjsTspan1305" dy="52" x="0">21:00</tspan></textPath></text><line id="SvgjsLine1308" x1="144.02640690431906" y1="798.171579498275" x2="153.97162585800174" y2="799.2168641309515" stroke-linecap="round" stroke="#eeeeee" stroke-width="2"></line><line id="SvgjsLine1309" x1="156.06151346065292" y1="722.1849072489468" x2="165.84298946799095" y2="724.2640241571244" stroke-linecap="round" stroke="#eeeeee" stroke-width="2"></line><line id="SvgjsLine1310" x1="175.97346052306204" y1="647.8725091344138" x2="185.48402568601364" y2="650.9626790781633" stroke-linecap="round" stroke="#eeeeee" stroke-width="2"></line><line id="SvgjsLine1311" x1="203.54408863268816" y1="576.0485673392872" x2="212.67954320911417" y2="580.1159337700451" stroke-linecap="round" stroke="#eeeeee" stroke-width="2"></line><line id="SvgjsLine1312" x1="238.47132821843763" y1="507.49999999999994" x2="255.79183629412637" y2="517.5" stroke-linecap="round" stroke="#eeeeee" stroke-width="3"></line><line id="SvgjsLine1313" x1="649.833395016046" y1="745" x2="658.4936490538903" y2="750" stroke-linecap="round" stroke="#eeeeee"></line><text id="SvgjsText1314" font-family="Roboto" font-size="40" font-weight="300" fill="#eeeeee" size="40" weight="300" family="Roboto"><textPath id="SvgjsTextPath1316" xlink:href="#SvgjsPath1317"><tspan id="SvgjsTspan1315" dy="52" x="0">22:00</tspan></textPath></text><line id="SvgjsLine1318" x1="280.3725091344136" y1="442.9778395650324" x2="288.462679078163" y2="448.85569208795715" stroke-linecap="round" stroke="#eeeeee" stroke-width="2"></line><line id="SvgjsLine1319" x1="328.78855327411543" y1="383.18900432623906" x2="336.2200015288894" y2="389.8803103898276" stroke-linecap="round" stroke="#eeeeee" stroke-width="2"></line><line id="SvgjsLine1320" x1="383.1890043262393" y1="328.7885532741152" x2="389.88031038982786" y2="336.22000152888916" stroke-linecap="round" stroke="#eeeeee" stroke-width="2"></line><line id="SvgjsLine1321" x1="442.97783956503207" y1="280.3725091344137" x2="448.8556920879568" y2="288.4626790781632" stroke-linecap="round" stroke="#eeeeee" stroke-width="2"></line><line id="SvgjsLine1322" x1="507.5000000000002" y1="238.47132821843752" x2="517.5000000000002" y2="255.79183629412626" stroke-linecap="round" stroke="#eeeeee" stroke-width="3"></line><line id="SvgjsLine1323" x1="745.0000000000001" y1="649.8333950160459" x2="750.0000000000001" y2="658.4936490538903" stroke-linecap="round" stroke="#eeeeee"></line><text id="SvgjsText1324" font-family="Roboto" font-size="40" font-weight="300" fill="#eeeeee" size="40" weight="300" family="Roboto"><textPath id="SvgjsTextPath1326" xlink:href="#SvgjsPath1327"><tspan id="SvgjsTspan1325" dy="52" x="0">23:00</tspan></textPath></text><line id="SvgjsLine1328" x1="576.0485673392868" y1="203.54408863268827" x2="580.1159337700449" y2="212.67954320911429" stroke-linecap="round" stroke="#eeeeee" stroke-width="2"></line><line id="SvgjsLine1329" x1="647.8725091344135" y1="175.97346052306216" x2="650.962679078163" y2="185.48402568601364" stroke-linecap="round" stroke="#eeeeee" stroke-width="2"></line><line id="SvgjsLine1330" x1="722.1849072489472" y1="156.0615134606528" x2="724.2640241571247" y2="165.84298946799083" stroke-linecap="round" stroke="#eeeeee" stroke-width="2"></line><line id="SvgjsLine1331" x1="798.1715794982747" y1="144.02640690431917" x2="799.2168641309513" y2="153.97162585800186" stroke-linecap="round" stroke="#eeeeee" stroke-width="2"></line><path id="SvgjsPath1332" d="M 528 875.0000000000001 
        A 347 347 0 0 1 1051.6373712653788 576.3225166296315
        L 1012.4411822526002 642.5996527089352
        A 270 270 0 0 0 605 875
        Z" fill="#592626"></path><text id="SvgjsText1333" font-family="Roboto" font-size="28" font-weight="300" fill="#eeeeee" size="28" weight="300" family="Roboto"><textPath id="SvgjsTextPath1335" xlink:href="#SvgjsPath1336" startOffset="10"><tspan id="SvgjsTspan1334" dy="36.4" x="0">Casino</tspan></textPath></text><path id="SvgjsPath1337" d="M 443 875.0000000000001 
        A 432 432 0 0 1 564.7694393663025 574.36567187212
        L 620.0651642940682 627.9509572097282
        A 355 355 0 0 0 520 875.0000000000001
        Z" fill="#594d26"></path><text id="SvgjsText1338" font-family="Roboto" font-size="28" font-weight="300" fill="#eeeeee" size="28" weight="300" family="Roboto"><textPath id="SvgjsTextPath1340" xlink:href="#SvgjsPath1341" startOffset="10"><tspan id="SvgjsTspan1339" dy="36.4" x="0">Remy's Jazz</tspan></textPath></text><path id="SvgjsPath1342" d="M 863.6915583309986 443.14803561055925 
        A 432 432 0 0 1 1094.9058916041604 503.1594443342963
        L 1055.7097025913818 569.4365804136
        A 355 355 0 0 0 865.7071833507049 520.1216496336772
        Z" fill="#475926"></path><text id="SvgjsText1343" font-family="Roboto" font-size="28" font-weight="300" fill="#eeeeee" size="28" weight="300" family="Roboto"><textPath id="SvgjsTextPath1345" xlink:href="#SvgjsPath1346" startOffset="10"><tspan id="SvgjsTspan1344" dy="36.4" x="0">Sean Bracebridge</tspan></textPath></text><path id="SvgjsPath1347" d="M 379.2901970731443 1021.8359332119285 
        A 517 517 0 0 1 373.57616809778585 749.0510389066266
        L 448.2563132747114 767.8093948141502
        A 440 440 0 0 0 453.11931665799517 999.9667516697264
        Z" fill="#315926"></path><text id="SvgjsText1348" font-family="Roboto" font-size="28" font-weight="300" fill="#eeeeee" size="28" weight="300" family="Roboto"><textPath id="SvgjsTextPath1350" xlink:href="#SvgjsPath1351" startOffset="10"><tspan id="SvgjsTspan1349" dy="36.4" x="0">Holly Redford-Jones</tspan></textPath></text><path id="SvgjsPath1352" d="M 375.6163478085516 741.190553681997 
        A 517 517 0 0 1 503.72870405643164 515.2130841617732
        L 559.0244289841971 568.7983694993815
        A 440 440 0 0 0 449.9926364328099 761.1196201548911
        Z" fill="#265941"></path><text id="SvgjsText1353" font-family="Roboto" font-size="28" font-weight="300" fill="#eeeeee" size="28" weight="300" family="Roboto"><textPath id="SvgjsTextPath1355" xlink:href="#SvgjsPath1356" startOffset="10"><tspan id="SvgjsTspan1354" dy="36.4" x="0">Out of the Blue</tspan></textPath></text><path id="SvgjsPath1357" d="M 616.4999999999998 427.26486624344534 
        A 517 517 0 0 1 853.3502870220036 358.45349683889026
        L 856.574712359152 435.3859547565023
        A 440 440 0 0 0 654.9999999999998 493.94882233484714
        Z" fill="#265359"></path><text id="SvgjsText1358" font-family="Roboto" font-size="28" font-weight="300" fill="#eeeeee" size="28" weight="300" family="Roboto"><textPath id="SvgjsTextPath1360" xlink:href="#SvgjsPath1361" startOffset="10"><tspan id="SvgjsTspan1359" dy="36.4" x="0">The Hoosiers</tspan></textPath></text><path id="SvgjsPath1362" d="M 861.4665177248294 358.17716298763685 
        A 517 517 0 0 1 1138.174411942942 429.9963720389611
        L 1098.9782229301634 496.2735081182648
        A 440 440 0 0 0 863.4821427445356 435.1507770107548
        Z" fill="#264259"></path><text id="SvgjsText1363" font-family="Roboto" font-size="28" font-weight="300" fill="#eeeeee" size="28" weight="300" family="Roboto"><textPath id="SvgjsTextPath1365" xlink:href="#SvgjsPath1366" startOffset="10"><tspan id="SvgjsTspan1364" dy="36.4" x="0">Dot's Funk Odyssey</tspan></textPath></text><path id="SvgjsPath1367" d="M 1145.1317579581455 434.1850350289343 
        A 517 517 0 0 1 1386.453796141865 799.4750742332333
        L 1310.279826503715 810.723467432539
        A 440 440 0 0 0 1104.8993684750176 499.8383276841994
        Z" fill="#263059"></path><text id="SvgjsText1368" font-family="Roboto" font-size="28" font-weight="300" fill="#eeeeee" size="28" weight="300" family="Roboto"><textPath id="SvgjsTextPath1370" xlink:href="#SvgjsPath1371" startOffset="10"><tspan id="SvgjsTspan1369" dy="36.4" x="0">SE10</tspan></textPath></text><path id="SvgjsPath1372" d="M 1387.57699333026 807.5179586222332 
        A 517 517 0 0 1 1326.7402393093355 1126.4353916789446
        L 1259.4597781356047 1088.9875673863357
        A 440 440 0 0 0 1311.2357390044765 817.5684754231772
        Z" fill="#422659"></path><text id="SvgjsText1373" font-family="Roboto" font-size="28" font-weight="300" fill="#eeeeee" size="28" weight="300" family="Roboto"><textPath id="SvgjsTextPath1375" xlink:href="#SvgjsPath1376" startOffset="10"><tspan id="SvgjsTspan1374" dy="36.4" x="0">Silent Disco</tspan></textPath></text><path id="SvgjsPath1377" d="M 273 875.0000000000001 
        A 602 602 0 0 1 348.98912173265 582.2261009850586
        L 416.26958290638083 619.6739252776674
        A 525 525 0 0 0 350 875.0000000000001
        Z" fill="#592645"></path><text id="SvgjsText1378" font-family="Roboto" font-size="28" font-weight="300" fill="#eeeeee" size="28" weight="300" family="Roboto"><textPath id="SvgjsTextPath1380" xlink:href="#SvgjsPath1381" startOffset="10"><tspan id="SvgjsTspan1379" dy="36.4" x="0">Little Sparta OX1</tspan></textPath></text><path id="SvgjsPath1382" d="M 353.65270692176796 574 
        A 602 602 0 0 1 565.8481662609813 358.44492675436607
        L 605.3908426694604 424.5159244950867
        A 525 525 0 0 0 420.33666301316975 612.5
        Z" fill="#592626"></path><text id="SvgjsText1383" font-family="Roboto" font-size="28" font-weight="300" fill="#eeeeee" size="28" weight="300" family="Roboto"><textPath id="SvgjsTextPath1385" xlink:href="#SvgjsPath1386" startOffset="10"><tspan id="SvgjsTspan1384" dy="36.4" x="0">Emily the Snake</tspan></textPath></text><path id="SvgjsPath1387" d="M 719.190934848282 293.512652573981 
        A 602 602 0 0 1 944.1921645967057 276.9895951085614
        L 935.342004008755 353.47929805979186
        A 525 525 0 0 0 739.1200013211762 367.88894119823925
        Z" fill="#594d26"></path><text id="SvgjsText1388" font-family="Roboto" font-size="28" font-weight="300" fill="#eeeeee" size="28" weight="300" family="Roboto"><textPath id="SvgjsTextPath1390" xlink:href="#SvgjsPath1391" startOffset="10"><tspan id="SvgjsTspan1389" dy="36.4" x="0">Garfunkel</tspan></textPath></text><path id="SvgjsPath1392" d="M 1030.8090651517175 293.51265257398086 
        A 602 602 0 0 1 1391.555073245634 565.8481662609815
        L 1325.4840755049133 605.3908426694607
        A 525 525 0 0 0 1010.8799986788234 367.88894119823914
        Z" fill="#475926"></path><text id="SvgjsText1393" font-family="Roboto" font-size="28" font-weight="300" fill="#eeeeee" size="28" weight="300" family="Roboto"><textPath id="SvgjsTextPath1395" xlink:href="#SvgjsPath1396" startOffset="10"><tspan id="SvgjsTspan1394" dy="36.4" x="0">Burning Down the House</tspan></textPath></text><path id="SvgjsPath1397" d="M 280.0405476000908 1218.5000000000002 
        A 687 687 0 0 1 188.0847534850992 885.7909269932209
        L 265.07525418618707 884.5814635602106
        A 610 610 0 0 0 346.7245036914925 1180.0000000000002
        Z" fill="#315926"></path><text id="SvgjsText1398" font-family="Roboto" font-size="28" font-weight="300" fill="#eeeeee" size="28" weight="300" family="Roboto"><textPath id="SvgjsTextPath1400" xlink:href="#SvgjsPath1401" startOffset="10"><tspan id="SvgjsTspan1399" dy="36.4" x="0">String Quartet</tspan></textPath></text><path id="SvgjsPath1402" d="M 188 875.0000000000001 
        A 687 687 0 0 1 274.7184827746355 540.887593649062
        L 341.99894394836633 578.3354179416707
        A 610 610 0 0 0 265 875.0000000000001
        Z" fill="#265941"></path><text id="SvgjsText1403" font-family="Roboto" font-size="28" font-weight="300" fill="#eeeeee" size="28" weight="300" family="Roboto"><textPath id="SvgjsTextPath1405" xlink:href="#SvgjsPath1406" startOffset="10"><tspan id="SvgjsTspan1404" dy="36.4" x="0">Dancesport Demo</tspan></textPath></text><path id="SvgjsPath1407" d="M 280.0405476000907 531.5 
        A 687 687 0 0 1 448.2714749488006 336.6025948171482
        L 496.0998540302305 396.9469910312378
        A 610 610 0 0 0 346.7245036914925 570
        Z" fill="#265359"></path><text id="SvgjsText1408" font-family="Roboto" font-size="28" font-weight="300" fill="#eeeeee" size="28" weight="300" family="Roboto"><textPath id="SvgjsTextPath1410" xlink:href="#SvgjsPath1411" startOffset="10"><tspan id="SvgjsTspan1409" dy="36.4" x="0">Fire Show</tspan></textPath></text><path id="SvgjsPath1412" d="M 485.87891523263977 308.8253084166753 
        A 687 687 0 0 1 721.6271703004767 205.33905959063054
        L 738.8174292333199 280.39567154335464
        A 610 610 0 0 0 529.492195475852 372.2830249405705
        Z" fill="#264259"></path><text id="SvgjsText1413" font-family="Roboto" font-size="28" font-weight="300" fill="#eeeeee" size="28" weight="300" family="Roboto"><textPath id="SvgjsTextPath1415" xlink:href="#SvgjsPath1416" startOffset="10"><tspan id="SvgjsTspan1414" dy="36.4" x="0">Ambient Fire Show</tspan></textPath></text><text id="SvgjsText1417" font-family="Roboto" font-size="38" font-weight="300" fill="#eeeeee" size="38" weight="300" family="Roboto"><textPath id="SvgjsTextPath1419" xlink:href="#SvgjsPath1420" startOffset="50%" text-anchor="middle"><tspan id="SvgjsTspan1418" dy="49.4" x="0">Hall</tspan></textPath></text><text id="SvgjsText1421" font-family="Roboto" font-size="38" font-weight="300" fill="#eeeeee" size="38" weight="300" family="Roboto"><textPath id="SvgjsTextPath1423" xlink:href="#SvgjsPath1424" startOffset="50%" text-anchor="middle"><tspan id="SvgjsTspan1422" dy="49.4" x="0">Hall Music</tspan></textPath></text><text id="SvgjsText1425" font-family="Roboto" font-size="38" font-weight="300" fill="#eeeeee" size="38" weight="300" family="Roboto"><textPath id="SvgjsTextPath1427" xlink:href="#SvgjsPath1428" startOffset="50%" text-anchor="middle"><tspan id="SvgjsTspan1426" dy="49.4" x="0">Tropical Paradise</tspan></textPath></text><text id="SvgjsText1429" font-family="Roboto" font-size="38" font-weight="300" fill="#eeeeee" size="38" weight="300" family="Roboto"><textPath id="SvgjsTextPath1431" xlink:href="#SvgjsPath1432" startOffset="50%" text-anchor="middle"><tspan id="SvgjsTspan1430" dy="49.4" x="0">Shangri-LA</tspan></textPath></text><text id="SvgjsText1433" font-family="Roboto" font-size="38" font-weight="300" fill="#eeeeee" size="38" weight="300" family="Roboto"><textPath id="SvgjsTextPath1435" xlink:href="#SvgjsPath1436" startOffset="50%" text-anchor="middle"><tspan id="SvgjsTspan1434" dy="49.4" x="0">Garden of Eden</tspan></textPath></text></svg>