<svg id="SvgjsSvg1985" width="1690" height="1690" xmlns="http://www.w3.org/2000/svg" version="1.1" xmlns:xlink="http://www.w3.org/1999/xlink" xmlns:svgjs="http://svgjs.com/svgjs"><defs id="SvgjsDefs1986"><path id="SvgjsPath1993" d="M 804.7667687371039 41.006040382052106 L 885.2332312628961 41.006040382052106"></path><path id="SvgjsPath2003" d="M 1189.0697311841363 178.57969712584827 L 1235.5733501973282 101.32503194229048"></path><path id="SvgjsPath2013" d="M 1476.183279315821 439.897953705333 L 1555.0839273409367 396.24526060210655"></path><path id="SvgjsPath2023" d="M 1594.1717774788035 809.7629764416689 L 1684.3280895952214 811.408959283227"></path><path id="SvgjsPath2033" d="M 1511.4203028741517 1189.0697311841361 L 1588.6749680577095 1235.573350197328"></path><path id="SvgjsPath2061" d="M 94.16645876178927 1232.6518971341275 L 171.72880628029873 1186.6590401368717"></path><path id="SvgjsPath2071" d="M 0.9331307072149002 805.2996201242809 L 91.10052253402887 804.2498113312872"></path><path id="SvgjsPath2081" d="M 133.8668386375084 388.5850278413421 L 212.4789949490115 432.7595626709002"></path><path id="SvgjsPath2091" d="M 457.3481028658731 94.16645876178904 L 503.34095986312883 171.7288062802985"></path><path id="SvgjsPath2100" d="M 509 845.0000000000001
      A 336 336 0 0 1 1016.0379156921248 555.7906789266749"></path><path id="SvgjsPath2105" d="M 424 845.0000000000001
      A 421 421 0 0 1 542.6688286416977 552.0207126346354"></path><path id="SvgjsPath2110" d="M 833.9795047623852 424.1442661852904
      A 421 421 0 0 1 1059.3064360309063 482.62760663133975"></path><path id="SvgjsPath2115" d="M 359.8372141566944 988.7117644201853
      A 506 506 0 0 1 354.2447602659181 721.7308040362728"></path><path id="SvgjsPath2120" d="M 356.24153189773136 714.0375631781247
      A 506 506 0 0 1 481.6280933318267 492.8681249242887"></path><path id="SvgjsPath2125" d="M 591.9999999999998 406.7911456850742
      A 506 506 0 0 1 823.8109192130248 339.44384796997764"></path><path id="SvgjsPath2130" d="M 831.7544641562159 339.173393562368
      A 506 506 0 0 1 1102.574956369688 409.46453433600453"></path><path id="SvgjsPath2135" d="M 1109.38427374627 413.5640768368293
      A 506 506 0 0 1 1345.571800479272 771.0819875474198"></path><path id="SvgjsPath2140" d="M 1346.671099855148 778.9537467366538
      A 506 506 0 0 1 1287.1287448559456 1091.0857024942861"></path><path id="SvgjsPath2145" d="M 254 845.0000000000001
      A 591 591 0 0 1 328.60061618604016 557.575790169717"></path><path id="SvgjsPath2150" d="M 333.1789863633968 549.5
      A 591 591 0 0 1 541.4971200336213 337.88364071732616"></path><path id="SvgjsPath2155" d="M 692.0379443444098 274.1378366631608
      A 591 591 0 0 1 912.9278559412842 257.9166955301657"></path><path id="SvgjsPath2160" d="M 997.9620556555898 274.13783666316067
      A 591 591 0 0 1 1352.116359282674 541.4971200336215"></path><path id="SvgjsPath2165" d="M 259.56682704171953 1183.0000000000002
      A 676 676 0 0 1 169.08339644239743 855.6181465027909"></path><path id="SvgjsPath2170" d="M 169 845.0000000000001
      A 676 676 0 0 1 254.32997722802565 516.2372828337203"></path><path id="SvgjsPath2175" d="M 259.56682704171953 506.99999999999994
      A 676 676 0 0 1 425.104100531862 315.2232228477325"></path><path id="SvgjsPath2180" d="M 462.10938383881296 287.8906964915175
      A 676 676 0 0 1 694.0829215765972 186.06143272673398"></path></defs><circle id="SvgjsCircle1987" r="845" cx="845" cy="845" fill="#1b2028"></circle><line id="SvgjsLine1988" x1="845" y1="110" x2="845" y2="130" stroke-linecap="round" stroke="#eeeeee" stroke-width="3"></line><line id="SvgjsLine1989" x1="845" y1="585" x2="845" y2="595" stroke-linecap="round" stroke="#eeeeee"></line><text id="SvgjsText1990" font-family="Roboto" font-size="40" font-weight="300" fill="#eeeeee" size="40" weight="300" family="Roboto"><textPath id="SvgjsTextPath1992" xlink:href="#SvgjsPath1993"><tspan id="SvgjsTspan1991" dy="52" x="0">0:00</tspan></textPath></text><line id="SvgjsLine1994" x1="921.8284205017253" y1="114.02640690431917" x2="920.7831358690488" y2="123.97162585800186" stroke-linecap="round" stroke="#eeeeee" stroke-width="2"></line><line id="SvgjsLine1995" x1="997.815092751053" y1="126.0615134606528" x2="995.7359758428755" y2="135.84298946799083" stroke-linecap="round" stroke="#eeeeee" stroke-width="2"></line><line id="SvgjsLine1996" x1="1072.1274908655864" y1="145.97346052306216" x2="1069.037320921837" y2="155.48402568601364" stroke-linecap="round" stroke="#eeeeee" stroke-width="2"></line><line id="SvgjsLine1997" x1="1143.9514326607132" y1="173.54408863268839" x2="1139.8840662299551" y2="182.6795432091144" stroke-linecap="round" stroke="#eeeeee" stroke-width="2"></line><line id="SvgjsLine1998" x1="1212.5" y1="208.47132821843752" x2="1202.5" y2="225.79183629412637" stroke-linecap="round" stroke="#eeeeee" stroke-width="3"></line><line id="SvgjsLine1999" x1="975" y1="619.8333950160459" x2="970" y2="628.4936490538903" stroke-linecap="round" stroke="#eeeeee"></line><text id="SvgjsText2000" font-family="Roboto" font-size="40" font-weight="300" fill="#eeeeee" size="40" weight="300" family="Roboto"><textPath id="SvgjsTextPath2002" xlink:href="#SvgjsPath2003"><tspan id="SvgjsTspan2001" dy="52" x="0">1:00</tspan></textPath></text><line id="SvgjsLine2004" x1="1277.0221604349676" y1="250.37250913441358" x2="1271.1443079120431" y2="258.4626790781631" stroke-linecap="round" stroke="#eeeeee" stroke-width="2"></line><line id="SvgjsLine2005" x1="1336.8109956737608" y1="298.7885532741152" x2="1330.1196896101721" y2="306.22000152888916" stroke-linecap="round" stroke="#eeeeee" stroke-width="2"></line><line id="SvgjsLine2006" x1="1391.2114467258848" y1="353.18900432623917" x2="1383.779998471111" y2="359.8803103898278" stroke-linecap="round" stroke="#eeeeee" stroke-width="2"></line><line id="SvgjsLine2007" x1="1439.6274908655864" y1="412.97783956503224" x2="1431.537320921837" y2="418.855692087957" stroke-linecap="round" stroke="#eeeeee" stroke-width="2"></line><line id="SvgjsLine2008" x1="1481.5286717815625" y1="477.49999999999994" x2="1464.2081637058736" y2="487.49999999999994" stroke-linecap="round" stroke="#eeeeee" stroke-width="3"></line><line id="SvgjsLine2009" x1="1070.1666049839541" y1="715" x2="1061.5063509461097" y2="720" stroke-linecap="round" stroke="#eeeeee"></line><text id="SvgjsText2010" font-family="Roboto" font-size="40" font-weight="300" fill="#eeeeee" size="40" weight="300" family="Roboto"><textPath id="SvgjsTextPath2012" xlink:href="#SvgjsPath2013"><tspan id="SvgjsTspan2011" dy="52" x="0">2:00</tspan></textPath></text><line id="SvgjsLine2014" x1="1516.4559113673117" y1="546.0485673392867" x2="1507.3204567908856" y2="550.1159337700446" stroke-linecap="round" stroke="#eeeeee" stroke-width="2"></line><line id="SvgjsLine2015" x1="1544.0265394769378" y1="617.8725091344136" x2="1534.5159743139864" y2="620.9626790781631" stroke-linecap="round" stroke="#eeeeee" stroke-width="2"></line><line id="SvgjsLine2016" x1="1563.9384865393472" y1="692.184907248947" x2="1554.1570105320093" y2="694.2640241571246" stroke-linecap="round" stroke="#eeeeee" stroke-width="2"></line><line id="SvgjsLine2017" x1="1575.9735930956808" y1="768.1715794982747" x2="1566.028374141998" y2="769.2168641309512" stroke-linecap="round" stroke="#eeeeee" stroke-width="2"></line><line id="SvgjsLine2018" x1="1580" y1="844.9999999999998" x2="1560" y2="844.9999999999998" stroke-linecap="round" stroke="#eeeeee" stroke-width="3"></line><line id="SvgjsLine2019" x1="1105" y1="844.9999999999999" x2="1095" y2="844.9999999999999" stroke-linecap="round" stroke="#eeeeee"></line><text id="SvgjsText2020" font-family="Roboto" font-size="40" font-weight="300" fill="#eeeeee" size="40" weight="300" family="Roboto"><textPath id="SvgjsTextPath2022" xlink:href="#SvgjsPath2023"><tspan id="SvgjsTspan2021" dy="52" x="0">3:00</tspan></textPath></text><line id="SvgjsLine2024" x1="1575.9735930956808" y1="921.8284205017252" x2="1566.0283741419983" y2="920.7831358690487" stroke-linecap="round" stroke="#eeeeee" stroke-width="2"></line><line id="SvgjsLine2025" x1="1563.9384865393472" y1="997.8150927510532" x2="1554.1570105320093" y2="995.7359758428755" stroke-linecap="round" stroke="#eeeeee" stroke-width="2"></line><line id="SvgjsLine2026" x1="1544.026539476938" y1="1072.1274908655862" x2="1534.5159743139864" y2="1069.037320921837" stroke-linecap="round" stroke="#eeeeee" stroke-width="2"></line><line id="SvgjsLine2027" x1="1516.4559113673117" y1="1143.9514326607132" x2="1507.3204567908856" y2="1139.8840662299551" stroke-linecap="round" stroke="#eeeeee" stroke-width="2"></line><line id="SvgjsLine2028" x1="1481.5286717815625" y1="1212.4999999999998" x2="1464.2081637058736" y2="1202.4999999999998" stroke-linecap="round" stroke="#eeeeee" stroke-width="3"></line><line id="SvgjsLine2029" x1="1070.1666049839541" y1="975" x2="1061.5063509461097" y2="970" stroke-linecap="round" stroke="#eeeeee"></line><text id="SvgjsText2030" font-family="Roboto" font-size="40" font-weight="300" fill="#eeeeee" size="40" weight="300" family="Roboto"><textPath id="SvgjsTextPath2032" xlink:href="#SvgjsPath2033"><tspan id="SvgjsTspan2031" dy="52" x="0">4:00</tspan></textPath></text><line id="SvgjsLine2034" x1="1439.6274908655864" y1="1277.0221604349676" x2="1431.537320921837" y2="1271.144307912043" stroke-linecap="round" stroke="#eeeeee" stroke-width="2"></line><line id="SvgjsLine2035" x1="1391.2114467258848" y1="1336.8109956737605" x2="1383.779998471111" y2="1330.119689610172" stroke-linecap="round" stroke="#eeeeee" stroke-width="2"></line><line id="SvgjsLine2036" x1="1336.8109956737608" y1="1391.2114467258848" x2="1330.1196896101724" y2="1383.7799984711107" stroke-linecap="round" stroke="#eeeeee" stroke-width="2"></line><line id="SvgjsLine2037" x1="1277.0221604349679" y1="1439.6274908655864" x2="1271.1443079120431" y2="1431.537320921837" stroke-linecap="round" stroke="#eeeeee" stroke-width="2"></line><line id="SvgjsLine2038" x1="1212.5" y1="1481.5286717815625" x2="1202.5" y2="1464.2081637058736" stroke-linecap="round" stroke="#eeeeee" stroke-width="3"></line><line id="SvgjsLine2039" x1="975" y1="1070.1666049839541" x2="970" y2="1061.5063509461097" stroke-linecap="round" stroke="#eeeeee"></line><line id="SvgjsLine2040" x1="1143.951432660713" y1="1516.4559113673117" x2="1139.884066229955" y2="1507.3204567908856" stroke-linecap="round" stroke="#eeeeee" stroke-width="2"></line><line id="SvgjsLine2041" x1="1072.1274908655864" y1="1544.0265394769378" x2="1069.037320921837" y2="1534.5159743139864" stroke-linecap="round" stroke="#eeeeee" stroke-width="2"></line><line id="SvgjsLine2042" x1="997.815092751053" y1="1563.9384865393472" x2="995.7359758428755" y2="1554.1570105320093" stroke-linecap="round" stroke="#eeeeee" stroke-width="2"></line><line id="SvgjsLine2043" x1="921.8284205017252" y1="1575.9735930956808" x2="920.7831358690487" y2="1566.0283741419983" stroke-linecap="round" stroke="#eeeeee" stroke-width="2"></line><line id="SvgjsLine2044" x1="845.0000000000005" y1="1580" x2="845.0000000000005" y2="1560" stroke-linecap="round" stroke="#eeeeee" stroke-width="3"></line><line id="SvgjsLine2045" x1="845.0000000000001" y1="1105" x2="845.0000000000001" y2="1095" stroke-linecap="round" stroke="#eeeeee"></line><line id="SvgjsLine2046" x1="768.171579498275" y1="1575.9735930956808" x2="769.2168641309515" y2="1566.0283741419983" stroke-linecap="round" stroke="#eeeeee" stroke-width="2"></line><line id="SvgjsLine2047" x1="692.1849072489471" y1="1563.9384865393472" x2="694.2640241571247" y2="1554.1570105320093" stroke-linecap="round" stroke="#eeeeee" stroke-width="2"></line><line id="SvgjsLine2048" x1="617.8725091344138" y1="1544.026539476938" x2="620.9626790781632" y2="1534.5159743139864" stroke-linecap="round" stroke="#eeeeee" stroke-width="2"></line><line id="SvgjsLine2049" x1="546.0485673392868" y1="1516.4559113673117" x2="550.1159337700449" y2="1507.3204567908856" stroke-linecap="round" stroke="#eeeeee" stroke-width="2"></line><line id="SvgjsLine2050" x1="477.5000000000002" y1="1481.5286717815625" x2="487.50000000000017" y2="1464.2081637058736" stroke-linecap="round" stroke="#eeeeee" stroke-width="3"></line><line id="SvgjsLine2051" x1="715.0000000000001" y1="1070.1666049839541" x2="720.0000000000001" y2="1061.5063509461097" stroke-linecap="round" stroke="#eeeeee"></line><line id="SvgjsLine2052" x1="412.9778395650323" y1="1439.6274908655864" x2="418.85569208795704" y2="1431.537320921837" stroke-linecap="round" stroke="#eeeeee" stroke-width="2"></line><line id="SvgjsLine2053" x1="353.18900432623917" y1="1391.2114467258848" x2="359.8803103898278" y2="1383.779998471111" stroke-linecap="round" stroke="#eeeeee" stroke-width="2"></line><line id="SvgjsLine2054" x1="298.78855327411543" y1="1336.810995673761" x2="306.2200015288894" y2="1330.1196896101724" stroke-linecap="round" stroke="#eeeeee" stroke-width="2"></line><line id="SvgjsLine2055" x1="250.3725091344137" y1="1277.0221604349679" x2="258.4626790781632" y2="1271.1443079120431" stroke-linecap="round" stroke="#eeeeee" stroke-width="2"></line><line id="SvgjsLine2056" x1="208.47132821843775" y1="1212.5000000000005" x2="225.79183629412648" y2="1202.5000000000005" stroke-linecap="round" stroke="#eeeeee" stroke-width="3"></line><line id="SvgjsLine2057" x1="619.833395016046" y1="975.0000000000001" x2="628.4936490538904" y2="970.0000000000001" stroke-linecap="round" stroke="#eeeeee"></line><text id="SvgjsText2058" font-family="Roboto" font-size="40" font-weight="300" fill="#eeeeee" size="40" weight="300" family="Roboto"><textPath id="SvgjsTextPath2060" xlink:href="#SvgjsPath2061"><tspan id="SvgjsTspan2059" dy="52" x="0">20:00</tspan></textPath></text><line id="SvgjsLine2062" x1="173.5440886326886" y1="1143.9514326607136" x2="182.67954320911463" y2="1139.8840662299558" stroke-linecap="round" stroke="#eeeeee" stroke-width="2"></line><line id="SvgjsLine2063" x1="145.97346052306216" y1="1072.1274908655864" x2="155.48402568601364" y2="1069.037320921837" stroke-linecap="round" stroke="#eeeeee" stroke-width="2"></line><line id="SvgjsLine2064" x1="126.06151346065292" y1="997.8150927510535" x2="135.84298946799095" y2="995.7359758428759" stroke-linecap="round" stroke="#eeeeee" stroke-width="2"></line><line id="SvgjsLine2065" x1="114.02640690431917" y1="921.8284205017259" x2="123.97162585800186" y2="920.7831358690494" stroke-linecap="round" stroke="#eeeeee" stroke-width="2"></line><line id="SvgjsLine2066" x1="110" y1="845.0000000000001" x2="130" y2="845.0000000000001" stroke-linecap="round" stroke="#eeeeee" stroke-width="3"></line><line id="SvgjsLine2067" x1="585" y1="845" x2="595" y2="845" stroke-linecap="round" stroke="#eeeeee"></line><text id="SvgjsText2068" font-family="Roboto" font-size="40" font-weight="300" fill="#eeeeee" size="40" weight="300" family="Roboto"><textPath id="SvgjsTextPath2070" xlink:href="#SvgjsPath2071"><tspan id="SvgjsTspan2069" dy="52" x="0">21:00</tspan></textPath></text><line id="SvgjsLine2072" x1="114.02640690431906" y1="768.171579498275" x2="123.97162585800174" y2="769.2168641309515" stroke-linecap="round" stroke="#eeeeee" stroke-width="2"></line><line id="SvgjsLine2073" x1="126.06151346065292" y1="692.1849072489468" x2="135.84298946799095" y2="694.2640241571244" stroke-linecap="round" stroke="#eeeeee" stroke-width="2"></line><line id="SvgjsLine2074" x1="145.97346052306204" y1="617.8725091344138" x2="155.48402568601364" y2="620.9626790781633" stroke-linecap="round" stroke="#eeeeee" stroke-width="2"></line><line id="SvgjsLine2075" x1="173.54408863268816" y1="546.0485673392872" x2="182.67954320911417" y2="550.1159337700451" stroke-linecap="round" stroke="#eeeeee" stroke-width="2"></line><line id="SvgjsLine2076" x1="208.47132821843763" y1="477.49999999999994" x2="225.79183629412637" y2="487.49999999999994" stroke-linecap="round" stroke="#eeeeee" stroke-width="3"></line><line id="SvgjsLine2077" x1="619.833395016046" y1="715" x2="628.4936490538903" y2="720" stroke-linecap="round" stroke="#eeeeee"></line><text id="SvgjsText2078" font-family="Roboto" font-size="40" font-weight="300" fill="#eeeeee" size="40" weight="300" family="Roboto"><textPath id="SvgjsTextPath2080" xlink:href="#SvgjsPath2081"><tspan id="SvgjsTspan2079" dy="52" x="0">22:00</tspan></textPath></text><line id="SvgjsLine2082" x1="250.37250913441358" y1="412.9778395650324" x2="258.462679078163" y2="418.85569208795715" stroke-linecap="round" stroke="#eeeeee" stroke-width="2"></line><line id="SvgjsLine2083" x1="298.78855327411543" y1="353.18900432623906" x2="306.2200015288894" y2="359.8803103898276" stroke-linecap="round" stroke="#eeeeee" stroke-width="2"></line><line id="SvgjsLine2084" x1="353.1890043262393" y1="298.7885532741152" x2="359.88031038982786" y2="306.22000152888916" stroke-linecap="round" stroke="#eeeeee" stroke-width="2"></line><line id="SvgjsLine2085" x1="412.97783956503207" y1="250.3725091344137" x2="418.8556920879568" y2="258.4626790781632" stroke-linecap="round" stroke="#eeeeee" stroke-width="2"></line><line id="SvgjsLine2086" x1="477.5000000000002" y1="208.47132821843752" x2="487.5000000000002" y2="225.79183629412626" stroke-linecap="round" stroke="#eeeeee" stroke-width="3"></line><line id="SvgjsLine2087" x1="715.0000000000001" y1="619.8333950160459" x2="720.0000000000001" y2="628.4936490538903" stroke-linecap="round" stroke="#eeeeee"></line><text id="SvgjsText2088" font-family="Roboto" font-size="40" font-weight="300" fill="#eeeeee" size="40" weight="300" family="Roboto"><textPath id="SvgjsTextPath2090" xlink:href="#SvgjsPath2091"><tspan id="SvgjsTspan2089" dy="52" x="0">23:00</tspan></textPath></text><line id="SvgjsLine2092" x1="546.0485673392868" y1="173.54408863268827" x2="550.1159337700449" y2="182.67954320911429" stroke-linecap="round" stroke="#eeeeee" stroke-width="2"></line><line id="SvgjsLine2093" x1="617.8725091344135" y1="145.97346052306216" x2="620.962679078163" y2="155.48402568601364" stroke-linecap="round" stroke="#eeeeee" stroke-width="2"></line><line id="SvgjsLine2094" x1="692.1849072489472" y1="126.0615134606528" x2="694.2640241571247" y2="135.84298946799083" stroke-linecap="round" stroke="#eeeeee" stroke-width="2"></line><line id="SvgjsLine2095" x1="768.1715794982747" y1="114.02640690431917" x2="769.2168641309513" y2="123.97162585800186" stroke-linecap="round" stroke="#eeeeee" stroke-width="2"></line><path id="SvgjsPath2096" d="M 498 845.0000000000001 
        A 347 347 0 0 1 1021.6373712653789 546.3225166296315
        L 982.4411822526002 612.5996527089352
        A 270 270 0 0 0 575 845
        Z" fill="#592626"></path><text id="SvgjsText2097" font-family="Roboto" font-size="28" font-weight="300" fill="#eeeeee" size="28" weight="300" family="Roboto"><textPath id="SvgjsTextPath2099" xlink:href="#SvgjsPath2100" startOffset="10"><tspan id="SvgjsTspan2098" dy="36.4" x="0">Casino</tspan></textPath></text><path id="SvgjsPath2101" d="M 413 845.0000000000001 
        A 432 432 0 0 1 534.7694393663025 544.36567187212
        L 590.0651642940682 597.9509572097282
        A 355 355 0 0 0 490 845.0000000000001
        Z" fill="#594d26"></path><text id="SvgjsText2102" font-family="Roboto" font-size="28" font-weight="300" fill="#eeeeee" size="28" weight="300" family="Roboto"><textPath id="SvgjsTextPath2104" xlink:href="#SvgjsPath2105" startOffset="10"><tspan id="SvgjsTspan2103" dy="36.4" x="0">Remy's Jazz</tspan></textPath></text><path id="SvgjsPath2106" d="M 833.6915583309986 413.14803561055925 
        A 432 432 0 0 1 1064.9058916041604 473.1594443342963
        L 1025.7097025913818 539.4365804136
        A 355 355 0 0 0 835.7071833507049 490.1216496336772
        Z" fill="#475926"></path><text id="SvgjsText2107" font-family="Roboto" font-size="28" font-weight="300" fill="#eeeeee" size="28" weight="300" family="Roboto"><textPath id="SvgjsTextPath2109" xlink:href="#SvgjsPath2110" startOffset="10"><tspan id="SvgjsTspan2108" dy="36.4" x="0">Sean Bracebridge</tspan></textPath></text><path id="SvgjsPath2111" d="M 349.2901970731443 991.8359332119285 
        A 517 517 0 0 1 343.57616809778585 719.0510389066266
        L 418.2563132747114 737.8093948141502
        A 440 440 0 0 0 423.11931665799517 969.9667516697264
        Z" fill="#315926"></path><text id="SvgjsText2112" font-family="Roboto" font-size="28" font-weight="300" fill="#eeeeee" size="28" weight="300" family="Roboto"><textPath id="SvgjsTextPath2114" xlink:href="#SvgjsPath2115" startOffset="10"><tspan id="SvgjsTspan2113" dy="36.4" x="0">Holly Redford-Jones</tspan></textPath></text><path id="SvgjsPath2116" d="M 345.6163478085516 711.190553681997 
        A 517 517 0 0 1 473.72870405643164 485.2130841617732
        L 529.0244289841971 538.7983694993815
        A 440 440 0 0 0 419.9926364328099 731.1196201548911
        Z" fill="#265941"></path><text id="SvgjsText2117" font-family="Roboto" font-size="28" font-weight="300" fill="#eeeeee" size="28" weight="300" family="Roboto"><textPath id="SvgjsTextPath2119" xlink:href="#SvgjsPath2120" startOffset="10"><tspan id="SvgjsTspan2118" dy="36.4" x="0">Out of the Blue</tspan></textPath></text><path id="SvgjsPath2121" d="M 586.4999999999998 397.26486624344534 
        A 517 517 0 0 1 823.3502870220036 328.45349683889026
        L 826.574712359152 405.3859547565023
        A 440 440 0 0 0 624.9999999999998 463.94882233484714
        Z" fill="#265359"></path><text id="SvgjsText2122" font-family="Roboto" font-size="28" font-weight="300" fill="#eeeeee" size="28" weight="300" family="Roboto"><textPath id="SvgjsTextPath2124" xlink:href="#SvgjsPath2125" startOffset="10"><tspan id="SvgjsTspan2123" dy="36.4" x="0">The Hoosiers</tspan></textPath></text><path id="SvgjsPath2126" d="M 831.4665177248294 328.17716298763685 
        A 517 517 0 0 1 1108.174411942942 399.9963720389611
        L 1068.9782229301634 466.2735081182648
        A 440 440 0 0 0 833.4821427445356 405.1507770107548
        Z" fill="#264259"></path><text id="SvgjsText2127" font-family="Roboto" font-size="28" font-weight="300" fill="#eeeeee" size="28" weight="300" family="Roboto"><textPath id="SvgjsTextPath2129" xlink:href="#SvgjsPath2130" startOffset="10"><tspan id="SvgjsTspan2128" dy="36.4" x="0">Dot's Funk Odyssey</tspan></textPath></text><path id="SvgjsPath2131" d="M 1115.1317579581455 404.1850350289343 
        A 517 517 0 0 1 1356.453796141865 769.4750742332333
        L 1280.279826503715 780.723467432539
        A 440 440 0 0 0 1074.8993684750176 469.8383276841994
        Z" fill="#263059"></path><text id="SvgjsText2132" font-family="Roboto" font-size="28" font-weight="300" fill="#eeeeee" size="28" weight="300" family="Roboto"><textPath id="SvgjsTextPath2134" xlink:href="#SvgjsPath2135" startOffset="10"><tspan id="SvgjsTspan2133" dy="36.4" x="0">SE10</tspan></textPath></text><path id="SvgjsPath2136" d="M 1357.57699333026 777.5179586222332 
        A 517 517 0 0 1 1296.7402393093355 1096.4353916789446
        L 1229.4597781356047 1058.9875673863357
        A 440 440 0 0 0 1281.2357390044765 787.5684754231772
        Z" fill="#422659"></path><text id="SvgjsText2137" font-family="Roboto" font-size="28" font-weight="300" fill="#eeeeee" size="28" weight="300" family="Roboto"><textPath id="SvgjsTextPath2139" xlink:href="#SvgjsPath2140" startOffset="10"><tspan id="SvgjsTspan2138" dy="36.4" x="0">Silent Disco</tspan></textPath></text><path id="SvgjsPath2141" d="M 243 845.0000000000001 
        A 602 602 0 0 1 318.98912173265 552.2261009850586
        L 386.26958290638083 589.6739252776674
        A 525 525 0 0 0 320 845.0000000000001
        Z" fill="#592645"></path><text id="SvgjsText2142" font-family="Roboto" font-size="28" font-weight="300" fill="#eeeeee" size="28" weight="300" family="Roboto"><textPath id="SvgjsTextPath2144" xlink:href="#SvgjsPath2145" startOffset="10"><tspan id="SvgjsTspan2143" dy="36.4" x="0">Little Sparta</tspan></textPath></text><path id="SvgjsPath2146" d="M 323.65270692176796 544 
        A 602 602 0 0 1 535.8481662609813 328.44492675436607
        L 575.3908426694604 394.5159244950867
        A 525 525 0 0 0 390.33666301316975 582.5
        Z" fill="#592626"></path><text id="SvgjsText2147" font-family="Roboto" font-size="28" font-weight="300" fill="#eeeeee" size="28" weight="300" family="Roboto"><textPath id="SvgjsTextPath2149" xlink:href="#SvgjsPath2150" startOffset="10"><tspan id="SvgjsTspan2148" dy="36.4" x="0">Emily the Snake</tspan></textPath></text><path id="SvgjsPath2151" d="M 689.190934848282 263.512652573981 
        A 602 602 0 0 1 914.1921645967057 246.9895951085614
        L 905.342004008755 323.47929805979186
        A 525 525 0 0 0 709.1200013211762 337.88894119823925
        Z" fill="#594d26"></path><text id="SvgjsText2152" font-family="Roboto" font-size="28" font-weight="300" fill="#eeeeee" size="28" weight="300" family="Roboto"><textPath id="SvgjsTextPath2154" xlink:href="#SvgjsPath2155" startOffset="10"><tspan id="SvgjsTspan2153" dy="36.4" x="0">Garfunkel</tspan></textPath></text><path id="SvgjsPath2156" d="M 1000.8090651517175 263.51265257398086 
        A 602 602 0 0 1 1361.555073245634 535.8481662609815
        L 1295.4840755049133 575.3908426694607
        A 525 525 0 0 0 980.8799986788234 337.88894119823914
        Z" fill="#475926"></path><text id="SvgjsText2157" font-family="Roboto" font-size="28" font-weight="300" fill="#eeeeee" size="28" weight="300" family="Roboto"><textPath id="SvgjsTextPath2159" xlink:href="#SvgjsPath2160" startOffset="10"><tspan id="SvgjsTspan2158" dy="36.4" x="0">Burning Down the House</tspan></textPath></text><path id="SvgjsPath2161" d="M 250.0405476000908 1188.5000000000002 
        A 687 687 0 0 1 158.0847534850992 855.7909269932209
        L 235.07525418618707 854.5814635602106
        A 610 610 0 0 0 316.7245036914925 1150.0000000000002
        Z" fill="#315926"></path><text id="SvgjsText2162" font-family="Roboto" font-size="28" font-weight="300" fill="#eeeeee" size="28" weight="300" family="Roboto"><textPath id="SvgjsTextPath2164" xlink:href="#SvgjsPath2165" startOffset="10"><tspan id="SvgjsTspan2163" dy="36.4" x="0">String Quartet</tspan></textPath></text><path id="SvgjsPath2166" d="M 158 845.0000000000001 
        A 687 687 0 0 1 244.7184827746355 510.8875936490619
        L 311.99894394836633 548.3354179416707
        A 610 610 0 0 0 235 845.0000000000001
        Z" fill="#265941"></path><text id="SvgjsText2167" font-family="Roboto" font-size="28" font-weight="300" fill="#eeeeee" size="28" weight="300" family="Roboto"><textPath id="SvgjsTextPath2169" xlink:href="#SvgjsPath2170" startOffset="10"><tspan id="SvgjsTspan2168" dy="36.4" x="0">Dancesport Demo</tspan></textPath></text><path id="SvgjsPath2171" d="M 250.0405476000907 501.49999999999994 
        A 687 687 0 0 1 418.2714749488006 306.6025948171482
        L 466.0998540302305 366.9469910312378
        A 610 610 0 0 0 316.7245036914925 540
        Z" fill="#265359"></path><text id="SvgjsText2172" font-family="Roboto" font-size="28" font-weight="300" fill="#eeeeee" size="28" weight="300" family="Roboto"><textPath id="SvgjsTextPath2174" xlink:href="#SvgjsPath2175" startOffset="10"><tspan id="SvgjsTspan2173" dy="36.4" x="0">Fire Show</tspan></textPath></text><path id="SvgjsPath2176" d="M 455.87891523263977 278.8253084166753 
        A 687 687 0 0 1 691.6271703004767 175.33905959063054
        L 708.8174292333199 250.39567154335464
        A 610 610 0 0 0 499.49219547585193 342.2830249405705
        Z" fill="#264259"></path><text id="SvgjsText2177" font-family="Roboto" font-size="28" font-weight="300" fill="#eeeeee" size="28" weight="300" family="Roboto"><textPath id="SvgjsTextPath2179" xlink:href="#SvgjsPath2180" startOffset="10"><tspan id="SvgjsTspan2178" dy="36.4" x="0">Ambient Fire Show</tspan></textPath></text></svg>