<?xml version="1.0" encoding="UTF-8" standalone="no"?>
<!-- Created with Inkscape (http://www.inkscape.org/) -->

<svg
   xmlns:osb="http://www.openswatchbook.org/uri/2009/osb"
   xmlns:dc="http://purl.org/dc/elements/1.1/"
   xmlns:cc="http://creativecommons.org/ns#"
   xmlns:rdf="http://www.w3.org/1999/02/22-rdf-syntax-ns#"
   xmlns:svg="http://www.w3.org/2000/svg"
   xmlns="http://www.w3.org/2000/svg"
   xmlns:xlink="http://www.w3.org/1999/xlink"
   xmlns:sodipodi="http://sodipodi.sourceforge.net/DTD/sodipodi-0.dtd"
   xmlns:inkscape="http://www.inkscape.org/namespaces/inkscape"
   width="5764.7539"
   height="4005.6008"
   viewBox="0 0 5764.7538 4005.6008"
   id="svg2"
   version="1.1"
   inkscape:version="0.91 r13725"
   sodipodi:docname="map.svg">
  <defs
     id="defs4">
    <linearGradient
       id="linearGradient5791"
       osb:paint="solid">
      <stop
         style="stop-color:#000000;stop-opacity:1;"
         offset="0"
         id="stop5793" />
    </linearGradient>
  </defs>
  <sodipodi:namedview
     id="base"
     pagecolor="#1b2028"
     bordercolor="#666666"
     borderopacity="1.0"
     inkscape:pageopacity="0"
     inkscape:pageshadow="2"
     inkscape:zoom="0.48"
     inkscape:cx="4822.9374"
     inkscape:cy="4144.6831"
     inkscape:document-units="px"
     inkscape:current-layer="layer1"
     showgrid="false"
     inkscape:window-width="1440"
     inkscape:window-height="856"
     inkscape:window-x="0"
     inkscape:window-y="0"
     inkscape:window-maximized="1"
     units="px"
     fit-margin-top="15"
     fit-margin-left="15"
     fit-margin-right="15"
     fit-margin-bottom="15"
     inkscape:snap-bbox="true"
     inkscape:snap-global="true">
    <inkscape:grid
       type="xygrid"
       id="grid3348"
       originx="5493.7615"
       originy="2417.2562" />
  </sodipodi:namedview>
  <metadata
     id="metadata7">
    <rdf:RDF>
      <cc:Work
         rdf:about="">
        <dc:format>image/svg+xml</dc:format>
        <dc:type
           rdf:resource="http://purl.org/dc/dcmitype/StillImage" />
        <dc:title></dc:title>
      </cc:Work>
    </rdf:RDF>
  </metadata>
  <g
     inkscape:label="Layer 1"
     inkscape:groupmode="layer"
     id="layer1"
     transform="translate(5493.7615,535.9824)">
    <flowRoot
       xml:space="preserve"
       id="flowRoot3336"
       style="font-style:normal;font-weight:normal;font-size:40px;line-height:125%;font-family:sans-serif;letter-spacing:0px;word-spacing:0px;fill:#000000;fill-opacity:1;stroke:none;stroke-width:1px;stroke-linecap:butt;stroke-linejoin:miter;stroke-opacity:1"><flowRegion
         id="flowRegion3338"><rect
           id="rect3340"
           width="100"
           height="337.14285"
           x="-1820"
           y="-293.35208" /></flowRegion><flowPara
         id="flowPara3342" /></flowRoot>    <text
       xml:space="preserve"
       style="font-style:normal;font-weight:normal;font-size:40px;line-height:125%;font-family:sans-serif;letter-spacing:0px;word-spacing:0px;fill:#000000;fill-opacity:1;stroke:none;stroke-width:1px;stroke-linecap:butt;stroke-linejoin:miter;stroke-opacity:1"
       x="-417.14285"
       y="526.64795"
       id="text3344"
       sodipodi:linespacing="125%"><tspan
         sodipodi:role="line"
         id="tspan3346"
         x="-417.14285"
         y="526.64795" /></text>
    <circle
       style="fill:#d8d8d8;fill-opacity:1;stroke:#e3e3e3;stroke-width:10;stroke-linecap:round;stroke-linejoin:round;stroke-miterlimit:4;stroke-dasharray:none;stroke-opacity:1"
       id="path6104"
       cx="-2424.9285"
       cy="1766.1185"
       r="171.7812" />
    <circle
       r="171.7812"
       cy="2782.3413"
       cx="-2096.6511"
       id="circle6106"
       style="fill:#d8d8d8;fill-opacity:1;stroke:#e3e3e3;stroke-width:10;stroke-linecap:round;stroke-linejoin:round;stroke-miterlimit:4;stroke-dasharray:none;stroke-opacity:1" />
    <circle
       style="fill:#d8d8d8;fill-opacity:1;stroke:#e3e3e3;stroke-width:10;stroke-linecap:round;stroke-linejoin:round;stroke-miterlimit:4;stroke-dasharray:none;stroke-opacity:1"
       id="circle6108"
       cx="-811.54004"
       cy="2464.3667"
       r="171.7812" />
    <circle
       r="171.7812"
       cy="1802.4399"
       cx="-333.02997"
       id="circle6110"
       style="fill:#d8d8d8;fill-opacity:1;stroke:#e3e3e3;stroke-width:10;stroke-linecap:round;stroke-linejoin:round;stroke-miterlimit:4;stroke-dasharray:none;stroke-opacity:1" />
    <text
       xml:space="preserve"
       style="font-style:normal;font-weight:normal;font-size:40px;line-height:125%;font-family:sans-serif;letter-spacing:0px;word-spacing:0px;fill:#000000;fill-opacity:1;stroke:none;stroke-width:1px;stroke-linecap:butt;stroke-linejoin:miter;stroke-opacity:1"
       x="-2099.1765"
       y="2769.7107"
       id="text6112"
       sodipodi:linespacing="125%"><tspan
         sodipodi:role="line"
         id="tspan6114"
         x="-2099.1765"
         y="2769.7107"
         style="font-style:normal;font-variant:normal;font-weight:300;font-stretch:normal;font-size:70px;line-height:125%;font-family:Roboto;-inkscape-font-specification:'Roboto, Light';text-align:center;writing-mode:lr-tb;text-anchor:middle">NOODLE</tspan><tspan
         sodipodi:role="line"
         x="-2099.1765"
         y="2857.2107"
         id="tspan6116"
         style="font-style:normal;font-variant:normal;font-weight:300;font-stretch:normal;font-size:70px;line-height:125%;font-family:Roboto;-inkscape-font-specification:'Roboto, Light';text-align:center;writing-mode:lr-tb;text-anchor:middle">NATION</tspan></text>
    <flowRoot
       xml:space="preserve"
       id="flowRoot6118"
       style="font-style:normal;font-weight:normal;font-size:40px;line-height:125%;font-family:sans-serif;letter-spacing:0px;word-spacing:0px;fill:#000000;fill-opacity:1;stroke:none;stroke-width:1px;stroke-linecap:butt;stroke-linejoin:miter;stroke-opacity:1"
       transform="translate(-4485.779,-341.95126)"><flowRegion
         id="flowRegion6120"><rect
           id="rect6122"
           width="70.733437"
           height="98.521576"
           x="2457.9871"
           y="2277.1565" /></flowRegion><flowPara
         id="flowPara6124" /></flowRoot>    <flowRoot
       xml:space="preserve"
       id="flowRoot6126"
       style="font-style:normal;font-weight:normal;font-size:40px;line-height:125%;font-family:sans-serif;letter-spacing:0px;word-spacing:0px;fill:#000000;fill-opacity:1;stroke:none;stroke-width:1px;stroke-linecap:butt;stroke-linejoin:miter;stroke-opacity:1"
       transform="translate(-4485.779,-341.95126)"><flowRegion
         id="flowRegion6128"><rect
           id="rect6130"
           width="111.15255"
           height="47.997692"
           x="2339.2559"
           y="2234.2112" /></flowRegion><flowPara
         id="flowPara6132" /></flowRoot>    <flowRoot
       xml:space="preserve"
       id="flowRoot6134"
       style="font-style:normal;font-weight:normal;font-size:40px;line-height:125%;font-family:sans-serif;letter-spacing:0px;word-spacing:0px;fill:#000000;fill-opacity:1;stroke:none;stroke-width:1px;stroke-linecap:butt;stroke-linejoin:miter;stroke-opacity:1"
       transform="translate(-4485.779,-341.95126)"><flowRegion
         id="flowRegion6136"><rect
           id="rect6138"
           width="250.09323"
           height="161.67644"
           x="2238.2083"
           y="2168.53" /></flowRegion><flowPara
         id="flowPara6140" /></flowRoot>    <circle
       r="171.7812"
       cy="1416.3397"
       cx="-1514.6602"
       id="circle6142"
       style="fill:#d8d8d8;fill-opacity:1;stroke:#e3e3e3;stroke-width:10;stroke-linecap:round;stroke-linejoin:round;stroke-miterlimit:4;stroke-dasharray:none;stroke-opacity:1" />
    <circle
       style="fill:#d8d8d8;fill-opacity:1;stroke:#e3e3e3;stroke-width:10;stroke-linecap:round;stroke-linejoin:round;stroke-miterlimit:4;stroke-dasharray:none;stroke-opacity:1"
       id="circle6144"
       cx="-1434.0953"
       cy="2697.8767"
       r="171.7812" />
    <circle
       r="171.7812"
       cy="1641.5901"
       cx="-1924.5322"
       id="circle6146"
       style="fill:#d8d8d8;fill-opacity:1;stroke:#e3e3e3;stroke-width:10;stroke-linecap:round;stroke-linejoin:round;stroke-miterlimit:4;stroke-dasharray:none;stroke-opacity:1" />
    <circle
       r="171.7812"
       cy="419.48837"
       cx="-4561.5654"
       id="circle6148"
       style="fill:#d8d8d8;fill-opacity:1;stroke:#e3e3e3;stroke-width:10;stroke-linecap:round;stroke-linejoin:round;stroke-miterlimit:4;stroke-dasharray:none;stroke-opacity:1" />
    <circle
       style="fill:#d8d8d8;fill-opacity:1;stroke:#e3e3e3;stroke-width:10;stroke-linecap:round;stroke-linejoin:round;stroke-miterlimit:4;stroke-dasharray:none;stroke-opacity:1"
       id="circle6150"
       cx="-4522.793"
       cy="2269.6694"
       r="171.7812" />
    <circle
       r="171.7812"
       cy="3093.9421"
       cx="-3253.427"
       id="circle6152"
       style="fill:#d8d8d8;fill-opacity:1;stroke:#e3e3e3;stroke-width:10;stroke-linecap:round;stroke-linejoin:round;stroke-miterlimit:4;stroke-dasharray:none;stroke-opacity:1" />
    <circle
       style="fill:#d8d8d8;fill-opacity:1;stroke:#e3e3e3;stroke-width:10;stroke-linecap:round;stroke-linejoin:round;stroke-miterlimit:4;stroke-dasharray:none;stroke-opacity:1"
       id="circle6154"
       cx="-5142.3276"
       cy="1264.9252"
       r="171.7812" />
    <circle
       r="171.7812"
       cy="704.94836"
       cx="-5043.9634"
       id="circle6156"
       style="fill:#d8d8d8;fill-opacity:1;stroke:#e3e3e3;stroke-width:10;stroke-linecap:round;stroke-linejoin:round;stroke-miterlimit:4;stroke-dasharray:none;stroke-opacity:1" />
    <ellipse
       ry="296.82037"
       rx="295.74704"
       cy="-149.0098"
       cx="-547.26038"
       id="ellipse6158"
       style="fill:#d8d8d8;fill-opacity:1;stroke:none;stroke-width:4;stroke-linecap:round;stroke-linejoin:round;stroke-miterlimit:4;stroke-dasharray:none;stroke-opacity:1" />
    <ellipse
       style="fill:#d8d8d8;fill-opacity:1;stroke:none;stroke-width:4;stroke-linecap:round;stroke-linejoin:round;stroke-miterlimit:4;stroke-dasharray:none;stroke-opacity:1"
       id="ellipse6160"
       cx="-3911.9878"
       cy="723.966"
       rx="295.74704"
       ry="296.82037" />
    <circle
       style="fill:#d8d8d8;fill-opacity:1;stroke:#e3e3e3;stroke-width:10;stroke-linecap:round;stroke-linejoin:round;stroke-miterlimit:4;stroke-dasharray:none;stroke-opacity:1"
       id="circle6162"
       cx="4.4061723"
       cy="-54.328156"
       r="171.7812" />
    <ellipse
       ry="296.82037"
       rx="295.74704"
       cy="2238.8037"
       cx="-3307.075"
       id="ellipse6164"
       style="fill:#d8d8d8;fill-opacity:1;stroke:none;stroke-width:4;stroke-linecap:round;stroke-linejoin:round;stroke-miterlimit:4;stroke-dasharray:none;stroke-opacity:1" />
    <path
       style="fill:none;fill-rule:evenodd;stroke:#cecece;stroke-width:30.79999924;stroke-linecap:butt;stroke-linejoin:miter;stroke-miterlimit:4;stroke-dasharray:none;stroke-opacity:1"
       d="m -3284.7264,27.597451 -96.0526,911.315789 c -28.284,237.89486 -112.4497,385.33036 -220,579.99996 -144.2939,209.8129 -417.9418,14.0709 -225,-135 l 175,-175 c 157.1244,-241.92078 189.8199,-422.8932 105,-684.99996 -84.3269,-144.27442 -197.4957,-186.10487 -385,-190 -160.909,6.17526 -231.2258,36.78986 -298.9422,-48.85717 C -4320.6333,158.067 -4437.094,73.456113 -4560.779,88.91324 c -308.4621,44.4951 -559.7063,146.76503 -735,430 -170.0075,292.06242 -202.4401,523.35806 -135,844.99996 66.1725,254.585 303.1913,358.1151 530,155 74.3465,-72.5957 128.6224,-182.8958 250,-160 520.9991,131.5783 254.7752,468.1858 -25,575 -404.3176,203.57 -182.5037,743.2992 245,695 160.9127,-48.2667 235.5249,-60.9654 385,20 143.6664,103.7096 359.5917,272.4918 410,435 0,0 46.8803,246.6777 200,325 229.5607,83.2031 409.7712,-15.0991 545,-155 l 50,-60 c 163.4593,-138.0772 164.1467,-182.8561 470,-210 1004.8439,147.5598 2129.27038,-195.6886 2295,-1175 18.200511,-334.0811 -374.62295,-406.9617 -350,-680 29.32928,-171.4666 143.39954,-186.61877 287.36842,-312.63154 87.767626,-84.70094 303.76328,-250.48446 312.35241,-341.46785 20.51021,-217.2615 153.09868,-608.63826 -25.2858,-724.31923 -192.157246,-124.61251 -324.27129,-188.67956 -549.06223,-252.96292 -127.01838,-18.61431 -378.30802,51.52957 -449.0117,125.18797 -175.341,182.66857 -26.02715,236.12398 -145.5716,566.71993 -62.7311,155.99385 -37.0215,296.5944 -197.6563,327.99211 -152.3056,29.76969 -132.3138,-110.77498 -114.7494,-224.55278 26.5591,-116.90998 130.3823,-157.6517 145.1585,-294.0582015 12.8402,-118.5345185 -119.6798,-214.9653285 -287.2562,-278.3523385 -60.0062,-19.38429 -222.1069,-90.09616 -357.6718,-105.29237 -159.7107,-17.90283 -319.1639,17.04311 -319.1639,17.04311 -133.5029,19.36163 -454.9056,83.50534 -522.7671,164.96925 -110.7654,132.967553 -66.9827,518.017 -82.3024,746.76604 -19.7214,294.47297 2.4258,600.31012 157.7903,742.43612 156.3844,143.0591 431.346,55.9587 727.8288,-177.4773 0,0 173.7282,-149.50171 345,-184.99996 123.6311,-28.83469 407.1589,-142.2583 415,209.99996 0,0 -59.6737,233.4421 -310,10 -95.6299,-73.2992 -250.0656,15.9267 -250.0656,15.9267 -287.2792,215.9187 -539.6563,371.6306 -954.9344,349.0733 -290.8702,-42.5778 -331.8514,-223.1112 -325,-415 l 95.7895,-1083.421013 c 17.6557,-396.609217 -431.1151,-367.201877 -454.7369,17.105264 z"
       id="path6166"
       inkscape:connector-curvature="0"
       sodipodi:nodetypes="ccccccccccccccccccccccccsscscscscsssssccccccccc" />
    <text
       xml:space="preserve"
       style="font-style:normal;font-weight:normal;font-size:40px;line-height:125%;font-family:sans-serif;letter-spacing:0px;word-spacing:0px;fill:#000000;fill-opacity:1;stroke:none;stroke-width:1px;stroke-linecap:butt;stroke-linejoin:miter;stroke-opacity:1"
       x="-1434.0781"
       y="2677.6479"
       id="text6168"
       sodipodi:linespacing="125%"><tspan
         sodipodi:role="line"
         id="tspan6170"
         x="-1434.0781"
         y="2677.6479"
         style="font-style:normal;font-variant:normal;font-weight:300;font-stretch:normal;font-size:70px;line-height:125%;font-family:Roboto;-inkscape-font-specification:'Roboto, Light';text-align:center;writing-mode:lr-tb;text-anchor:middle">MISSION</tspan><tspan
         sodipodi:role="line"
         x="-1434.0781"
         y="2765.1479"
         style="font-style:normal;font-variant:normal;font-weight:300;font-stretch:normal;font-size:70px;line-height:125%;font-family:Roboto;-inkscape-font-specification:'Roboto, Light';text-align:center;writing-mode:lr-tb;text-anchor:middle"
         id="tspan6172">BURRITO</tspan></text>
    <text
       xml:space="preserve"
       style="font-style:normal;font-variant:normal;font-weight:300;font-stretch:normal;font-size:70px;line-height:125%;font-family:Roboto;-inkscape-font-specification:'Roboto, Light';text-align:center;letter-spacing:0px;word-spacing:0px;writing-mode:lr-tb;text-anchor:middle;fill:#000000;fill-opacity:1;stroke:none;stroke-width:1px;stroke-linecap:butt;stroke-linejoin:miter;stroke-opacity:1"
       x="-812.28308"
       y="2459.571"
       id="text6174"
       sodipodi:linespacing="125%"><tspan
         sodipodi:role="line"
         id="tspan6176"
         x="-812.28308"
         y="2459.571">TASTE</tspan><tspan
         sodipodi:role="line"
         x="-812.28308"
         y="2547.071"
         id="tspan6178">TIBET</tspan></text>
    <text
       xml:space="preserve"
       style="font-style:normal;font-variant:normal;font-weight:300;font-stretch:normal;font-size:70px;line-height:125%;font-family:Roboto;-inkscape-font-specification:'Roboto, Light';text-align:center;letter-spacing:0px;word-spacing:0px;writing-mode:lr-tb;text-anchor:middle;fill:#000000;fill-opacity:1;stroke:none;stroke-width:1px;stroke-linecap:butt;stroke-linejoin:miter;stroke-opacity:1"
       x="-332.79605"
       y="1790.3402"
       id="text6180"
       sodipodi:linespacing="125%"><tspan
         sodipodi:role="line"
         x="-332.79605"
         y="1790.3402"
         id="tspan6184">CANDY</tspan><tspan
         sodipodi:role="line"
         x="-332.79605"
         y="1877.8402"
         id="tspan6188">FLOSS</tspan></text>
    <text
       xml:space="preserve"
       style="font-style:normal;font-variant:normal;font-weight:300;font-stretch:normal;font-size:70px;line-height:125%;font-family:Roboto;-inkscape-font-specification:'Roboto, Light';text-align:center;letter-spacing:0px;word-spacing:0px;writing-mode:lr-tb;text-anchor:middle;fill:#000000;fill-opacity:1;stroke:none;stroke-width:1px;stroke-linecap:butt;stroke-linejoin:miter;stroke-opacity:1"
       x="-1516.8384"
       y="1441.4135"
       id="text6190"
       sodipodi:linespacing="125%"><tspan
         sodipodi:role="line"
         id="tspan6192"
         x="-1516.8384"
         y="1441.4135">BAR</tspan></text>
    <text
       xml:space="preserve"
       style="font-style:normal;font-variant:normal;font-weight:300;font-stretch:normal;font-size:70px;line-height:125%;font-family:Roboto;-inkscape-font-specification:'Roboto, Light';text-align:center;letter-spacing:0px;word-spacing:0px;writing-mode:lr-tb;text-anchor:middle;fill:#000000;fill-opacity:1;stroke:none;stroke-width:1px;stroke-linecap:butt;stroke-linejoin:miter;stroke-opacity:1"
       x="-1921.9667"
       y="1669.6188"
       id="text6194"
       sodipodi:linespacing="125%"><tspan
         sodipodi:role="line"
         id="tspan6196"
         x="-1921.9667"
         y="1669.6188">SEATING</tspan></text>
    <text
       xml:space="preserve"
       style="font-style:normal;font-variant:normal;font-weight:300;font-stretch:normal;font-size:70px;line-height:125%;font-family:Roboto;-inkscape-font-specification:'Roboto, Light';text-align:center;letter-spacing:0px;word-spacing:0px;writing-mode:lr-tb;text-anchor:middle;fill:#000000;fill-opacity:1;stroke:none;stroke-width:1px;stroke-linecap:butt;stroke-linejoin:miter;stroke-opacity:1"
       x="-2427.095"
       y="1797.8237"
       id="text6198"
       sodipodi:linespacing="125%"><tspan
         sodipodi:role="line"
         id="tspan6200"
         x="-2427.095"
         y="1797.8237">SHISHA</tspan></text>
    <text
       xml:space="preserve"
       style="font-style:normal;font-variant:normal;font-weight:300;font-stretch:normal;font-size:70px;line-height:125%;font-family:Roboto;-inkscape-font-specification:'Roboto, Light';text-align:center;letter-spacing:0px;word-spacing:0px;writing-mode:lr-tb;text-anchor:middle;fill:#000000;fill-opacity:1;stroke:none;stroke-width:1px;stroke-linecap:butt;stroke-linejoin:miter;stroke-opacity:1"
       x="-3311.7102"
       y="2249.1057"
       id="text6202"
       sodipodi:linespacing="125%"><tspan
         sodipodi:role="line"
         id="tspan6204"
         x="-3311.7102"
         y="2249.1057">PERFORMANCE</tspan><tspan
         sodipodi:role="line"
         x="-3311.7102"
         y="2336.6057"
         id="tspan6206">RING</tspan></text>
    <text
       xml:space="preserve"
       style="font-style:normal;font-variant:normal;font-weight:300;font-stretch:normal;font-size:70px;line-height:125%;font-family:Roboto;-inkscape-font-specification:'Roboto, Light';text-align:center;letter-spacing:0px;word-spacing:0px;writing-mode:lr-tb;text-anchor:middle;fill:#000000;fill-opacity:1;stroke:none;stroke-width:1px;stroke-linecap:butt;stroke-linejoin:miter;stroke-opacity:1"
       x="-3255.3"
       y="3082.4392"
       id="text6208"
       sodipodi:linespacing="125%"><tspan
         sodipodi:role="line"
         id="tspan6210"
         x="-3255.3"
         y="3082.4392">SWING</tspan><tspan
         sodipodi:role="line"
         x="-3255.3"
         y="3169.9392"
         id="tspan6212">BOATS</tspan></text>
    <text
       xml:space="preserve"
       style="font-style:normal;font-variant:normal;font-weight:300;font-stretch:normal;font-size:70px;line-height:125%;font-family:Roboto;-inkscape-font-specification:'Roboto, Light';text-align:center;letter-spacing:0px;word-spacing:0px;writing-mode:lr-tb;text-anchor:middle;fill:#000000;fill-opacity:1;stroke:none;stroke-width:1px;stroke-linecap:butt;stroke-linejoin:miter;stroke-opacity:1"
       x="-4521.9673"
       y="2300.3879"
       id="text6214"
       sodipodi:linespacing="125%"><tspan
         sodipodi:role="line"
         id="tspan6216"
         x="-4521.9673"
         y="2300.3879">TOILETS</tspan></text>
    <text
       xml:space="preserve"
       style="font-style:normal;font-variant:normal;font-weight:300;font-stretch:normal;font-size:125px;line-height:125%;font-family:Roboto;-inkscape-font-specification:'Roboto, Light';text-align:center;letter-spacing:0px;word-spacing:0px;writing-mode:lr-tb;text-anchor:middle;fill:#000000;fill-opacity:1;stroke:none;stroke-width:1px;stroke-linecap:butt;stroke-linejoin:miter;stroke-opacity:1"
       x="-3921.9666"
       y="677.31097"
       id="text6218"
       sodipodi:linespacing="125%"><tspan
         sodipodi:role="line"
         id="tspan6220"
         x="-3921.9666"
         y="677.31097">NB</tspan><tspan
         sodipodi:role="line"
         x="-3921.9666"
         y="833.56097"
         id="tspan6222">STAGE</tspan></text>
    <text
       xml:space="preserve"
       style="font-style:normal;font-variant:normal;font-weight:300;font-stretch:normal;font-size:70px;line-height:125%;font-family:Roboto;-inkscape-font-specification:'Roboto, Light';text-align:center;letter-spacing:0px;word-spacing:0px;writing-mode:lr-tb;text-anchor:middle;fill:#000000;fill-opacity:1;stroke:none;stroke-width:1px;stroke-linecap:butt;stroke-linejoin:miter;stroke-opacity:1"
       x="-4562.9922"
       y="436.28531"
       id="text6224"
       sodipodi:linespacing="125%"><tspan
         sodipodi:role="line"
         id="tspan6226"
         x="-4562.9922"
         y="436.28531">SMOKING</tspan><tspan
         sodipodi:role="line"
         x="-4562.9922"
         y="523.78528"
         id="tspan6228">AREA</tspan></text>
    <text
       xml:space="preserve"
       style="font-style:normal;font-variant:normal;font-weight:300;font-stretch:normal;font-size:70px;line-height:125%;font-family:Roboto;-inkscape-font-specification:'Roboto, Light';text-align:center;letter-spacing:0px;word-spacing:0px;writing-mode:lr-tb;text-anchor:middle;fill:#000000;fill-opacity:1;stroke:none;stroke-width:1px;stroke-linecap:butt;stroke-linejoin:miter;stroke-opacity:1"
       x="-5042.4795"
       y="715.77252"
       id="text6230"
       sodipodi:linespacing="125%"><tspan
         sodipodi:role="line"
         id="tspan6232"
         x="-5042.4795"
         y="715.77252">SHOOTING</tspan><tspan
         sodipodi:role="line"
         x="-5042.4795"
         y="803.27252"
         id="tspan6234">RANGE</tspan></text>
    <text
       xml:space="preserve"
       style="font-style:normal;font-variant:normal;font-weight:300;font-stretch:normal;font-size:70px;line-height:125%;font-family:Roboto;-inkscape-font-specification:'Roboto, Light';text-align:center;letter-spacing:0px;word-spacing:0px;writing-mode:lr-tb;text-anchor:middle;fill:#000000;fill-opacity:1;stroke:none;stroke-width:1px;stroke-linecap:butt;stroke-linejoin:miter;stroke-opacity:1"
       x="-5150.1719"
       y="1267.0546"
       id="text6236"
       sodipodi:linespacing="125%"><tspan
         sodipodi:role="line"
         id="tspan6238"
         x="-5150.1719"
         y="1267.0546">COCONUT</tspan><tspan
         sodipodi:role="line"
         x="-5150.1719"
         y="1354.5546"
         id="tspan6240">SHY</tspan></text>
    <text
       xml:space="preserve"
       style="font-style:normal;font-variant:normal;font-weight:300;font-stretch:normal;font-size:125px;line-height:125%;font-family:Roboto;-inkscape-font-specification:'Roboto, Light';text-align:center;letter-spacing:0px;word-spacing:0px;writing-mode:lr-tb;text-anchor:middle;fill:#000000;fill-opacity:1;stroke:none;stroke-width:1px;stroke-linecap:butt;stroke-linejoin:miter;stroke-opacity:1"
       x="-552.95532"
       y="-173.24574"
       id="text6250"
       sodipodi:linespacing="125%"><tspan
         sodipodi:role="line"
         id="tspan6252"
         x="-552.95532"
         y="-173.24574">MAIN</tspan><tspan
         sodipodi:role="line"
         x="-552.95532"
         y="-16.995743"
         id="tspan6254">STAGE</tspan></text>
    <text
       xml:space="preserve"
       style="font-style:normal;font-variant:normal;font-weight:300;font-stretch:normal;font-size:70px;line-height:125%;font-family:Roboto;-inkscape-font-specification:'Roboto, Light';text-align:center;letter-spacing:0px;word-spacing:0px;writing-mode:lr-tb;text-anchor:middle;fill:#000000;fill-opacity:1;stroke:none;stroke-width:1px;stroke-linecap:butt;stroke-linejoin:miter;stroke-opacity:1"
       x="-0.50053912"
       y="-7.5912476"
       id="text6256"
       sodipodi:linespacing="125%"><tspan
         sodipodi:role="line"
         id="tspan6258"
         x="-0.50053912"
         y="-7.5912476">BAR</tspan></text>
    <text
       xml:space="preserve"
       style="font-style:normal;font-variant:normal;font-weight:300;font-stretch:normal;font-size:70px;line-height:125%;font-family:Roboto;-inkscape-font-specification:'Roboto, Light';text-align:center;letter-spacing:0px;word-spacing:0px;writing-mode:lr-tb;text-anchor:middle;fill:#000000;fill-opacity:1;stroke:none;stroke-width:1px;stroke-linecap:butt;stroke-linejoin:miter;stroke-opacity:1"
       x="-1357.864"
       y="605.51605"
       id="text6272"
       sodipodi:linespacing="125%"><tspan
         sodipodi:role="line"
         id="tspan6274"
         x="-1357.864"
         y="605.51605" /></text>
    <path
       style="fill:#d5d5d5;fill-opacity:1;stroke:#cecece;stroke-width:10;stroke-linecap:round;stroke-linejoin:round;stroke-miterlimit:4;stroke-dasharray:none;stroke-opacity:1"
       d="m -1078.3769,1126.0289 658.9744,17.9487"
       id="path6282"
       inkscape:connector-curvature="0" />
    <path
       style="fill:#d5d5d5;fill-opacity:1;stroke:#cecece;stroke-width:10;stroke-linecap:round;stroke-linejoin:round;stroke-miterlimit:4;stroke-dasharray:none;stroke-opacity:1"
       d="m -4355.3,1569.6186 456.4103,-61.5384"
       id="path6288"
       inkscape:connector-curvature="0" />
    <path
       style="fill:#d5d5d5;fill-opacity:1;stroke:#cecece;stroke-width:10;stroke-linecap:round;stroke-linejoin:round;stroke-miterlimit:4;stroke-dasharray:none;stroke-opacity:1"
       d="m -3391.1974,1085.0033 466.6667,-2.5641"
       id="path6290"
       inkscape:connector-curvature="0" />
    <path
       style="fill:#265941;fill-opacity:0;stroke:none;stroke-width:1px;stroke-linecap:butt;stroke-linejoin:miter;stroke-opacity:1"
       d="m 1719.5807,3230.1673 c -87.698,-88.2388 -232.4178,-203.5571 -292.2277,-232.8583 -113.0303,-55.3741 -189.1647,-59.4607 -330.8149,-17.7568 -33.6013,9.8927 -38.4169,10.6433 -75.2862,11.7351 -43.78137,1.2965 -76.32884,-1.8732 -112.00894,-10.9085 -142.28207,-36.0298 -252.68241,-149.394 -280.47347,-288.0031 -14.32985,-71.4707 -6.53329,-136.308 23.95354,-199.201 37.78565,-77.9502 103.40689,-137.6388 193.16271,-175.6993 75.29522,-31.9287 143.97386,-77.1436 200.31566,-131.8789 73.6652,-71.5646 108.5906,-137.8388 109.1065,-207.0392 l 0.2046,-27.4379 8.9744,-1.4535 c 4.9359,-0.7994 98.9743,-13.5134 208.9743,-28.2534 110,-14.74 202.9027,-27.3291 206.4505,-27.9757 5.9125,-1.0776 6.8082,0.039 10.7422,13.387 11.9007,40.3808 49.8252,75.3514 97.4432,89.8536 71.1902,21.6811 150.6527,-6.0543 203.0124,-70.8589 23.2832,-28.8171 109.9733,-190.8196 147.2474,-275.1688 23.081,-52.2312 55.6089,-144.5782 60.9455,-173.0247 l 1.4966,-7.9778 123.2909,-1.6978 c 67.81,-0.9338 169.1099,-1.6978 225.1109,-1.6978 l 101.8199,0 1.3112,59.6154 c 1.8041,82.027 11.331,131.9859 35.3978,185.6262 42.0026,93.616 132.0929,156.2202 265.9384,184.8019 31.8215,6.7953 34.6997,6.9634 118.511,6.9232 63.6763,-0.031 96.1789,-1.1773 125.641,-4.4327 249.8136,-27.6027 442.8557,-113.153 720.5129,-319.3091 42.3507,-31.4448 64.6284,-43.356 105.1282,-56.2093 35.6284,-11.3072 56.4448,-14.2834 89.9789,-12.8645 36.5059,1.5446 55.4739,8.5123 81.0836,29.7856 43.848,36.423 68.3485,53.4062 99.4705,68.9505 75.728,37.8231 137.2075,32.6154 184.6911,-15.6447 13.8674,-14.0941 21.3643,-24.5805 30.2197,-42.2698 6.4772,-12.9391 12.5418,-27.6027 13.4767,-32.586 l 1.6997,-9.0604 70.8436,1.5682 c 38.9641,0.8625 73.44,2.0976 76.6131,2.7446 l 5.7692,1.1765 0,590.3358 0,590.3358 -21.6323,22.2632 c -37.299,38.3867 -51.5231,76.158 -49.552,131.5829 1.7638,49.6018 15.3379,80.701 51.3238,117.5862 l 19.8718,20.3684 0,96.9284 0,96.9283 -12.1795,5.4531 c -33.4056,14.9563 -106.8272,43.0249 -157.4577,60.1949 l -56.6497,19.2074 -404.8108,0 c -222.6461,0 -404.811,-0.6873 -404.811,-1.5273 0,-0.84 2.3692,-4.8544 5.2649,-8.921 18.7051,-26.2691 29.4571,-68.047 27.2753,-105.9826 -3.1777,-55.2551 -28.8,-102.6352 -72.283,-133.6641 -90.6364,-64.6767 -214.2005,-34.5065 -262.9254,64.1976 -13.9485,28.2557 -18.7144,48.6003 -18.6205,79.4871 0.1102,36.1373 7.2561,62.4377 24.95,91.8212 l 8.7851,14.5891 -749.2063,0 -749.2062,0 -35.8631,-36.0843 z m 2389.7779,15.4496 c 31.2872,-9.6088 51.8118,-22.0609 75.7536,-45.9592 35.2544,-35.1902 51.4026,-74.2805 51.4026,-124.4318 0,-30.0909 -5.3121,-53.1474 -18.5559,-80.5389 -8.3459,-17.2613 -14.8493,-26.0173 -32.5903,-43.8784 -18.7,-18.8267 -25.9705,-24.1609 -46.5228,-34.1327 -53.5151,-25.965 -104.8985,-25.9903 -158.6103,-0.078 -19.3015,9.3117 -27.8736,15.4251 -43.8259,31.2558 -34.761,34.4959 -51.2707,71.2201 -53.3925,118.766 -1.5611,34.9825 3.4818,58.5281 19.3046,90.1355 23.99,47.9224 73.1979,84.3065 127.1982,94.0499 20.2487,3.6534 59.3156,1.1148 79.8387,-5.1882 l 0,-1e-4 z M 2215.7689,2912.3198 c 83.6039,-8.7891 158.1199,-50.9744 208.1929,-117.8631 24.6891,-32.9803 39.9481,-65.0835 51.1872,-107.6923 6.6345,-25.1524 9.1775,-85.974 4.8361,-115.6654 -16.0153,-109.5288 -95.9977,-204.0464 -201.3957,-237.9953 -35.0033,-11.2745 -52.9433,-13.9259 -93.5898,-13.8313 -41.733,0.097 -68.8137,4.9156 -103.9984,18.5047 -148.4304,57.3269 -225.9267,221.9258 -175.4383,372.6235 40.1032,119.7 147.0014,198.4988 276.8726,204.0935 4.9359,0.2125 19.9359,-0.7658 33.3334,-2.1743 z m -1199.8546,-93.5133 c 61.0811,-15.7222 110.311,-64.8112 127.278,-126.9139 7.2403,-26.5009 6.0249,-72.3755 -2.6153,-98.7179 -9.2816,-28.2977 -22.8686,-50.3281 -44.1872,-71.6467 -21.2781,-21.2781 -43.2805,-34.8635 -71.6466,-44.2382 -17.9374,-5.9282 -24.6979,-6.78 -53.84614,-6.7851 -28.94835,-0.01 -35.95692,0.8626 -53.27705,6.5954 -118.95069,39.3716 -162.70598,180.6844 -86.50805,279.3877 26.59713,34.4527 66.22103,58.0542 110.90703,66.0605 18.18582,3.2584 53.68282,1.4609 73.89531,-3.7418 z m 2094.7264,-502.6992 c 9.1666,-2.153 26.3707,-8.6045 38.2312,-14.3367 17.3126,-8.3672 25.9499,-14.7922 43.8059,-32.586 24.7016,-24.6155 34.79,-40.5015 44.9336,-70.7554 21.6057,-64.4416 3.0936,-136.6738 -47.182,-184.1014 -32.8459,-30.9851 -66.2747,-45.1072 -112.105,-47.3593 -36.1275,-1.7753 -59.3317,3.0553 -91.122,18.9696 -39.4896,19.7685 -71.1548,55.9152 -85.7512,97.8869 -19.0143,54.6756 -10.9394,114.5384 21.7132,160.9695 25.5982,36.3999 58.958,59.3047 104.1429,71.5043 17.544,4.7368 62.7938,4.6328 83.3334,-0.1915 l 0,0 z m 511.5384,-127.8244 c 28.5644,-9.0729 50.5487,-22.6329 73.1321,-45.1082 68.5666,-68.2389 68.5666,-180.4792 0,-248.718 -56.338,-56.0683 -133.6518,-68.9574 -205.1834,-34.2062 -20.5407,9.979 -27.7828,15.2955 -46.2012,33.9175 -36.0162,36.4143 -51.6226,74.097 -51.6226,124.6477 0,50.5506 15.6064,88.2334 51.6226,124.6477 18.4187,18.622 25.6605,23.9385 46.2012,33.9175 13.3975,6.5087 32.4359,13.5763 42.3077,15.7058 25.7872,5.5628 63.4539,3.5465 89.7436,-4.8038 z m 393.0569,-220.9037 c 102.3918,-20.7263 164.9623,-128.1043 132.888,-228.0507 -26.0328,-81.1204 -107.8564,-133.5851 -190.3426,-122.0459 -43.5097,6.0868 -72.7082,20.5981 -103.5972,51.4871 -42.5748,42.5748 -59.8956,95.3713 -50.2348,153.1235 16.8587,100.7821 111.2033,165.745 211.2866,145.486 z"
       id="path6292"
       inkscape:connector-curvature="0"
       transform="translate(-5493.7615,-377.23465)" />
    <path
       style="fill:#265941;fill-opacity:0;stroke:none;stroke-width:1px;stroke-linecap:butt;stroke-linejoin:miter;stroke-opacity:1"
       d="m 1872.2081,3452.79 c -28.6185,-95.0229 -128.514,-214.4436 -287.3574,-343.5232 -68.5726,-55.7235 -125.9137,-96.4846 -157.4977,-111.9578 -113.1084,-55.4124 -190.9709,-59.5419 -330.8149,-17.5451 l -35.8974,10.7804 -53.8462,-0.1451 c -57.69334,-0.1554 -73.94573,-2.3089 -117.30769,-15.5439 l -22.4359,-6.8479 0,-87.9479 0,-87.9479 14.74359,8.6943 c 39.15512,23.0898 88.93951,29.6229 135.1455,17.7348 60.0004,-15.4371 109.4099,-65.0016 126.2523,-126.6481 7.2403,-26.5009 6.0249,-72.3755 -2.6153,-98.7179 -9.2816,-28.2977 -22.8686,-50.3281 -44.1872,-71.6467 -21.2781,-21.2781 -43.2805,-34.8635 -71.6466,-44.2382 -17.9432,-5.9301 -24.6884,-6.7793 -53.84614,-6.7793 -29.20211,0 -35.87562,0.8429 -53.84615,6.8015 -11.28205,3.7409 -27.14744,10.8247 -35.25641,15.7419 l -14.74359,8.9404 0.0315,-96.7175 0.0315,-96.7175 27.19515,-13.9885 c 93.63693,-48.1643 180.57674,-124.5825 224.84894,-197.6373 24.1971,-39.9281 35.8494,-78.0849 36.1498,-118.3762 l 0.2046,-27.4379 8.9744,-1.4535 c 4.9359,-0.7994 98.9743,-13.5134 208.9743,-28.2534 110,-14.74 202.9027,-27.3291 206.4505,-27.9757 5.9125,-1.0776 6.8082,0.039 10.7422,13.387 11.9007,40.3808 49.8252,75.3514 97.4432,89.8536 71.1902,21.6811 150.6527,-6.0543 203.0124,-70.8589 23.2832,-28.8171 109.9733,-190.8196 147.2474,-275.1688 23.081,-52.2312 55.6089,-144.5782 60.9455,-173.0247 l 1.4966,-7.9778 123.2909,-1.6978 c 67.81,-0.9338 169.1099,-1.6978 225.1109,-1.6978 l 101.8199,0 1.3112,59.6154 c 1.8041,82.027 11.331,131.9859 35.3978,185.6262 42.0026,93.616 132.0929,156.2202 265.9384,184.8019 31.8215,6.7953 34.6997,6.9634 118.511,6.9232 63.6763,-0.031 96.1789,-1.1773 125.641,-4.4327 249.8136,-27.6027 442.8557,-113.153 720.5129,-319.3091 42.3507,-31.4448 64.6284,-43.356 105.1282,-56.2093 35.6284,-11.3072 56.4448,-14.2834 89.9789,-12.8645 36.5059,1.5446 55.4739,8.5123 81.0836,29.7856 43.848,36.423 68.3485,53.4062 99.4705,68.9505 75.728,37.8231 137.2075,32.6154 184.6911,-15.6447 13.8674,-14.0941 21.3643,-24.5805 30.2197,-42.2698 6.4772,-12.9391 12.5305,-27.5435 13.4518,-32.4543 1.4095,-7.5125 2.7482,-8.9303 8.441,-8.9393 3.7213,-0.01 90.9967,2.3424 193.9454,5.2183 102.9487,2.8758 240.0128,6.6351 304.5869,8.354 92.069,2.4508 117.8608,3.8585 119.5072,6.5226 1.1549,1.8685 2.7616,13.9793 3.5705,26.9129 1.808,28.906 11.0918,61.8797 26.1134,92.7464 23.2561,47.7873 52.8351,85.2463 129.5992,164.1248 60.2018,61.8599 89.8031,94.1948 107.9569,117.9265 55.1669,72.1169 80.3151,135.4644 85.5046,215.3846 1.9926,30.6839 -2.9141,62.7558 -20.3987,133.3334 -132.2297,533.7563 -580.7905,905.3662 -1259.3679,1043.3227 -168.8116,34.3198 -318.6744,49.6133 -510.0895,52.0547 -168.2069,2.1453 -269.3311,-3.468 -433.1364,-24.0432 -51.0208,-6.4085 -55.7298,-6.597 -89.7436,-3.5922 -75.2108,6.6441 -155.0489,20.9958 -201.8154,36.2784 -45.1634,14.7587 -85.2396,37.2977 -125.6594,70.6713 l -19.7824,16.3339 -161.6278,0 -161.6278,0 0,-7.8004 c 0,-17.9226 -8.356,-48.3987 -19.6552,-71.6868 -22.2835,-45.9274 -67.708,-82.1647 -117.5243,-93.755 -13.2026,-3.0717 -26.085,-3.8866 -48.718,-3.0817 -50.0531,1.78 -81.6517,15.697 -117.9865,51.9649 -29.8017,29.7468 -46.7919,65.233 -51.2748,107.0943 l -1.8489,17.2647 -91.7593,0 -91.7592,0 -5.5987,-18.5898 z m 1569.5531,-121.1794 c 64.3754,-16.423 114.5602,-69.103 129.2118,-135.6361 5.4812,-24.8906 3.9484,-64.2094 -3.4162,-87.6286 -38.3797,-122.0464 -186.5768,-166.4419 -284.2379,-85.1492 -27.5236,22.9105 -49.7702,58.4877 -58.9895,94.3369 -5.6441,21.9474 -5.6441,62.668 0,84.6154 15.1502,58.9119 61.4229,108.1213 119.3554,126.9303 29.724,9.6505 66.4544,10.5985 98.0764,2.5313 z m 667.5974,-85.9937 c 31.2872,-9.6088 51.8118,-22.0609 75.7536,-45.9592 35.2544,-35.1902 51.4026,-74.2805 51.4026,-124.4318 0,-30.0909 -5.3121,-53.1474 -18.5559,-80.5389 -8.3459,-17.2613 -14.8493,-26.0173 -32.5903,-43.8784 -18.7,-18.8267 -25.9705,-24.1609 -46.5228,-34.1327 -53.5151,-25.965 -104.8985,-25.9903 -158.6103,-0.078 -19.3015,9.3117 -27.8736,15.4251 -43.8259,31.2558 -34.761,34.4959 -51.2707,71.2201 -53.3925,118.766 -1.5611,34.9825 3.4818,58.5281 19.3046,90.1355 23.99,47.9224 73.1979,84.3065 127.1982,94.0499 20.2487,3.6534 59.3156,1.1148 79.8387,-5.1882 l 0,-1e-4 z m 603.8462,-229.1873 c 39.3971,-7.1481 74.8141,-26.7328 101.3287,-56.0325 17.71,-19.5701 35.1979,-53.6876 41.0866,-80.1562 6.3231,-28.4213 4.2562,-67.4183 -5.0225,-94.7585 -32.5154,-95.8081 -139.8075,-146.4998 -232.1987,-109.7059 -54.4488,21.6837 -96.1929,69.5085 -109.1857,125.0905 -3.0956,13.2423 -3.909,26.0168 -3.1015,48.7179 1.7556,49.3686 15.4454,80.9173 50.6828,116.8014 41.8167,42.584 98.1623,60.6117 156.4103,50.0433 z M 2215.7689,2912.3198 c 83.6039,-8.7891 158.1199,-50.9744 208.1929,-117.8631 24.6891,-32.9803 39.9481,-65.0835 51.1872,-107.6923 6.6345,-25.1524 9.1775,-85.974 4.8361,-115.6654 -16.0153,-109.5288 -95.9977,-204.0464 -201.3957,-237.9953 -35.0033,-11.2745 -52.9433,-13.9259 -93.5898,-13.8313 -41.733,0.097 -68.8137,4.9156 -103.9984,18.5047 -148.4304,57.3269 -225.9267,221.9258 -175.4383,372.6235 40.1032,119.7 147.0014,198.4988 276.8726,204.0935 4.9359,0.2125 19.9359,-0.7658 33.3334,-2.1743 z m 2989.3097,-560.3905 c 51.4064,-13.0046 98.9897,-54.5163 120.2526,-104.9085 9.3436,-22.144 14.3951,-53.5421 12.6254,-78.4748 -3.2,-45.0797 -20.6798,-82.8672 -53.4647,-115.5782 -52.7056,-52.5867 -134.383,-66.0211 -200.7743,-33.0236 -46.2798,23.0017 -76.971,58.2455 -92.7987,106.5638 -5.6972,17.3927 -6.7352,25.193 -6.8236,51.282 -0.1821,53.7731 14.54,89.712 52.013,126.9705 46.2885,46.0231 106.7647,62.9053 168.9703,47.1688 z m -2094.4379,-35.822 c 9.1666,-2.153 26.3707,-8.6045 38.2312,-14.3367 17.3126,-8.3672 25.9499,-14.7922 43.8059,-32.586 24.7016,-24.6155 34.7901,-40.5015 44.9335,-70.7554 21.6057,-64.4416 3.0938,-136.6738 -47.182,-184.1014 -32.8458,-30.9851 -66.2746,-45.1072 -112.1049,-47.3593 -36.1275,-1.7753 -59.3317,3.0553 -91.122,18.9696 -39.4896,19.7685 -71.1548,55.9152 -85.7512,97.8869 -19.0143,54.6756 -10.9394,114.5384 21.7132,160.9695 25.5982,36.3999 58.958,59.3047 104.1429,71.5043 17.544,4.7368 62.7938,4.6328 83.3334,-0.1915 l 0,0 z m 511.5384,-127.8244 c 28.5644,-9.0729 50.5487,-22.6329 73.1321,-45.1082 68.5666,-68.2389 68.5666,-180.4792 0,-248.718 -56.338,-56.0683 -133.6518,-68.9574 -205.1834,-34.2062 -20.5407,9.979 -27.7828,15.2955 -46.2012,33.9175 -36.0163,36.4143 -51.6225,74.097 -51.6225,124.6477 0,50.5506 15.6062,88.2334 51.6225,124.6477 18.4187,18.622 25.6605,23.9385 46.2012,33.9175 13.3975,6.5087 32.4359,13.5763 42.3077,15.7058 25.7872,5.5628 63.4539,3.5465 89.7436,-4.8038 z m 393.0569,-220.9037 c 102.3918,-20.7263 164.9623,-128.1043 132.888,-228.0507 -26.0328,-81.1204 -107.8564,-133.5851 -190.3426,-122.0459 -43.5097,6.0868 -72.7082,20.5981 -103.5972,51.4871 -42.5748,42.5748 -59.8956,95.3713 -50.2348,153.1235 16.8587,100.7821 111.2033,165.745 211.2866,145.486 z"
       id="path6294"
       inkscape:connector-curvature="0"
       transform="translate(-5493.7615,-377.23465)" />
    <path
       style="fill:#265941;fill-opacity:1;stroke:none;stroke-width:10;stroke-linecap:round;stroke-linejoin:round;stroke-miterlimit:4;stroke-dasharray:none;stroke-opacity:1"
       d="m 2158.279,3794.5128 c -86.3797,-16.6711 -131.6108,-41.0917 -173.1089,-93.4624 -46.1141,-58.196 -76.7878,-122.674 -102.936,-216.3778 -17.8424,-63.9394 -39.5148,-106.7893 -83.9121,-165.9084 -75.867,-101.0239 -288.4445,-283.7077 -380.8335,-327.2787 -100.8086,-47.5418 -174.9321,-51.7583 -306.5525,-17.4384 -79.1656,20.6423 -104.0601,22.1653 -171.12965,10.4694 -240.82346,-41.9961 -384.16456,-291.839 -283.87938,-494.8005 36.85239,-74.5835 97.83418,-127.9875 202.35201,-177.207 85.649,-40.3339 131.67027,-72.0595 192.61512,-132.7828 73.4249,-73.1579 107.3849,-138.5213 107.3849,-206.6857 0,-12.4181 2.055,-22.5784 4.5667,-22.5784 2.5118,0 93.1039,-11.9102 201.3158,-26.4671 108.212,-14.5569 202.4693,-26.9911 209.4607,-27.6316 10.3885,-0.9516 13.5737,2.0835 17.4284,16.6072 7.1849,27.0707 53.8546,70.7937 87.4894,81.9655 66.8764,22.2127 145.5673,1.4657 198.16,-52.2452 48.7262,-49.7623 161.1546,-270.8713 203.7103,-400.6301 l 22.6055,-68.9276 110.0592,-3.4408 c 60.5325,-1.8924 161.253,-3.4408 223.8232,-3.4408 l 113.7642,0 -2.0454,21.4482 c -2.7443,28.7764 7.8893,127.4036 17.8901,165.9315 32.0811,123.5927 115.5928,199.8107 260.1325,237.4132 44.1411,11.4835 61.2625,13.0388 144.7973,13.1536 198.3959,0.2724 355.9549,-36.5666 530.2103,-123.9693 100.5434,-50.4303 161.6135,-88.1744 283.4722,-175.1986 102.6551,-73.31 145.9061,-92.2815 212.6333,-93.2685 48.5766,-0.7186 67.3484,6.5748 113.8079,44.2176 85.7814,69.5026 165.3686,93.6043 224.7462,68.0608 33.1464,-14.2592 64.0255,-47.389 79.9153,-85.7401 l 11.3158,-27.3116 308.7916,8.7746 c 169.8354,4.826 309.1614,8.9707 309.6135,9.2105 0.4521,0.2398 2.511,12.8702 4.5753,28.0676 11.713,86.226 43.0365,137.1137 161.0767,261.6829 101.0626,106.6524 123.909,135.5129 152.1998,192.2644 38.6759,77.5841 44.7698,140.7013 23.0598,238.84 -81.3892,367.9155 -314.5327,665.301 -678.5756,865.5551 -159.1677,87.5556 -375.0279,164.2144 -578.9474,205.6027 -278.9673,56.6202 -614.7769,70.2792 -886.8421,36.0721 -39.0789,-4.9134 -97.1053,-8.8436 -128.9474,-8.7336 -109.6073,0.3784 -235.985,29.358 -301.4188,69.1183 -42.6271,25.902 -157.7445,126.0401 -196.3086,170.7645 -83.2722,96.5744 -176.8162,162.2728 -275.9568,193.8118 -28.0027,8.9084 -52.6267,12.1178 -102.6316,13.3767 -36.1842,0.911 -71.7105,0.5137 -78.9473,-0.8832 z m 131.4311,-152.3891 c 35.2539,-10.4693 61.4011,-26.8452 84.0488,-52.6395 63.6997,-72.5499 58.805,-181.8458 -11.071,-247.2065 -39.2907,-36.7519 -66.0964,-47.0203 -122.83,-47.0522 -41.2586,-0.021 -51.2398,1.8746 -77.3821,14.7122 -61.1853,30.0461 -98.9337,91.6961 -98.9337,161.577 0,120.2844 111.7546,204.5861 226.168,170.609 z m 1168.4122,-314.7021 c 92.4663,-31.8573 140.138,-138.2219 104.5639,-233.3022 -15.7116,-41.993 -59.0647,-85.0872 -101.8144,-101.2063 -43.1706,-16.2778 -103.5593,-13.6492 -142.3067,6.1942 -148.0376,75.8137 -126.3213,288.6148 34.0789,333.9439 27.574,7.7924 73.66,5.3327 105.4783,-5.6296 z m 645.1035,-79.7642 c 78.71,-20.2438 128.4559,-81.3021 132.7879,-162.9848 3.0782,-58.0395 -10.6516,-94.2853 -50.9979,-134.6315 -40.3935,-40.3935 -76.6166,-54.0981 -134.6316,-50.9362 -50.5168,2.7532 -84.4071,17.0983 -116.7426,49.4147 -111.3005,111.2351 -34.5432,299.7533 124.8474,306.629 7.3523,0.3174 27.4839,-3.0539 44.7368,-7.4912 z m 657.6848,-245.7144 c 90.1683,-46.3999 124.17,-151.6256 78.8962,-244.1619 -32.7169,-66.871 -113.9525,-106.2795 -188.748,-91.5644 -41.1755,8.1008 -67.3156,21.662 -94.8725,49.219 -37.3073,37.3073 -47.917,65.4957 -47.8507,127.1317 0.053,46.7818 1.6098,55.5564 14.0306,78.9473 19.342,36.4248 54.6904,69.0793 91.6077,84.626 42.729,17.9942 107.4017,16.1466 146.9367,-4.1977 z m -2503.1743,-96.4148 c 97.3304,-22.9428 182.0037,-102.4448 212.5666,-199.5843 15.3257,-48.7108 16.159,-133.4393 1.7361,-176.5344 -15.7023,-46.9182 -44.4535,-93.9338 -77.0987,-126.076 -114.8754,-113.1057 -301.9043,-113.2136 -415.8116,-0.24 -110.3135,109.4093 -119.395,279.9665 -21.5017,403.8109 34.8578,44.0984 104.3145,87.3235 162.2061,100.946 31.8204,7.4877 101.2459,6.3185 137.9032,-2.3223 l 0,1e-4 z m -1222.2894,-92.679 c 36.7385,-13.7457 76.4647,-49.4431 95.6691,-85.9671 12.3097,-23.411 13.8982,-32.4141 13.9485,-79.0516 0.068,-62.9861 -10.7784,-90.6314 -50.9492,-129.8622 -33.996,-33.2006 -73.1654,-48.1802 -126.19503,-48.2611 -34.88994,-0.053 -45.02282,2.2345 -74.77908,16.8835 -145.98285,71.8671 -127.85576,284.9626 28.29569,332.6339 27.30883,8.3371 83.01282,5.2221 114.01002,-6.3754 z m 4180.7268,-463.4603 c 48.6783,-14.2532 96.714,-61.4348 113.901,-111.876 11.901,-34.9274 7.8305,-102.8513 -8.1298,-135.6625 -15.9541,-32.7985 -46.2227,-63.3767 -80.5904,-81.4145 -24.9789,-13.1103 -33.1742,-14.6031 -80.4439,-14.654 -44.976,-0.047 -56.3131,1.7714 -77.9413,12.5106 -70.0305,34.7731 -110.3731,112.7064 -98.0183,189.351 17.5699,108.9979 122.7838,173.4967 231.2227,141.7454 z m -2072.451,-44.7749 c 35.4628,-15.757 73.2377,-53.5652 89.7716,-89.8507 8.8655,-19.4561 11.3326,-35.0755 11.4033,-72.1959 0.084,-43.9902 -1.1915,-49.741 -17.8807,-80.6365 -33.9352,-62.8216 -88.2674,-95.6793 -158.2116,-95.6793 -69.9442,0 -124.2764,32.8577 -158.2116,95.6793 -16.6892,30.8955 -17.9645,36.6463 -17.8807,80.6365 0.1069,56.1626 10.1848,83.2009 45.1488,121.1325 53.29,57.8127 132.4295,73.5414 205.8609,40.9141 z m 499.8334,-123.811 c 37.393,-17.1191 69.8289,-49.4915 87.6284,-87.4569 11.6573,-24.8645 13.9366,-37.0608 13.9366,-74.5736 0,-40.0999 -1.8385,-48.5821 -17.3673,-80.1255 -19.2222,-39.0458 -46.2309,-64.761 -88.3151,-84.0855 -38.7229,-17.781 -104.7114,-17.0219 -144.3176,1.6602 -36.9874,17.4468 -71.629,52.1328 -88.8633,88.9773 -11.1663,23.8718 -13.5603,36.7913 -13.6543,73.6842 -0.098,38.4095 1.9564,48.9528 14.5245,74.5455 15.8616,32.2995 48.8642,68.6074 74.5218,81.9854 50.4909,26.3262 111.7215,28.3642 161.9063,5.3889 z m 418.8556,-230.1616 c 38.7444,-20.6522 60.6146,-43.7883 79.5456,-84.1496 11.3932,-24.2905 13.6854,-36.6935 13.6618,-73.9244 -0.026,-38.253 -2.1555,-49.0773 -14.7064,-74.6847 -21.1839,-43.2211 -63.3961,-80.0965 -107.1635,-93.6148 -42.9146,-13.255 -65.7277,-13.3882 -106.7414,-0.6233 -92.8261,28.8907 -146.1595,125.5226 -119.586,216.6713 24.6399,84.5165 92.1937,133.2348 179.8045,129.6712 35.7757,-1.4552 47.0782,-4.3634 75.1854,-19.3457 z"
       id="path6302"
       inkscape:connector-curvature="0"
       transform="translate(-5493.7615,-377.23465)" />
    <path
       style="fill:#262959;fill-opacity:1;stroke:none;stroke-width:10;stroke-linecap:round;stroke-linejoin:round;stroke-miterlimit:4;stroke-dasharray:none;stroke-opacity:1"
       d="M 303.06932,1981.1189 C 229.87869,1967.1617 157.4592,1908.8117 118.04558,1832.0411 90.626891,1778.6344 82.177613,1751.8543 69.059037,1676.7779 23.47871,1415.9257 50.267261,1228.3005 166.37275,995.19896 221.94951,883.61917 264.87248,822.59031 342.3628,744.97228 476.39112,610.72307 634.98219,536.43105 881.96319,492.1964 c 72.84047,-13.04584 115.86663,-11.60777 161.30031,5.39115 64.3615,24.0807 130.9361,78.28433 192.088,156.39396 63.8542,81.56141 90.8993,90.51585 242.6414,80.33697 149.4286,-10.02369 235.4224,0.82108 314.4966,39.66147 75.6495,37.15823 129.7355,100.8834 152.0301,179.12497 49.5981,174.06178 38.3632,322.31498 -36.4207,480.59948 -52.8147,111.7855 -72.6978,138.2797 -190.8487,254.305 -111.6673,109.6583 -126.7121,129.1573 -131.3412,170.2262 l -2.4069,21.3543 -208.6642,27.8047 c -114.7653,15.2927 -211.1889,27.6863 -214.2747,27.5414 -3.0857,-0.1447 -11.2276,-13.8159 -18.0931,-30.3801 -27.6801,-66.7833 -112.5499,-127.6176 -232.7247,-166.8163 -71.101,-23.1917 -99.00831,-26.538 -137.13068,-16.4426 -49.90384,13.2152 -79.42606,35.6329 -144.31674,109.5869 -73.33757,83.5806 -146.8423,132.0338 -225.28216,148.5024 -41.29976,8.671 -61.70628,9.0248 -99.9465,1.7326 z m 126.26229,-177.8032 c 106.73513,-52.2461 133.21167,-194.547 52.76515,-283.5916 -23.07383,-25.54 -62.5439,-46.0379 -103.00491,-53.4932 -74.01213,-13.6376 -151.71527,26.6042 -188.04922,97.3891 -19.70086,38.3807 -22.34472,98.99 -6.18722,141.8391 18.55098,49.1965 64.1281,92.0983 115.52883,108.7473 7.23685,2.3441 33.28948,3.7509 57.89474,3.1263 35.20958,-0.8937 50.34111,-3.8788 71.05263,-14.017 z M 1672.481,1384.7905 c 79.6191,-25.285 138.1984,-76.3295 175.297,-152.7494 58.1658,-119.8165 32.9907,-256.78811 -64.399,-350.38019 -31.209,-29.99196 -96.2402,-63.86259 -139.8328,-72.8299 -132.3405,-27.22346 -270.1077,40.03668 -327.2469,159.76713 -23.4515,49.14096 -31.7356,84.09286 -31.6267,133.43886 0.2915,132.0532 92.2427,253.0275 218.7,287.7289 44.9245,12.3277 121.7395,10.0678 169.1084,-4.9754 z M 524.21186,1244.6644 c 63.22112,-29.5109 102.48817,-91.818 102.48817,-162.6233 0,-71.7698 -34.57647,-127.38202 -98.86756,-159.01715 -31.60959,-15.55384 -39.67741,-17.27383 -79.98611,-17.0523 -37.72129,0.20731 -49.54026,2.52085 -74.5298,14.58913 -86.10163,41.58134 -125.62964,147.51222 -86.78467,232.57372 22.32424,48.8849 61.4609,84.5887 110.29538,100.6208 32.25732,10.5899 94.78168,6.1278 127.38459,-9.0909 z M 996.62372,963.23735 c 34.16448,-11.70459 78.53538,-53.22575 96.94878,-90.72215 12.6062,-25.67092 14.7065,-36.35258 14.7065,-74.79533 0,-40.07847 -1.8425,-48.5901 -17.3263,-80.04225 -18.8621,-38.31436 -45.251,-64.50124 -84.5889,-83.94121 -20.20429,-9.98459 -32.99935,-12.07236 -74.40061,-12.13999 -46.98163,-0.0767 -51.99695,1.00115 -83.0801,17.85568 -38.85548,21.069 -60.68753,44.24822 -79.54564,84.45406 -18.22926,38.86524 -19.20173,105.49602 -2.09105,143.27001 12.62132,27.86311 47.18616,67.5722 72.36221,83.13186 42.36763,26.18462 103.60553,31.22722 157.01511,12.92932 z"
       id="path6304"
       inkscape:connector-curvature="0"
       transform="translate(-5493.7615,-377.23465)" />
    <flowRoot
       xml:space="preserve"
       id="flowRoot6394"
       style="font-style:normal;font-variant:normal;font-weight:300;font-stretch:normal;font-size:70px;line-height:125%;font-family:Roboto;-inkscape-font-specification:'Roboto, Light';text-align:center;letter-spacing:0px;word-spacing:0px;writing-mode:lr-tb;text-anchor:middle;fill:#000000;fill-opacity:1;stroke:none;stroke-width:1px;stroke-linecap:butt;stroke-linejoin:miter;stroke-opacity:1"
       transform="translate(-5493.7615,-377.23465)"><flowRegion
         id="flowRegion6396"><rect
           id="rect6398"
           width="713.33331"
           height="168.88889"
           x="3868.8889"
           y="869.0755" /></flowRegion><flowPara
         id="flowPara6400" /></flowRoot>    <path
       style="fill:none;fill-opacity:1;stroke:none;stroke-width:10;stroke-linecap:round;stroke-linejoin:round;stroke-miterlimit:4;stroke-dasharray:none;stroke-opacity:1"
       d="m -1828.307,755.07317 c 716.3191,-156.19704 953.20569,23.67762 1281.81818,256.36363"
       id="path6406"
       inkscape:connector-curvature="0"
       sodipodi:nodetypes="cc" />
    <path
       style="fill:none;fill-opacity:1;stroke:none;stroke-width:10;stroke-linecap:round;stroke-linejoin:round;stroke-miterlimit:4;stroke-dasharray:none;stroke-opacity:1"
       d="m -2776.1144,2363.7364 c 1233.644,-26.2657 1703.4144,-403.6893 2370.58822,-858.8235"
       id="path6417"
       inkscape:connector-curvature="0"
       sodipodi:nodetypes="cc" />
    <text
       xml:space="preserve"
       style="font-style:normal;font-variant:normal;font-weight:normal;font-stretch:normal;font-size:162.5px;line-height:125%;font-family:'Oleo Script Swash Caps';-inkscape-font-specification:'Oleo Script Swash Caps, Normal';text-align:center;letter-spacing:0px;word-spacing:0px;writing-mode:lr-tb;text-anchor:middle;fill:#000000;fill-opacity:1;stroke:none;stroke-width:1px;stroke-linecap:butt;stroke-linejoin:miter;stroke-opacity:1"
       id="text6419"
       sodipodi:linespacing="125%"
       transform="translate(-342.10526,136.8421)"><textPath
         xlink:href="#path6417"
         startOffset="50%"
         id="textPath6423"><tspan
   style="font-style:normal;font-variant:normal;font-weight:normal;font-stretch:normal;font-size:237.5px;line-height:125%;font-family:'Oleo Script Swash Caps';-inkscape-font-specification:'Oleo Script Swash Caps, Normal';text-align:center;writing-mode:lr-tb;text-anchor:middle;fill:#ffffff;fill-opacity:1"
   id="tspan6421">garden of eden</tspan></textPath></text>
    <path
       style="fill:none;fill-opacity:1;stroke:none;stroke-width:10;stroke-linecap:round;stroke-linejoin:round;stroke-miterlimit:4;stroke-dasharray:none;stroke-opacity:1"
       d="m -5014.3964,863.26938 c 323.3924,348.36572 883.0524,193.25232 1123.8095,461.90482"
       id="path6426"
       inkscape:connector-curvature="0"
       sodipodi:nodetypes="cc" />
    <text
       xml:space="preserve"
       style="font-style:normal;font-variant:normal;font-weight:normal;font-stretch:normal;font-size:162.5px;line-height:125%;font-family:'Oleo Script Swash Caps';-inkscape-font-specification:'Oleo Script Swash Caps, Normal';text-align:center;letter-spacing:0px;word-spacing:0px;writing-mode:lr-tb;text-anchor:middle;fill:#000000;fill-opacity:1;stroke:none;stroke-width:1px;stroke-linecap:butt;stroke-linejoin:miter;stroke-opacity:1"
       id="text6428"
       sodipodi:linespacing="125%"><textPath
         xlink:href="#path6426"
         startOffset="50%"
         id="textPath6432"><tspan
   style="fill:#ffffff;fill-opacity:1"
   id="tspan6430">shangri-la</tspan></textPath></text>
    <path
       style="fill:#4a5e15;fill-opacity:1;stroke:none;stroke-width:10;stroke-linecap:round;stroke-linejoin:round;stroke-miterlimit:4;stroke-dasharray:none;stroke-opacity:1"
       d="m 2116.7643,1403.7233 c 5.4746,-26.6912 33.623,-273.3876 62.5519,-548.21417 28.9289,-274.82663 56.2829,-513.90487 60.7865,-531.28501 35.9769,-138.83953 157.2377,-228.074853 266.6901,-196.25618 75.7631,22.02494 124.2985,90.59867 136.3942,192.70587 4.7371,39.98921 0.2231,101.78178 -42.5354,582.26995 -26.3092,295.64324 -47.8349,540.18264 -47.8349,543.42104 0,4.2492 -62.0671,5.888 -223.0031,5.888 l -223.0031,0 9.9538,-48.5295 z"
       id="path6443"
       inkscape:connector-curvature="0"
       transform="translate(-5493.7615,-377.23465)" />
    <path
       style="fill:none;fill-opacity:1;stroke:none;stroke-width:10;stroke-linecap:round;stroke-linejoin:round;stroke-miterlimit:4;stroke-dasharray:none;stroke-opacity:1"
       d="m -3309.551,980.14487 c -40.061,-344.30529 418.1229,-439.62837 468.4211,-921.052564"
       id="path6445"
       inkscape:connector-curvature="0"
       sodipodi:nodetypes="cc" />
    <text
       xml:space="preserve"
       style="font-style:normal;font-variant:normal;font-weight:normal;font-stretch:normal;font-size:175px;line-height:125%;font-family:'Oleo Script Swash Caps';-inkscape-font-specification:'Oleo Script Swash Caps, Normal';text-align:center;letter-spacing:0px;word-spacing:0px;writing-mode:lr-tb;text-anchor:middle;fill:#000000;fill-opacity:1;stroke:none;stroke-width:1px;stroke-linecap:butt;stroke-linejoin:miter;stroke-opacity:1"
       id="text6447"
       sodipodi:linespacing="125%"
       x="31.578947"
       y="36.842106"><textPath
         xlink:href="#path6445"
         startOffset="50%"
         id="textPath6451"><tspan
   style="font-style:normal;font-variant:normal;font-weight:normal;font-stretch:normal;font-size:175px;line-height:125%;font-family:'Oleo Script Swash Caps';-inkscape-font-specification:'Oleo Script Swash Caps, Normal';text-align:center;writing-mode:lr-tb;text-anchor:middle;fill:#ffffff;fill-opacity:1"
   id="tspan6449">entrance</tspan></textPath></text>
    <path
       style="fill:none;fill-opacity:1;stroke:none;stroke-width:10;stroke-linecap:round;stroke-linejoin:round;stroke-miterlimit:4;stroke-dasharray:none;stroke-opacity:1"
       d="m -1809.551,822.24996 c 331.7846,-77.7568 851.01033,-258.43958 1147.3684,78.94739"
       id="path6454"
       inkscape:connector-curvature="0"
       sodipodi:nodetypes="cc" />
    <circle
       style="fill:#d8d8d8;fill-opacity:1;stroke:#e3e3e3;stroke-width:10;stroke-linecap:round;stroke-linejoin:round;stroke-miterlimit:4;stroke-dasharray:none;stroke-opacity:1"
       id="circle4991"
       cx="-2494.7041"
       cy="338.92746"
       r="171.7812" />
    <circle
       r="171.7812"
       cy="55.919052"
       cx="-2478.147"
       id="circle4993"
       style="fill:#d8d8d8;fill-opacity:1;stroke:#e3e3e3;stroke-width:10;stroke-linecap:round;stroke-linejoin:round;stroke-miterlimit:4;stroke-dasharray:none;stroke-opacity:1"
       transform="scale(1,-1)" />
    <text
       sodipodi:linespacing="125%"
       id="text5016"
       y="-30.845322"
       x="-2485.5884"
       style="font-style:normal;font-variant:normal;font-weight:300;font-stretch:normal;font-size:70px;line-height:125%;font-family:Roboto;-inkscape-font-specification:'Roboto, Light';text-align:center;letter-spacing:0px;word-spacing:0px;writing-mode:lr-tb;text-anchor:middle;fill:#000000;fill-opacity:1;stroke:none;stroke-width:1px;stroke-linecap:butt;stroke-linejoin:miter;stroke-opacity:1"
       xml:space="preserve"><tspan
         y="-30.845322"
         x="-2485.5884"
         id="tspan5018"
         sodipodi:role="line">CASINO</tspan></text>
    <text
       xml:space="preserve"
       style="font-style:normal;font-variant:normal;font-weight:300;font-stretch:normal;font-size:70px;line-height:125%;font-family:Roboto;-inkscape-font-specification:'Roboto, Light';text-align:center;letter-spacing:0px;word-spacing:0px;writing-mode:lr-tb;text-anchor:middle;fill:#000000;fill-opacity:1;stroke:none;stroke-width:1px;stroke-linecap:butt;stroke-linejoin:miter;stroke-opacity:1"
       x="-2498.0886"
       y="371.23804"
       id="text5020"
       sodipodi:linespacing="125%"><tspan
         sodipodi:role="line"
         id="tspan5022"
         x="-2498.0886"
         y="371.23804">CUPCAKES</tspan></text>
    <circle
       transform="scale(1,-1)"
       style="fill:#d8d8d8;fill-opacity:1;stroke:#e3e3e3;stroke-width:10;stroke-linecap:round;stroke-linejoin:round;stroke-miterlimit:4;stroke-dasharray:none;stroke-opacity:1"
       id="circle5024"
       cx="-2517.7305"
       cy="-752.41431"
       r="171.7812" />
    <text
       xml:space="preserve"
       style="font-style:normal;font-variant:normal;font-weight:300;font-stretch:normal;font-size:70px;line-height:125%;font-family:Roboto;-inkscape-font-specification:'Roboto, Light';text-align:center;letter-spacing:0px;word-spacing:0px;writing-mode:lr-tb;text-anchor:middle;fill:#000000;fill-opacity:1;stroke:none;stroke-width:1px;stroke-linecap:butt;stroke-linejoin:miter;stroke-opacity:1"
       x="-2518.9216"
       y="785.82141"
       id="text5026"
       sodipodi:linespacing="125%"><tspan
         sodipodi:role="line"
         id="tspan5028"
         x="-2518.9216"
         y="785.82141">CHIPS</tspan></text>
    <circle
       r="171.7812"
       cy="-1112.8309"
       cx="-2323.9802"
       id="circle5030"
       style="fill:#d8d8d8;fill-opacity:1;stroke:#e3e3e3;stroke-width:10;stroke-linecap:round;stroke-linejoin:round;stroke-miterlimit:4;stroke-dasharray:none;stroke-opacity:1"
       transform="scale(1,-1)" />
    <text
       sodipodi:linespacing="125%"
       id="text5032"
       y="1146.238"
       x="-2329.3384"
       style="font-style:normal;font-variant:normal;font-weight:300;font-stretch:normal;font-size:70px;line-height:125%;font-family:Roboto;-inkscape-font-specification:'Roboto, Light';text-align:center;letter-spacing:0px;word-spacing:0px;writing-mode:lr-tb;text-anchor:middle;fill:#000000;fill-opacity:1;stroke:none;stroke-width:1px;stroke-linecap:butt;stroke-linejoin:miter;stroke-opacity:1"
       xml:space="preserve"><tspan
         y="1146.238"
         x="-2329.3384"
         id="tspan5034"
         sodipodi:role="line">STAGE</tspan></text>
    <circle
       transform="scale(1,-1)"
       style="fill:#d8d8d8;fill-opacity:1;stroke:#e3e3e3;stroke-width:10;stroke-linecap:round;stroke-linejoin:round;stroke-miterlimit:4;stroke-dasharray:none;stroke-opacity:1"
       id="circle5036"
       cx="-1894.8137"
       cy="-860.74768"
       r="171.7812" />
    <text
       sodipodi:linespacing="125%"
       id="text5038"
       y="848.32141"
       x="-1900.1716"
       style="font-style:normal;font-variant:normal;font-weight:300;font-stretch:normal;font-size:70px;line-height:125%;font-family:Roboto;-inkscape-font-specification:'Roboto, Light';text-align:center;letter-spacing:0px;word-spacing:0px;writing-mode:lr-tb;text-anchor:middle;fill:#000000;fill-opacity:1;stroke:none;stroke-width:1px;stroke-linecap:butt;stroke-linejoin:miter;stroke-opacity:1"
       xml:space="preserve"><tspan
         y="848.32141"
         x="-1900.1716"
         id="tspan5040"
         sodipodi:role="line">CHEESE</tspan><tspan
         y="935.82141"
         x="-1900.1716"
         sodipodi:role="line"
         id="tspan5042">&amp; WINE</tspan></text>
    <circle
       transform="scale(1,-1)"
       style="fill:#d8d8d8;fill-opacity:1;stroke:#e3e3e3;stroke-width:10;stroke-linecap:round;stroke-linejoin:round;stroke-miterlimit:4;stroke-dasharray:none;stroke-opacity:1"
       id="circle5044"
       cx="-1403.147"
       cy="-2.4142864"
       r="171.7812" />
    <text
       xml:space="preserve"
       style="font-style:normal;font-variant:normal;font-weight:300;font-stretch:normal;font-size:70px;line-height:125%;font-family:Roboto;-inkscape-font-specification:'Roboto, Light';text-align:center;letter-spacing:0px;word-spacing:0px;writing-mode:lr-tb;text-anchor:middle;fill:#000000;fill-opacity:1;stroke:none;stroke-width:1px;stroke-linecap:butt;stroke-linejoin:miter;stroke-opacity:1"
       x="-1412.6716"
       y="-24.595312"
       id="text5046"
       sodipodi:linespacing="125%"><tspan
         sodipodi:role="line"
         id="tspan5048"
         x="-1412.6716"
         y="-24.595312">TACO</tspan><tspan
         sodipodi:role="line"
         x="-1412.6716"
         y="62.904686"
         id="tspan5050">BANDITS</tspan></text>
    <circle
       transform="scale(1,-1)"
       style="fill:#d8d8d8;fill-opacity:1;stroke:#e3e3e3;stroke-width:10;stroke-linecap:round;stroke-linejoin:round;stroke-miterlimit:4;stroke-dasharray:none;stroke-opacity:1"
       id="circle5052"
       cx="-1894.8136"
       cy="160.08572"
       r="171.7812" />
    <text
       sodipodi:linespacing="125%"
       id="text5054"
       y="-182.92862"
       x="-1900.1715"
       style="font-style:normal;font-variant:normal;font-weight:300;font-stretch:normal;font-size:70px;line-height:125%;font-family:Roboto;-inkscape-font-specification:'Roboto, Light';text-align:center;letter-spacing:0px;word-spacing:0px;writing-mode:lr-tb;text-anchor:middle;fill:#000000;fill-opacity:1;stroke:none;stroke-width:1px;stroke-linecap:butt;stroke-linejoin:miter;stroke-opacity:1"
       xml:space="preserve"><tspan
         y="-182.92862"
         x="-1900.1715"
         id="tspan5056"
         sodipodi:role="line">WHISKEY</tspan><tspan
         y="-95.428619"
         x="-1900.1715"
         sodipodi:role="line"
         id="tspan5058">TASTING</tspan><tspan
         y="-7.9286194"
         x="-1900.1715"
         sodipodi:role="line"
         id="tspan5060">BAR</tspan></text>
    <path
       style="fill:none;fill-opacity:1;stroke:#cecece;stroke-width:10;stroke-linecap:round;stroke-linejoin:round;stroke-miterlimit:4;stroke-dasharray:none;stroke-opacity:1"
       d="m -1208.3448,525.86841 -50,354.16669"
       id="path5062"
       inkscape:connector-curvature="0" />
    <path
       style="fill:#4a0715;fill-opacity:1;stroke:none;stroke-width:20.83333397;stroke-linecap:round;stroke-linejoin:round;stroke-miterlimit:4;stroke-dasharray:none;stroke-opacity:1"
       d="m 3063.1457,1677.3424 c -60.6363,-9.6695 -103.7092,-32.4112 -147.0872,-77.6595 -77.8264,-81.1821 -121.7351,-209.9992 -138.6522,-406.7705 -5.1187,-59.5385 -5.0283,-214.30977 0.1692,-289.58335 2.8605,-41.42873 4.0453,-98.30473 5.3811,-258.33333 1.6606,-198.93552 2.6362,-228.74913 9.5095,-290.60421 12.7218,-114.48763 39.9063,-188.08288 81.5457,-220.76417 25.5559,-20.05796 85.684,-46.779562 151.7557,-67.441893 92.91,-29.05538 188.4144,-50.615955 329.0449,-74.2834296 122.1432,-20.5561604 174.1213,-25.3123504 255.2083,-23.3525194 115.3673,2.788367 184.8763,19.355986 376.6335,89.771401 81.591,29.961162 100.5804,37.768635 140.657,57.830861 121.0038,60.57429 188.6777,134.80108 188.9233,207.21689 0.09,26.48396 -10.6953,67.93467 -25.2722,97.12871 -10.6963,21.42236 -18.9298,34.12436 -46.2641,71.37336 -65.3238,89.01768 -75.1599,114.62866 -84.8131,220.83333 -9.8858,108.7634 24.8602,165.625 101.2072,165.625 l 16.8628,0 -23.4628,165.10415 c -12.9045,90.8073 -23.5022,165.2884 -23.5505,165.5135 -0.048,0.2251 -12.6032,0.4473 -27.8999,0.4938 -31.2519,0.095 -65.8167,4.0949 -100.8628,11.6721 -39.5836,8.5582 -158.6901,39.8186 -178.5477,46.8612 -86.4683,30.6662 -181.2318,86.2224 -277.508,162.6923 -180.105,143.0533 -349.1638,229.0638 -484.6469,246.5696 -29.1659,3.7685 -75.0556,3.8183 -98.3308,0.1066 l 0,10e-5 z m 150.7428,-51.2718 c 91.1318,-23.2226 148.6795,-115.1941 129.6798,-207.2515 -7.6405,-37.02 -24.0004,-66.3254 -51.9145,-92.9945 -54.8346,-52.3886 -133.1699,-64.1693 -201.4248,-30.2918 -47.4956,23.5739 -82.8643,69.037 -94.1853,121.0663 -4.7707,21.9252 -4.2801,56.647 1.1138,78.8326 23.4858,96.5982 120.5997,155.1355 216.731,130.6389 z m 429.1666,-252.0833 c 91.1318,-23.2226 148.6795,-115.1941 129.6799,-207.2515 -7.6405,-37.02 -24.0004,-66.3255 -51.9146,-92.9945 -54.8346,-52.3887 -133.1699,-64.1694 -201.4247,-30.2919 -47.4956,23.5739 -82.8643,69.037 -94.1854,121.0664 -4.7706,21.9251 -4.28,56.647 1.1139,78.8325 23.4858,96.5983 120.5996,155.1356 216.7309,130.639 z m -622.9166,-108.3334 c 91.1318,-23.2226 148.6795,-115.194 129.6798,-207.2515 -7.6405,-37.02 -24.0004,-66.32541 -51.9145,-92.99445 -54.8346,-52.38865 -133.1699,-64.16934 -201.4248,-30.29186 -47.4956,23.5739 -82.8643,69.03701 -94.1853,121.06631 -4.7707,21.9252 -4.2801,56.6471 1.1138,78.8326 23.4858,96.5982 120.5997,155.1355 216.731,130.6389 z m 24.2572,-413.3622 c 20.2347,-5.5854 48.8441,-20.2629 65.7122,-33.71242 44.791,-35.71329 69.6477,-92.05594 65.923,-149.42702 -1.5963,-24.58711 -6.0675,-41.66619 -16.9593,-64.78154 -21.0838,-44.74523 -57.2976,-76.80152 -104.7936,-92.76261 -17.8777,-6.00785 -23.6537,-6.9355 -48.424,-7.77708 -23.6505,-0.80352 -31.0421,-0.25875 -46.4611,3.42425 -74.8971,17.88998 -128.976,79.14277 -136.8211,154.97135 -9.363,90.49973 51.5596,173.21367 141.6156,192.27005 17.7687,3.75995 63.1147,2.51337 80.2083,-2.20498 z M 4134.7218,515.65393 c 91.1318,-23.22259 148.6795,-115.19407 129.6799,-207.25148 -7.6405,-37.02002 -24.0004,-66.32546 -51.9146,-92.9945 -54.8346,-52.38865 -133.1699,-64.16933 -201.4247,-30.29186 -47.4956,23.5739 -82.8644,69.03702 -94.1854,121.06636 -4.7707,21.92516 -4.2801,56.64702 1.1139,78.83256 23.4858,96.59821 120.5996,155.13552 216.7309,130.63892 z m -1075,-58.33334 c 91.1318,-23.22258 148.6795,-115.19406 129.6799,-207.25148 -7.6405,-37.02002 -24.0004,-66.32546 -51.9146,-92.99449 -54.8346,-52.38865 -133.1699,-64.169338 -201.4247,-30.29185 -47.4956,23.57389 -82.8643,69.03701 -94.1854,121.06634 -4.7707,21.92517 -4.2801,56.64702 1.1139,78.83257 23.4858,96.5982 120.5996,155.13552 216.7309,130.63891 z m 583.3333,-104.16666 c 91.1318,-23.22259 148.6795,-115.19407 129.6799,-207.25149 -7.6405,-37.02 -24.0004,-66.325456 -51.9146,-92.994489 -54.8346,-52.38864606 -133.1699,-64.169336 -201.4247,-30.291852 -47.4956,23.573898 -82.8643,69.037014 -94.1854,121.066351 -4.7706,21.92515 -4.28,56.64702 1.1139,78.83256 23.4858,96.59821 120.5996,155.13552 216.7309,130.63892 z"
       id="path5066"
       inkscape:connector-curvature="0"
       transform="translate(-5493.7615,-341.3103)" />
    <path
       style="fill:#6e4c15;fill-opacity:1;stroke:none;stroke-width:10;stroke-linecap:round;stroke-linejoin:round;stroke-miterlimit:4;stroke-dasharray:none;stroke-opacity:1"
       d="m 4753.7707,1470.9155 c -136.9271,-3.7848 -266.9818,-7.5166 -289.0104,-8.2929 l -40.0521,-1.4115 -0.9196,-6.5452 c -0.5058,-3.5998 -1.9828,-17.3264 -3.2822,-30.5035 -9.5778,-97.1293 -48.8041,-164.4348 -113.6107,-194.9362 -17.8879,-8.4189 -48.4665,-17.5638 -58.73,-17.5638 -2.6464,0 -4.8336,-0.7031 -4.8604,-1.5625 -0.027,-0.8594 10.4976,-76.3281 23.3876,-167.7083 22.7439,-161.23682 23.5684,-166.14588 27.9066,-166.14588 9.8302,0 45.4466,-10.61867 62.6383,-18.67494 35.9192,-16.83233 61.4776,-41.76854 80.2881,-78.33375 13.6245,-26.48419 20.7037,-47.96915 38.3854,-116.49669 15.0222,-58.22027 19.928,-74.24356 45.6169,-148.99462 13.194,-38.39259 27.5998,-92.88086 34.1815,-129.28736 8.4157,-46.5516 10.7938,-80.64937 11.47,-164.46264 0.7121,-88.26365 2.1176,-101.98134 13.7087,-133.795253 14.8412,-40.734381 57.9296,-99.155579 92.5169,-125.438643 67.6251,-51.388536 221.358,-99.332654 343.9071,-107.253074 45.9108,-2.96724 66.0176,-0.74379 108.4423,11.99175 178.0667,53.454122 307.6143,113.017224 470.4652,216.309488 48.3127,30.643522 57.1936,37.421392 71.061,54.233482 24.3894,29.56837 39.6915,70.27446 47.2224,125.61891 3.8214,28.08365 3.2164,111.70271 -1.1078,153.125 -5.1108,48.95684 -14.2613,110.35565 -27.3229,183.33334 -18.7856,104.95914 -27.6038,158.32831 -32.0732,194.11056 -4.7673,38.1676 -8.6371,49.04769 -27.2616,76.64806 -31.573,46.78923 -78.7329,94.2869 -209.2144,210.71326 -31.9672,28.5238 -65.2485,58.2409 -73.9583,66.0379 -24.0014,21.4862 -60.1121,48.9754 -112.2653,85.4617 -61.649,43.1295 -78.657,56.4712 -102.6573,80.5281 -39.9245,40.0188 -67.0882,94.2493 -75.4158,150.5629 l -2.3877,16.1459 -24.055,-0.2661 c -13.2302,-0.1464 -136.0862,-3.3627 -273.0133,-7.1475 z m 243.75,-985.6186 c 38.7632,-6.3661 78.6405,-22.43958 114.4792,-46.14345 22.2276,-14.70144 58.0457,-49.17346 73.7351,-70.96409 24.318,-33.77475 42.8148,-75.85535 51.6887,-117.59279 6.1142,-28.75769 6.5487,-82.79994 0.8993,-111.85085 -25.0922,-129.032088 -125.7747,-224.624692 -254.7202,-241.84318 -11.4019,-1.52253 -30.2314,-1.99039 -49.6238,-1.23301 -46.8938,1.83149 -80.7795,10.689606 -122.4715,32.015587 -81.7276,41.804707 -138.9225,118.756292 -156.8724,211.060603 -5.6494,29.05091 -5.2149,83.09316 0.8993,111.85085 8.8739,41.73744 27.3707,83.81804 51.6887,117.59279 15.6894,21.79063 51.5074,56.26265 73.7351,70.96409 65.8387,43.546 138.3294,58.99175 216.5625,46.14345 z m 546.875,-26.54187 c 34.1093,-9.41531 69.6145,-32.65573 91.3041,-59.76444 59.253,-74.05704 52.0519,-176.7811 -16.956,-241.87964 -35.2619,-33.2643 -80.8984,-49.71496 -130.1402,-46.91186 -27.857,1.58577 -43.8406,5.81073 -69.2079,18.29373 -45.3968,22.33936 -76.8687,59.774 -91.8809,109.28879 -4.9586,16.35513 -5.6765,22.29213 -5.7845,47.83911 -0.1486,35.12966 2.9196,49.06168 17.4349,79.16666 23.8415,49.44784 66.8742,83.3299 121.8972,95.97652 16.8839,3.88063 66.3139,2.68905 83.3333,-2.00887 z"
       id="path5068"
       inkscape:connector-curvature="0"
       transform="translate(-5493.7615,-341.3103)" />
    <text
       xml:space="preserve"
       style="font-style:normal;font-variant:normal;font-weight:normal;font-stretch:normal;font-size:162.5px;line-height:125%;font-family:'Oleo Script Swash Caps';-inkscape-font-specification:'Oleo Script Swash Caps, Normal';text-align:center;letter-spacing:0px;word-spacing:0px;writing-mode:lr-tb;text-anchor:middle;fill:#000000;fill-opacity:1;stroke:none;stroke-width:1px;stroke-linecap:butt;stroke-linejoin:miter;stroke-opacity:1"
       id="text5070"
       sodipodi:linespacing="125%"><textPath
         xlink:href="#path5074"
         startOffset="50%"
         id="textPath5076"><tspan
   style="fill:#ffffff;fill-opacity:1"
   id="tspan5072">cloud nine</tspan></textPath></text>
    <path
       style="fill:none;fill-opacity:1;stroke:none;stroke-width:10;stroke-linecap:round;stroke-linejoin:round;stroke-miterlimit:4;stroke-dasharray:none;stroke-opacity:1"
       d="m -2166.6782,221.70174 c 135.9097,184.13211 442.0713,388.90125 760.4167,416.66667"
       id="path5074"
       inkscape:connector-curvature="0"
       sodipodi:nodetypes="cc" />
    <text
       xml:space="preserve"
       style="font-style:normal;font-variant:normal;font-weight:normal;font-stretch:normal;font-size:162.5px;line-height:125%;font-family:'Oleo Script Swash Caps';-inkscape-font-specification:'Oleo Script Swash Caps, Normal';text-align:center;letter-spacing:0px;word-spacing:0px;writing-mode:lr-tb;text-anchor:middle;fill:#000000;fill-opacity:1;stroke:none;stroke-width:1px;stroke-linecap:butt;stroke-linejoin:miter;stroke-opacity:1"
       id="text5079"
       sodipodi:linespacing="125%"><textPath
         xlink:href="#path5083"
         startOffset="50%"
         id="textPath5088"><tspan
   style="fill:#ffffff;fill-opacity:1"
   id="tspan5081">tropical paradise</tspan></textPath></text>
    <path
       style="fill:none;fill-opacity:1;stroke:none;stroke-width:10;stroke-linecap:round;stroke-linejoin:round;stroke-miterlimit:4;stroke-dasharray:none;stroke-opacity:1"
       d="M -1012.5115,788.36843 C -591.02952,756.55731 -228.13577,612.29304 -47.928127,275.86841"
       id="path5083"
       inkscape:connector-curvature="0"
       sodipodi:nodetypes="cc" />
  </g>
</svg>
