<?xml version="1.0" standalone="no"?>
<!DOCTYPE svg PUBLIC "-//W3C//DTD SVG 20010904//EN"
 "http://www.w3.org/TR/2001/REC-SVG-20010904/DTD/svg10.dtd">
<svg version="1.0" xmlns="http://www.w3.org/2000/svg"
 width="500.000000pt" height="500.000000pt" viewBox="0 0 500.000000 500.000000"
 preserveAspectRatio="xMidYMid meet">
<metadata>
Created by potrace 1.11, written by Peter Selinger 2001-2013
</metadata>
<g transform="translate(0.000000,500.000000) scale(0.100000,-0.100000)"
fill="#000000" stroke="none">
<path d="M479 4969 c-31 -31 -22 -94 33 -214 55 -123 62 -149 44 -164 -36 -30
-96 17 -206 157 -65 83 -98 106 -140 97 -76 -17 -63 -133 26 -242 19 -24 87
-88 149 -143 177 -156 205 -211 205 -399 0 -127 -25 -348 -41 -367 -31 -37
-104 11 -236 153 -121 131 -163 163 -215 163 -42 0 -78 -27 -78 -59 0 -61 73
-185 160 -272 56 -55 174 -150 306 -244 184 -131 254 -231 254 -361 0 -86 -19
-154 -61 -217 -30 -46 -32 -47 -53 -32 -11 8 -31 22 -42 31 -12 8 -38 17 -57
21 -44 7 -77 -22 -77 -68 l0 -31 -105 7 c-89 6 -109 4 -130 -9 -107 -70 152
-214 321 -178 54 11 58 10 98 -17 81 -55 187 -96 300 -116 62 -10 290 -8 426
5 196 19 340 -1 340 -48 0 -42 -108 -61 -290 -51 -161 9 -357 2 -437 -15 -38
-8 -144 -42 -238 -76 -137 -50 -187 -63 -260 -70 -49 -4 -98 -11 -108 -15 -40
-16 -41 -83 -2 -121 44 -44 173 -72 257 -56 l48 9 51 -48 c29 -27 76 -61 106
-75 46 -23 67 -27 146 -27 105 0 201 27 311 88 57 31 67 34 96 24 42 -15 110
-5 177 25 l53 25 0 -28 c0 -44 -18 -128 -46 -220 -46 -147 -27 -231 88 -401
74 -111 231 -301 322 -390 48 -47 98 -103 111 -125 13 -22 34 -87 46 -145 19
-88 23 -138 24 -305 1 -166 4 -205 18 -231 23 -45 109 -119 175 -151 50 -24
69 -28 152 -28 84 0 102 3 151 28 67 32 143 97 165 139 12 24 16 76 18 251 3
237 18 333 67 429 12 23 77 96 144 163 190 187 374 451 396 570 13 70 8 108
-31 245 -17 56 -30 124 -30 150 l0 48 62 -25 c53 -22 73 -25 137 -20 74 4 78
3 141 -34 97 -56 165 -73 295 -73 137 0 206 24 269 90 40 42 44 43 93 40 168
-10 290 53 269 139 -8 31 -40 45 -104 45 -62 0 -105 12 -243 71 -199 84 -242
90 -613 93 -336 3 -400 10 -394 44 2 9 24 27 49 40 54 27 109 30 334 17 365
-20 523 5 675 106 57 39 62 40 97 28 74 -24 218 8 308 70 32 21 41 34 43 62 4
52 -22 61 -160 53 l-111 -7 7 27 c5 21 1 32 -19 52 -33 33 -72 27 -123 -17
l-36 -32 -32 39 c-56 67 -78 121 -82 205 -4 66 -1 83 23 133 36 77 115 154
260 256 210 147 272 203 370 335 92 122 104 167 60 210 -26 27 -57 31 -102 15
-15 -6 -89 -71 -163 -144 -74 -73 -146 -141 -160 -150 -41 -27 -69 -21 -86 19
-21 52 -36 220 -32 368 3 109 7 140 25 180 26 55 96 132 185 201 103 81 191
204 205 289 7 47 -21 79 -70 79 -46 0 -55 -7 -127 -102 -83 -108 -133 -152
-173 -148 -27 3 -33 7 -35 33 -6 45 15 102 69 192 27 45 49 90 49 101 0 29
-42 62 -79 62 -76 0 -120 -46 -196 -205 -29 -62 -60 -115 -67 -117 -25 -10
-55 10 -144 95 -197 189 -296 234 -353 161 -31 -39 -18 -63 69 -133 135 -109
214 -201 191 -224 -9 -9 -33 -4 -98 18 -110 38 -160 71 -224 148 -125 150
-162 187 -194 193 -37 7 -89 -15 -99 -41 -25 -67 11 -132 156 -279 124 -125
181 -163 336 -221 64 -25 135 -57 157 -72 47 -33 90 -111 105 -193 15 -80 13
-252 -5 -372 -41 -277 -113 -415 -283 -535 -35 -26 -178 -102 -316 -171 -138
-68 -281 -146 -318 -174 -82 -60 -155 -139 -195 -209 l-29 -52 -73 -3 c-72 -3
-74 -3 -120 35 -58 47 -111 70 -185 80 -134 18 -258 -13 -356 -88 -18 -14 -45
-21 -96 -23 l-72 -3 -51 64 c-165 206 -270 286 -466 354 -145 51 -190 72 -280
132 -83 55 -186 153 -231 219 -40 59 -90 173 -109 249 -43 179 -37 469 14 582
35 76 137 147 312 215 69 27 173 85 221 122 20 16 59 59 87 97 111 149 126
236 49 274 -22 11 -46 16 -58 12 -33 -11 -79 -54 -121 -116 -45 -67 -113 -128
-200 -181 -76 -46 -157 -74 -171 -60 -29 29 31 104 170 217 71 58 88 77 90
102 2 24 -3 36 -25 53 -57 45 -149 5 -307 -133 -139 -123 -169 -142 -194 -126
-11 7 -48 67 -82 133 -67 131 -81 151 -122 172 -38 20 -75 17 -99 -7z m708
-2138 c74 -60 159 -163 148 -182 -12 -18 -309 -29 -382 -14 -69 15 -113 28
-113 35 0 4 12 12 26 19 14 6 63 40 108 75 79 62 145 106 158 106 3 0 28 -17
55 -39z m2789 -24 c137 -88 184 -122 181 -132 -6 -20 -114 -47 -208 -52 -85
-5 -234 8 -275 24 -10 4 2 28 46 92 96 140 130 149 256 68z"/>
<path d="M2066 4681 c-23 -25 -16 -45 38 -118 33 -47 96 -146 124 -197 2 -4
-67 28 -155 73 -87 45 -169 81 -180 81 -51 0 -53 -17 -53 -396 0 -194 3 -360
6 -369 4 -9 18 -21 32 -26 21 -8 48 2 184 72 88 44 162 79 164 77 2 -3 -23
-46 -56 -96 -33 -50 -60 -100 -60 -111 0 -28 29 -41 94 -41 l55 0 20 -67 c11
-38 45 -156 76 -263 103 -357 103 -359 131 -366 38 -10 70 3 82 33 6 16 49
159 96 318 111 380 95 345 156 345 62 0 90 13 90 43 0 12 -27 62 -60 111 -33
49 -58 91 -56 94 3 2 70 -29 149 -71 174 -89 190 -94 217 -67 20 20 22 77 22
680 0 120 -28 122 -240 16 -84 -42 -152 -74 -152 -71 0 7 134 209 161 244 24
31 24 68 0 81 -13 6 -171 10 -444 10 -406 0 -425 -1 -441 -19z"/>
</g>
</svg>
