<?xml version="1.0" standalone="no"?>
<!DOCTYPE svg PUBLIC "-//W3C//DTD SVG 20010904//EN"
 "http://www.w3.org/TR/2001/REC-SVG-20010904/DTD/svg10.dtd">
<svg version="1.0" xmlns="http://www.w3.org/2000/svg"
 width="500.000000pt" height="500.000000pt" viewBox="0 0 500.000000 500.000000"
 preserveAspectRatio="xMidYMid meet">
<metadata>
Created by potrace 1.13, written by Peter Selinger 2001-2015
</metadata>
<g transform="translate(0.000000,500.000000) scale(0.100000,-0.100000)"
fill="#000000" stroke="none">
<path d="M477 4972 c-27 -29 -20 -89 19 -182 76 -178 77 -182 61 -198 -31 -31
-99 20 -200 151 -81 105 -133 131 -177 87 -27 -27 -26 -87 2 -148 22 -47 90
-119 260 -277 116 -107 140 -158 146 -305 4 -120 -21 -385 -39 -407 -16 -19
-53 -10 -99 25 -19 14 -91 83 -160 153 -135 138 -167 157 -225 134 -65 -25
-57 -96 26 -219 62 -94 129 -154 345 -316 246 -185 294 -245 302 -381 5 -91
-21 -185 -67 -240 -26 -30 -32 -32 -48 -21 -61 42 -81 52 -105 52 -37 0 -68
-32 -68 -71 l0 -31 -105 7 c-89 6 -109 5 -130 -9 -46 -30 -29 -81 41 -122 95
-56 228 -79 303 -53 28 10 35 8 67 -16 54 -41 171 -91 259 -111 100 -21 264
-23 480 -5 222 19 360 -4 329 -56 -22 -37 -67 -42 -369 -40 -325 2 -366 -4
-557 -79 -169 -66 -202 -75 -303 -84 -85 -7 -102 -12 -118 -31 -36 -44 2 -113
79 -143 36 -15 75 -20 150 -20 l100 -1 50 -44 c80 -72 142 -95 249 -95 105 1
192 25 300 83 58 32 74 37 95 29 40 -16 131 -3 188 26 l52 26 0 -23 c0 -41
-21 -139 -47 -225 -38 -123 -31 -192 32 -308 75 -139 259 -371 411 -519 76
-74 84 -85 103 -150 36 -123 54 -286 47 -420 -10 -160 0 -198 67 -265 27 -28
80 -65 116 -83 60 -29 74 -32 161 -32 84 0 102 3 151 28 67 32 143 97 167 141
14 26 16 57 14 207 -3 188 10 304 48 415 25 72 59 116 167 218 98 92 160 167
265 321 113 167 133 213 133 310 -1 60 -8 102 -28 165 -15 47 -30 115 -34 152
l-6 67 62 -25 c52 -21 76 -25 144 -23 78 3 85 1 132 -29 84 -55 172 -77 305
-77 110 0 118 1 183 33 40 20 78 47 93 68 26 33 29 34 74 28 55 -7 169 10 211
32 44 23 69 55 69 90 0 44 -19 55 -108 64 -81 9 -120 21 -291 90 -170 69 -209
74 -511 72 -353 -3 -480 15 -441 62 7 8 33 23 57 32 40 15 67 16 257 8 446
-19 588 3 752 116 41 28 49 30 77 21 73 -26 197 -2 296 56 51 30 73 60 66 90
-10 36 -48 45 -166 37 l-108 -7 6 30 c5 25 1 34 -21 52 -38 29 -68 26 -108 -9
-44 -38 -59 -38 -89 3 -49 64 -71 120 -76 194 -4 64 -1 78 25 135 38 80 112
156 240 244 182 126 263 195 345 293 126 151 152 218 103 266 -27 28 -75 33
-113 11 -13 -7 -88 -76 -166 -154 -83 -81 -155 -144 -170 -148 -64 -16 -84 49
-93 301 -9 270 15 324 219 486 103 82 198 223 198 293 0 39 -32 70 -73 70 -43
0 -61 -15 -132 -109 -78 -104 -129 -147 -168 -143 -29 3 -32 6 -35 41 -4 41
30 122 86 211 38 59 40 85 9 114 -46 43 -127 20 -181 -50 -14 -19 -48 -82 -76
-141 -65 -140 -68 -140 -197 -17 -111 107 -222 187 -270 196 -41 8 -76 -6 -98
-40 -23 -34 -8 -58 80 -131 137 -113 205 -190 190 -215 -10 -16 -25 -13 -123
24 -103 38 -142 67 -233 176 -127 150 -133 155 -185 155 -56 0 -84 -28 -84
-84 0 -54 45 -118 173 -246 123 -123 171 -154 322 -210 181 -67 228 -112 261
-250 13 -56 15 -101 11 -220 -11 -279 -76 -491 -187 -609 -75 -79 -157 -130
-425 -263 -320 -158 -424 -236 -509 -377 l-35 -58 -73 -3 c-71 -3 -74 -2 -112
32 -128 116 -362 120 -524 8 -41 -28 -58 -33 -119 -36 l-70 -4 -61 77 c-135
170 -261 270 -404 323 -280 103 -338 136 -469 265 -78 78 -103 110 -137 180
-74 149 -86 214 -87 450 0 241 10 288 76 364 33 37 66 59 158 102 339 162 357
174 450 314 71 106 86 165 54 208 -11 15 -34 31 -50 35 -50 15 -94 -14 -152
-98 -58 -83 -96 -119 -200 -187 -71 -46 -164 -83 -182 -72 -30 18 18 92 111
169 151 127 150 125 150 155 0 33 -40 70 -75 70 -67 0 -153 -54 -303 -189 -39
-36 -86 -74 -104 -83 -30 -17 -33 -17 -51 -1 -10 10 -45 70 -78 135 -70 136
-109 178 -168 178 -24 0 -44 -7 -54 -18z m106 -69 c13 -21 50 -85 81 -143 31
-58 68 -115 82 -127 53 -48 116 -24 241 91 153 140 231 192 254 169 7 -7 -16
-32 -70 -77 -84 -69 -176 -172 -192 -213 -37 -99 31 -129 177 -79 144 49 210
100 319 247 53 70 72 89 89 87 29 -4 24 -36 -17 -118 -52 -106 -133 -178 -274
-246 -65 -31 -154 -73 -198 -94 -199 -95 -247 -193 -248 -500 -1 -345 92 -557
325 -745 99 -78 183 -123 326 -174 135 -48 179 -70 265 -133 78 -58 158 -143
230 -246 41 -58 56 -72 72 -68 59 14 113 16 139 6 27 -10 32 -8 65 24 20 19
61 47 91 63 51 26 64 28 170 28 132 0 169 -13 233 -84 l37 -41 63 10 c40 6 75
6 96 0 46 -13 65 2 108 87 60 120 175 214 383 315 382 185 473 239 556 331
114 127 194 408 194 681 0 119 -16 208 -51 282 -47 100 -80 123 -297 207 -100
40 -170 86 -255 172 -99 99 -155 172 -163 212 -13 64 39 46 96 -34 19 -26 70
-84 115 -128 67 -68 92 -86 158 -113 95 -40 168 -56 212 -48 44 9 51 34 27 90
-21 45 -64 93 -190 208 -71 64 -87 97 -46 90 32 -5 119 -70 212 -156 135 -126
149 -136 191 -136 47 0 67 20 116 120 51 101 116 199 139 206 38 13 37 -13 -5
-91 -99 -188 -103 -279 -12 -301 59 -15 186 78 281 209 41 54 62 65 62 30 0
-24 -57 -124 -93 -163 -18 -20 -75 -73 -128 -118 -157 -133 -199 -221 -199
-415 0 -107 24 -379 39 -442 10 -43 46 -44 123 -3 44 23 108 77 215 180 145
141 174 161 188 138 18 -29 -99 -195 -211 -301 -32 -30 -115 -93 -184 -140
-156 -105 -256 -199 -301 -281 -32 -59 -34 -69 -34 -158 0 -87 3 -100 30 -149
16 -29 47 -73 69 -98 22 -25 35 -48 30 -51 -6 -4 -26 -20 -46 -35 -36 -28 -37
-28 -70 -11 -18 9 -67 44 -108 76 -41 33 -102 74 -134 90 -109 55 -188 23
-283 -112 -29 -41 -61 -87 -73 -101 -39 -52 -38 -55 52 -80 63 -17 116 -24
218 -27 219 -6 319 29 501 174 108 86 125 93 98 41 -25 -47 -102 -127 -160
-166 -34 -22 -98 -53 -142 -68 l-82 -28 -365 0 c-336 0 -368 -1 -403 -19 -44
-22 -87 -70 -87 -97 0 -28 40 -65 86 -80 28 -9 131 -13 364 -15 377 -1 404 -5
592 -84 114 -48 187 -71 281 -85 33 -5 37 -8 26 -21 -27 -33 -67 -44 -156 -43
-106 1 -149 12 -85 22 48 8 55 23 15 33 -14 4 -83 29 -152 56 -217 84 -345
109 -486 93 -59 -6 -66 -9 -53 -21 8 -8 32 -17 54 -20 79 -11 84 -13 84 -39 0
-21 -6 -26 -40 -31 -58 -9 -51 -27 8 -19 233 32 412 16 492 -45 l22 -17 -20
-39 c-26 -51 -48 -70 -102 -89 -135 -48 -338 -15 -437 70 -37 31 -43 33 -74
25 -94 -27 -222 8 -254 69 -18 35 -30 38 -57 14 -14 -13 -18 -31 -18 -95 l0
-78 -57 0 c-78 0 -125 -15 -162 -49 -60 -56 -26 -95 46 -52 49 30 104 44 133
33 24 -9 23 -10 -25 -35 -181 -91 -306 -250 -309 -392 0 -35 3 -67 7 -72 18
-17 56 47 73 124 12 57 24 85 45 105 15 16 31 28 36 28 5 0 17 -24 27 -52 29
-86 59 -124 113 -144 26 -10 49 -19 51 -20 7 -4 -120 -186 -175 -252 -58 -69
-138 -148 -184 -182 l-26 -19 -6 89 c-3 49 -12 100 -19 115 l-14 26 -25 -20
c-22 -18 -24 -24 -19 -88 11 -150 3 -240 -35 -431 l-39 -189 13 -114 c12 -101
12 -118 -2 -151 -29 -70 -79 -73 -113 -6 -18 34 -42 36 -50 4 -7 -31 -41 -62
-77 -70 -38 -9 -84 17 -104 59 -9 19 -21 35 -27 35 -6 0 -27 -19 -47 -42 -34
-39 -39 -41 -63 -30 -14 6 -35 26 -46 44 -19 31 -20 44 -14 178 5 129 3 163
-21 310 -28 171 -35 314 -21 411 8 51 6 59 -14 79 l-22 22 -21 -20 c-21 -22
-35 -86 -36 -164 -1 -27 -4 -48 -9 -48 -13 0 -197 192 -253 265 -68 87 -134
184 -128 188 2 1 26 12 54 23 57 23 88 61 111 141 8 29 18 53 20 53 35 0 75
-64 93 -148 13 -64 37 -112 54 -112 44 0 49 80 10 177 -37 94 -165 222 -270
272 -78 37 -89 50 -45 52 50 2 67 -2 127 -31 62 -30 75 -30 75 -2 0 56 -81
101 -182 102 l-68 0 0 58 c0 60 -16 132 -28 132 -5 0 -35 -23 -67 -50 -54 -46
-104 -70 -146 -70 -8 0 -36 7 -61 16 l-46 15 -69 -45 c-96 -62 -173 -86 -276
-86 -103 0 -157 24 -235 103 l-54 54 29 20 c65 46 120 58 268 58 104 0 159 -5
213 -19 40 -10 76 -15 80 -12 9 10 -19 26 -45 26 -12 0 -27 9 -33 19 -14 27
12 51 53 51 18 0 42 3 55 6 68 19 -26 44 -162 44 -137 0 -225 -20 -351 -81
-55 -26 -120 -53 -145 -60 -25 -7 -47 -14 -50 -16 -8 -7 25 -23 48 -23 12 0
22 -4 22 -10 0 -5 -1 -10 -3 -10 -2 0 -29 -5 -61 -11 -69 -12 -152 2 -185 32
-39 36 -28 46 65 52 63 5 115 17 202 47 334 117 371 124 647 112 190 -7 319
-1 357 19 102 52 87 140 -29 181 -43 15 -172 16 -478 3 -169 -6 -212 -5 -280
9 -98 20 -208 71 -265 122 -44 40 -130 149 -130 165 0 21 58 -23 111 -83 84
-95 179 -135 374 -159 142 -18 425 13 425 46 0 45 -166 242 -232 276 -70 36
-111 23 -246 -80 -159 -120 -189 -131 -236 -82 l-27 28 41 62 c64 96 82 159
78 266 -7 162 -65 233 -363 448 -177 127 -277 227 -327 325 -21 41 -35 78 -32
83 14 23 45 1 146 -106 160 -168 288 -247 348 -215 34 18 49 69 65 221 25 234
16 358 -30 455 -26 52 -101 130 -234 239 -101 84 -174 196 -157 241 9 22 27 6
77 -67 73 -108 174 -178 256 -179 93 0 96 68 14 258 -29 67 -50 126 -46 132
12 20 35 9 58 -27z m621 -2087 c27 -23 69 -68 93 -100 40 -55 43 -60 26 -70
-27 -16 -366 -14 -430 2 -29 8 -53 17 -53 21 0 4 12 13 27 20 15 7 63 41 108
75 104 82 144 106 164 98 9 -3 38 -24 65 -46z m2762 -4 c43 -26 100 -64 126
-84 26 -20 53 -38 60 -41 20 -8 -7 -24 -72 -44 -85 -26 -353 -22 -398 6 -18
11 58 132 112 179 50 44 77 41 172 -16z m765 -86 c-37 -44 -192 -88 -255 -72
l-25 6 22 34 22 35 115 3 c63 2 119 5 124 6 5 1 3 -4 -3 -12z m-2973 -952 c12
-8 22 -22 22 -31 0 -14 -3 -14 -20 2 -20 18 -20 17 -20 -17 0 -19 -5 -61 -12
-93 -9 -45 -9 -62 1 -78 15 -24 1 -37 -41 -37 -30 0 -55 21 -69 57 -14 38 -11
129 7 173 16 39 18 40 63 40 26 0 56 -7 69 -16z m1589 -2 c34 -22 42 -116 18
-200 -12 -40 -21 -53 -39 -58 -37 -9 -72 -1 -66 16 9 32 -7 210 -19 210 -4 0
-12 -5 -19 -12 -9 -9 -12 -8 -12 4 0 9 10 24 22 32 23 17 94 21 115 8z"/>
<path d="M2068 4689 c-30 -17 -21 -46 51 -152 37 -56 78 -120 91 -141 l23 -39
-157 82 c-87 44 -168 81 -181 81 -53 0 -55 -14 -55 -402 0 -345 1 -359 20
-378 11 -11 26 -20 34 -20 8 0 85 36 171 81 86 45 158 79 160 77 3 -2 -22 -45
-55 -95 -33 -50 -60 -101 -60 -112 0 -27 24 -39 90 -44 32 -3 57 -10 62 -18 4
-8 37 -117 73 -244 103 -360 124 -422 141 -429 27 -10 71 -7 82 7 5 6 33 91
60 187 28 96 62 211 75 255 13 44 34 115 47 157 l23 76 61 7 c107 12 110 33
26 160 -32 49 -57 91 -55 93 2 2 68 -30 147 -71 167 -87 188 -94 217 -69 20
17 20 26 22 377 1 198 -2 368 -6 378 -17 40 -51 33 -221 -51 -90 -45 -164 -79
-164 -77 0 3 41 65 90 139 50 74 90 143 90 155 0 11 -9 25 -19 31 -27 14 -859
13 -883 -1z m698 -254 c-81 -118 -144 -215 -141 -215 3 0 113 54 245 120 132
66 244 120 250 120 11 0 15 -662 4 -673 -4 -3 -114 48 -246 114 -132 66 -242
118 -244 116 -3 -2 45 -78 106 -168 l111 -164 -65 -3 -65 -3 -29 -92 c-15 -51
-62 -206 -103 -344 -40 -139 -76 -253 -79 -253 -3 0 -18 44 -33 98 -15 53 -60
208 -100 344 l-72 248 -62 0 c-35 0 -63 4 -63 8 0 4 50 81 110 171 61 90 110
165 110 167 0 3 -110 -52 -244 -121 -135 -69 -247 -125 -250 -125 -3 0 -6 153
-6 340 0 235 3 340 11 340 6 0 116 -54 246 -120 130 -67 237 -119 239 -118 1
2 -60 95 -136 208 -77 113 -139 208 -140 213 0 4 178 7 396 7 l395 0 -145
-215z"/>
</g>
</svg>
