<?xml version="1.0" standalone="no"?>
<!DOCTYPE svg PUBLIC "-//W3C//DTD SVG 20010904//EN"
 "http://www.w3.org/TR/2001/REC-SVG-20010904/DTD/svg10.dtd">
<svg version="1.0" xmlns="http://www.w3.org/2000/svg"
 width="550.000000pt" height="550.000000pt" viewBox="0 0 550.000000 550.000000"
 preserveAspectRatio="xMidYMid meet">
<metadata>
Created by potrace 1.11, written by Peter Selinger 2001-2013
</metadata>
<g transform="translate(0.000000,550.000000) scale(0.100000,-0.100000)"
fill="#000000" stroke="none">
<path d="M932 5269 c-65 -24 -68 -127 -8 -269 40 -95 39 -90 28 -90 -9 0 -58
49 -157 157 -66 73 -99 88 -143 66 -61 -29 -69 -140 -17 -229 16 -27 89 -110
163 -186 155 -158 182 -192 192 -247 15 -86 -8 -431 -29 -431 -4 0 -33 15 -64
34 -68 41 -146 113 -195 181 -20 28 -41 55 -47 61 -47 49 -138 46 -169 -6 -22
-38 -15 -74 37 -179 54 -110 162 -221 347 -358 220 -162 261 -223 259 -380 -2
-91 -12 -130 -44 -162 -12 -13 -21 -11 -65 13 -38 20 -58 26 -80 21 -33 -7
-70 -48 -70 -76 0 -14 -6 -17 -27 -12 -16 3 -56 5 -90 6 -70 0 -108 -18 -124
-61 -23 -59 15 -109 114 -151 76 -31 131 -42 234 -45 34 -2 72 -9 85 -17 86
-55 258 -107 363 -110 35 -1 30 -4 -45 -24 -196 -53 -229 -63 -303 -93 -46
-19 -104 -34 -145 -37 -130 -12 -176 -36 -174 -94 1 -40 18 -70 61 -109 56
-50 133 -68 223 -52 30 6 41 3 54 -12 25 -27 113 -83 154 -97 132 -47 279 -26
415 59 32 20 52 24 115 25 41 0 83 4 92 8 15 8 16 4 10 -30 -10 -53 -9 -383 1
-468 20 -164 73 -331 167 -516 74 -147 168 -293 246 -379 45 -49 56 -121 59
-360 3 -226 11 -257 82 -320 42 -36 124 -76 182 -86 14 -3 28 -7 32 -10 16
-10 135 -5 184 7 125 31 211 89 247 168 19 41 21 66 23 241 2 260 11 304 78
384 105 124 236 350 307 529 38 98 75 240 86 332 9 75 12 430 4 480 -4 23 -2
29 10 25 8 -2 49 -5 91 -6 62 -1 84 -6 115 -25 61 -38 114 -59 179 -73 130
-27 240 -1 348 80 58 43 74 51 96 45 36 -10 111 -6 154 8 43 15 127 96 128
125 3 45 -3 62 -29 83 -25 21 -45 27 -147 38 -76 9 -76 9 -145 38 -53 22 -274
89 -365 110 -12 3 -7 5 15 7 19 1 44 3 55 5 11 2 38 7 60 10 73 10 169 45 240
87 27 16 56 22 104 24 82 2 126 9 188 30 117 40 165 85 157 148 -4 34 -44 75
-75 77 -10 1 -29 2 -41 3 -13 1 -45 -1 -71 -5 -47 -5 -49 -5 -61 25 -27 65
-69 77 -142 41 -53 -26 -56 -26 -75 -10 -27 25 -39 77 -39 170 0 146 50 215
272 378 200 147 297 253 356 390 38 86 38 112 4 147 -57 57 -128 37 -196 -55
-56 -77 -142 -156 -210 -196 -28 -16 -54 -29 -57 -29 -6 0 -12 28 -26 125 -3
22 -6 103 -7 180 -1 175 -4 170 195 372 159 163 199 223 199 301 0 91 -52 144
-116 117 -16 -7 -59 -45 -94 -85 -97 -109 -150 -157 -150 -136 0 2 16 42 36
88 61 141 57 242 -12 268 -54 21 -114 -32 -209 -185 -32 -53 -64 -100 -71
-106 -8 -7 -38 14 -100 68 -173 152 -220 183 -277 183 -53 0 -100 -68 -89
-128 3 -13 49 -67 104 -120 55 -53 104 -105 109 -114 26 -47 -134 39 -208 112
-25 24 -67 76 -93 116 -52 75 -88 100 -144 96 -44 -4 -72 -26 -86 -67 -23 -70
10 -154 110 -279 92 -114 124 -137 285 -206 11 -5 31 -12 45 -16 14 -4 53 -20
87 -35 120 -56 146 -118 148 -354 1 -88 -2 -173 -6 -190 -4 -16 -11 -50 -14
-74 -11 -78 -54 -198 -91 -253 -75 -114 -190 -198 -428 -313 -86 -41 -158 -75
-162 -75 -9 0 -137 -87 -164 -112 -31 -29 -110 -124 -110 -132 0 -4 -11 -24
-25 -45 -22 -36 -27 -39 -57 -32 -18 4 -46 6 -62 5 -19 -2 -44 8 -74 28 -131
90 -280 93 -414 6 -29 -18 -66 -34 -83 -34 -16 -1 -46 -3 -64 -5 -33 -4 -37
-1 -70 55 -73 123 -194 226 -341 292 -391 174 -538 298 -599 509 -69 239 -69
530 -1 643 25 40 86 78 180 112 116 42 130 49 193 87 102 62 244 249 262 345
16 83 -28 141 -105 140 -56 -1 -74 -14 -129 -95 -55 -83 -105 -135 -168 -178
-52 -36 -132 -73 -141 -65 -3 4 44 56 105 116 118 117 131 142 107 199 -18 43
-56 65 -101 58 -47 -8 -114 -54 -242 -166 -57 -50 -106 -91 -110 -91 -3 0 -35
48 -71 107 -99 162 -158 214 -218 192z m635 -2102 c37 -25 99 -105 89 -115
-11 -10 -227 -12 -281 -1 -80 15 -80 15 -24 65 93 83 150 96 216 51z m2477 -1
c47 -29 106 -81 106 -95 0 -17 -113 -30 -228 -27 -62 2 -115 6 -118 9 -11 11
61 99 100 122 47 28 82 26 140 -9z"/>
<path d="M2346 4981 c-23 -25 -20 -63 9 -105 14 -20 25 -39 25 -42 0 -3 8 -18
18 -32 35 -52 66 -105 56 -100 -40 23 -226 108 -246 113 -44 11 -63 -27 -67
-131 -6 -189 -7 -610 -1 -634 3 -14 18 -31 32 -38 24 -11 36 -8 139 43 61 30
115 55 120 55 4 0 -8 -26 -27 -57 -56 -93 -41 -127 59 -139 55 -7 57 -8 67
-43 5 -20 39 -157 75 -306 68 -277 80 -305 125 -305 25 0 59 31 64 60 3 14 12
52 21 85 8 33 17 73 20 89 3 16 8 32 10 36 2 4 7 20 10 36 8 45 83 335 87 339
1 1 28 5 58 9 38 4 60 13 73 27 18 22 23 59 9 74 -5 6 -21 32 -36 58 l-27 48
118 -59 c190 -95 188 -97 187 216 -2 432 -5 491 -26 517 -25 32 -43 28 -175
-37 -62 -30 -113 -51 -113 -47 0 5 27 53 60 106 33 54 60 110 60 124 0 57 -1
57 -402 57 -334 0 -368 -2 -382 -17z"/>
</g>
</svg>
