<svg id="SvgjsSvg1001" width="1490" height="1490" xmlns="http://www.w3.org/2000/svg" version="1.1" xmlns:xlink="http://www.w3.org/1999/xlink" xmlns:svgjs="http://svgjs.com/svgjs"><defs id="SvgjsDefs1002"><path id="SvgjsPath1085" d="M 409 745.0000000000001
      A 336 336 0 0 1 908.4086878222928 451.4125330600837"></path><path id="SvgjsPath1090" d="M 324 745.0000000000001
      A 421 421 0 0 1 442.6688286416977 452.02071263463546"></path><path id="SvgjsPath1095" d="M 447.3080451204634 447.3080451204636
      A 421 421 0 0 1 629.663168930486 340.106908679782"></path><path id="SvgjsPath1100" d="M 636.0371820118385 338.34522713230234
      A 421 421 0 0 1 949.7471951582895 377.14189410206916"></path><path id="SvgjsPath1105" d="M 256.2415318977314 875.9624368218754
      A 506 506 0 0 1 254.2447602659181 621.7308040362728"></path><path id="SvgjsPath1110" d="M 256.24153189773136 614.0375631781247
      A 506 506 0 0 1 381.6280933318267 392.8681249242887"></path><path id="SvgjsPath1115" d="M 387.20396871960685 387.203968719607
      A 506 506 0 0 1 606.3766353416293 258.35889736809906"></path><path id="SvgjsPath1120" d="M 614.0375631781241 256.24153189773153
      A 506 506 0 0 1 1179.1808422961642 485.1481264585659"></path><path id="SvgjsPath1125" d="M 1183.208854314926 491.99999999999994
      A 506 506 0 0 1 1187.1287448559456 991.0857024942861"></path><path id="SvgjsPath1130" d="M 154 745.0000000000001
      A 591 591 0 0 1 228.60061618604016 457.57579016971704"></path><path id="SvgjsPath1135" d="M 233.1789863633968 449.49999999999994
      A 591 591 0 0 1 441.49712003362123 237.88364071732616"></path><path id="SvgjsPath1140" d="M 449.4999999999997 233.17898636339692
      A 591 591 0 0 1 888.9764719655393 171.8056389667147"></path><path id="SvgjsPath1145" d="M 897.9620556555898 174.13783666316067
      A 591 591 0 0 1 1252.116359282674 441.49712003362146"></path><path id="SvgjsPath1150" d="M 1256.8210136366033 449.49999999999994
      A 591 591 0 0 1 1261.39938381396 1032.424209830283"></path><path id="SvgjsPath1155" d="M 159.56682704171953 1083.0000000000002
      A 676 676 0 0 1 69.08339644239743 755.6181465027909"></path><path id="SvgjsPath1160" d="M 142.67958964866318 438.10242217606645
      A 676 676 0 0 1 284.8326925837712 249.8010004197323"></path><path id="SvgjsPath1165" d="M 376.82401232984176 178.05869606889337
      A 676 676 0 0 1 611.3836379037111 82.3366859557159"></path></defs><circle id="SvgjsCircle1008" r="745" cx="745" cy="745" fill="#1b2028"></circle><line id="SvgjsLine1009" x1="745" y1="10" x2="745" y2="30" stroke-linecap="round" stroke="#eeeeee" stroke-width="3"></line><line id="SvgjsLine1010" x1="745" y1="485" x2="745" y2="495" stroke-linecap="round" stroke="#eeeeee"></line><line id="SvgjsLine1011" x1="821.8284205017253" y1="14.026406904319174" x2="820.7831358690488" y2="23.971625858001858" stroke-linecap="round" stroke="#eeeeee" stroke-width="2"></line><line id="SvgjsLine1012" x1="897.815092751053" y1="26.061513460652804" x2="895.7359758428755" y2="35.84298946799083" stroke-linecap="round" stroke="#eeeeee" stroke-width="2"></line><line id="SvgjsLine1013" x1="972.1274908655863" y1="45.97346052306216" x2="969.0373209218369" y2="55.48402568601364" stroke-linecap="round" stroke="#eeeeee" stroke-width="2"></line><line id="SvgjsLine1014" x1="1043.9514326607132" y1="73.54408863268839" x2="1039.8840662299551" y2="82.6795432091144" stroke-linecap="round" stroke="#eeeeee" stroke-width="2"></line><line id="SvgjsLine1015" x1="1112.5" y1="108.47132821843752" x2="1102.5" y2="125.79183629412637" stroke-linecap="round" stroke="#eeeeee" stroke-width="3"></line><line id="SvgjsLine1016" x1="875" y1="519.8333950160459" x2="870" y2="528.4936490538903" stroke-linecap="round" stroke="#eeeeee"></line><line id="SvgjsLine1017" x1="1177.0221604349676" y1="150.37250913441358" x2="1171.1443079120431" y2="158.4626790781631" stroke-linecap="round" stroke="#eeeeee" stroke-width="2"></line><line id="SvgjsLine1018" x1="1236.8109956737608" y1="198.7885532741152" x2="1230.1196896101721" y2="206.22000152888916" stroke-linecap="round" stroke="#eeeeee" stroke-width="2"></line><line id="SvgjsLine1019" x1="1291.2114467258848" y1="253.18900432623917" x2="1283.779998471111" y2="259.8803103898278" stroke-linecap="round" stroke="#eeeeee" stroke-width="2"></line><line id="SvgjsLine1020" x1="1339.6274908655864" y1="312.97783956503224" x2="1331.537320921837" y2="318.855692087957" stroke-linecap="round" stroke="#eeeeee" stroke-width="2"></line><line id="SvgjsLine1021" x1="1381.5286717815625" y1="377.49999999999994" x2="1364.2081637058736" y2="387.49999999999994" stroke-linecap="round" stroke="#eeeeee" stroke-width="3"></line><line id="SvgjsLine1022" x1="970.166604983954" y1="615" x2="961.5063509461097" y2="620" stroke-linecap="round" stroke="#eeeeee"></line><line id="SvgjsLine1023" x1="1416.4559113673117" y1="446.0485673392867" x2="1407.3204567908856" y2="450.1159337700447" stroke-linecap="round" stroke="#eeeeee" stroke-width="2"></line><line id="SvgjsLine1024" x1="1444.0265394769378" y1="517.8725091344136" x2="1434.5159743139864" y2="520.9626790781631" stroke-linecap="round" stroke="#eeeeee" stroke-width="2"></line><line id="SvgjsLine1025" x1="1463.9384865393472" y1="592.184907248947" x2="1454.1570105320093" y2="594.2640241571246" stroke-linecap="round" stroke="#eeeeee" stroke-width="2"></line><line id="SvgjsLine1026" x1="1475.9735930956808" y1="668.1715794982747" x2="1466.028374141998" y2="669.2168641309512" stroke-linecap="round" stroke="#eeeeee" stroke-width="2"></line><line id="SvgjsLine1027" x1="1480" y1="744.9999999999998" x2="1460" y2="744.9999999999998" stroke-linecap="round" stroke="#eeeeee" stroke-width="3"></line><line id="SvgjsLine1028" x1="1005" y1="744.9999999999999" x2="995" y2="744.9999999999999" stroke-linecap="round" stroke="#eeeeee"></line><line id="SvgjsLine1029" x1="1475.9735930956808" y1="821.8284205017252" x2="1466.0283741419983" y2="820.7831358690487" stroke-linecap="round" stroke="#eeeeee" stroke-width="2"></line><line id="SvgjsLine1030" x1="1463.9384865393472" y1="897.8150927510532" x2="1454.1570105320093" y2="895.7359758428755" stroke-linecap="round" stroke="#eeeeee" stroke-width="2"></line><line id="SvgjsLine1031" x1="1444.026539476938" y1="972.1274908655863" x2="1434.5159743139864" y2="969.0373209218368" stroke-linecap="round" stroke="#eeeeee" stroke-width="2"></line><line id="SvgjsLine1032" x1="1416.4559113673117" y1="1043.9514326607132" x2="1407.3204567908856" y2="1039.8840662299551" stroke-linecap="round" stroke="#eeeeee" stroke-width="2"></line><line id="SvgjsLine1033" x1="1381.5286717815625" y1="1112.4999999999998" x2="1364.2081637058736" y2="1102.4999999999998" stroke-linecap="round" stroke="#eeeeee" stroke-width="3"></line><line id="SvgjsLine1034" x1="970.1666049839541" y1="875" x2="961.5063509461097" y2="870" stroke-linecap="round" stroke="#eeeeee"></line><line id="SvgjsLine1035" x1="1339.6274908655864" y1="1177.0221604349676" x2="1331.537320921837" y2="1171.144307912043" stroke-linecap="round" stroke="#eeeeee" stroke-width="2"></line><line id="SvgjsLine1036" x1="1291.2114467258848" y1="1236.8109956737605" x2="1283.779998471111" y2="1230.119689610172" stroke-linecap="round" stroke="#eeeeee" stroke-width="2"></line><line id="SvgjsLine1037" x1="1236.8109956737608" y1="1291.2114467258848" x2="1230.1196896101724" y2="1283.7799984711107" stroke-linecap="round" stroke="#eeeeee" stroke-width="2"></line><line id="SvgjsLine1038" x1="1177.0221604349679" y1="1339.6274908655864" x2="1171.1443079120431" y2="1331.537320921837" stroke-linecap="round" stroke="#eeeeee" stroke-width="2"></line><line id="SvgjsLine1039" x1="1112.5" y1="1381.5286717815625" x2="1102.5" y2="1364.2081637058736" stroke-linecap="round" stroke="#eeeeee" stroke-width="3"></line><line id="SvgjsLine1040" x1="875" y1="970.1666049839541" x2="870" y2="961.5063509461097" stroke-linecap="round" stroke="#eeeeee"></line><line id="SvgjsLine1041" x1="1043.951432660713" y1="1416.4559113673117" x2="1039.884066229955" y2="1407.3204567908856" stroke-linecap="round" stroke="#eeeeee" stroke-width="2"></line><line id="SvgjsLine1042" x1="972.1274908655864" y1="1444.0265394769378" x2="969.0373209218369" y2="1434.5159743139864" stroke-linecap="round" stroke="#eeeeee" stroke-width="2"></line><line id="SvgjsLine1043" x1="897.815092751053" y1="1463.9384865393472" x2="895.7359758428755" y2="1454.1570105320093" stroke-linecap="round" stroke="#eeeeee" stroke-width="2"></line><line id="SvgjsLine1044" x1="821.8284205017252" y1="1475.9735930956808" x2="820.7831358690487" y2="1466.0283741419983" stroke-linecap="round" stroke="#eeeeee" stroke-width="2"></line><line id="SvgjsLine1045" x1="745.0000000000005" y1="1480" x2="745.0000000000005" y2="1460" stroke-linecap="round" stroke="#eeeeee" stroke-width="3"></line><line id="SvgjsLine1046" x1="745.0000000000001" y1="1005" x2="745.0000000000001" y2="995" stroke-linecap="round" stroke="#eeeeee"></line><line id="SvgjsLine1047" x1="668.171579498275" y1="1475.9735930956808" x2="669.2168641309515" y2="1466.0283741419983" stroke-linecap="round" stroke="#eeeeee" stroke-width="2"></line><line id="SvgjsLine1048" x1="592.1849072489471" y1="1463.9384865393472" x2="594.2640241571247" y2="1454.1570105320093" stroke-linecap="round" stroke="#eeeeee" stroke-width="2"></line><line id="SvgjsLine1049" x1="517.8725091344138" y1="1444.026539476938" x2="520.9626790781632" y2="1434.5159743139864" stroke-linecap="round" stroke="#eeeeee" stroke-width="2"></line><line id="SvgjsLine1050" x1="446.0485673392868" y1="1416.4559113673117" x2="450.1159337700449" y2="1407.3204567908856" stroke-linecap="round" stroke="#eeeeee" stroke-width="2"></line><line id="SvgjsLine1051" x1="377.5000000000002" y1="1381.5286717815625" x2="387.50000000000017" y2="1364.2081637058736" stroke-linecap="round" stroke="#eeeeee" stroke-width="3"></line><line id="SvgjsLine1052" x1="615.0000000000001" y1="970.1666049839541" x2="620.0000000000001" y2="961.5063509461097" stroke-linecap="round" stroke="#eeeeee"></line><line id="SvgjsLine1053" x1="312.9778395650323" y1="1339.6274908655864" x2="318.85569208795704" y2="1331.537320921837" stroke-linecap="round" stroke="#eeeeee" stroke-width="2"></line><line id="SvgjsLine1054" x1="253.18900432623917" y1="1291.2114467258848" x2="259.8803103898278" y2="1283.779998471111" stroke-linecap="round" stroke="#eeeeee" stroke-width="2"></line><line id="SvgjsLine1055" x1="198.78855327411543" y1="1236.810995673761" x2="206.22000152888938" y2="1230.1196896101724" stroke-linecap="round" stroke="#eeeeee" stroke-width="2"></line><line id="SvgjsLine1056" x1="150.3725091344137" y1="1177.0221604349679" x2="158.4626790781632" y2="1171.1443079120431" stroke-linecap="round" stroke="#eeeeee" stroke-width="2"></line><line id="SvgjsLine1057" x1="108.47132821843775" y1="1112.5000000000005" x2="125.79183629412648" y2="1102.5000000000005" stroke-linecap="round" stroke="#eeeeee" stroke-width="3"></line><line id="SvgjsLine1058" x1="519.833395016046" y1="875.0000000000001" x2="528.4936490538904" y2="870.0000000000001" stroke-linecap="round" stroke="#eeeeee"></line><line id="SvgjsLine1059" x1="73.54408863268861" y1="1043.9514326607136" x2="82.67954320911463" y2="1039.8840662299558" stroke-linecap="round" stroke="#eeeeee" stroke-width="2"></line><line id="SvgjsLine1060" x1="45.97346052306216" y1="972.1274908655864" x2="55.48402568601364" y2="969.037320921837" stroke-linecap="round" stroke="#eeeeee" stroke-width="2"></line><line id="SvgjsLine1061" x1="26.061513460652918" y1="897.8150927510535" x2="35.84298946799095" y2="895.7359758428759" stroke-linecap="round" stroke="#eeeeee" stroke-width="2"></line><line id="SvgjsLine1062" x1="14.026406904319174" y1="821.8284205017259" x2="23.971625858001858" y2="820.7831358690494" stroke-linecap="round" stroke="#eeeeee" stroke-width="2"></line><line id="SvgjsLine1063" x1="10" y1="745.0000000000001" x2="30" y2="745.0000000000001" stroke-linecap="round" stroke="#eeeeee" stroke-width="3"></line><line id="SvgjsLine1064" x1="485" y1="745" x2="495" y2="745" stroke-linecap="round" stroke="#eeeeee"></line><line id="SvgjsLine1065" x1="14.02640690431906" y1="668.171579498275" x2="23.971625858001744" y2="669.2168641309515" stroke-linecap="round" stroke="#eeeeee" stroke-width="2"></line><line id="SvgjsLine1066" x1="26.061513460652918" y1="592.1849072489468" x2="35.84298946799095" y2="594.2640241571244" stroke-linecap="round" stroke="#eeeeee" stroke-width="2"></line><line id="SvgjsLine1067" x1="45.973460523062045" y1="517.8725091344138" x2="55.48402568601364" y2="520.9626790781633" stroke-linecap="round" stroke="#eeeeee" stroke-width="2"></line><line id="SvgjsLine1068" x1="73.54408863268816" y1="446.04856733928716" x2="82.67954320911417" y2="450.11593377004516" stroke-linecap="round" stroke="#eeeeee" stroke-width="2"></line><line id="SvgjsLine1069" x1="108.47132821843763" y1="377.49999999999994" x2="125.79183629412637" y2="387.49999999999994" stroke-linecap="round" stroke="#eeeeee" stroke-width="3"></line><line id="SvgjsLine1070" x1="519.833395016046" y1="615" x2="528.4936490538903" y2="620" stroke-linecap="round" stroke="#eeeeee"></line><line id="SvgjsLine1071" x1="150.37250913441358" y1="312.9778395650324" x2="158.46267907816298" y2="318.85569208795715" stroke-linecap="round" stroke="#eeeeee" stroke-width="2"></line><line id="SvgjsLine1072" x1="198.78855327411543" y1="253.18900432623906" x2="206.22000152888938" y2="259.8803103898276" stroke-linecap="round" stroke="#eeeeee" stroke-width="2"></line><line id="SvgjsLine1073" x1="253.18900432623929" y1="198.7885532741152" x2="259.88031038982786" y2="206.22000152888916" stroke-linecap="round" stroke="#eeeeee" stroke-width="2"></line><line id="SvgjsLine1074" x1="312.97783956503207" y1="150.3725091344137" x2="318.8556920879568" y2="158.4626790781632" stroke-linecap="round" stroke="#eeeeee" stroke-width="2"></line><line id="SvgjsLine1075" x1="377.5000000000002" y1="108.47132821843752" x2="387.5000000000002" y2="125.79183629412626" stroke-linecap="round" stroke="#eeeeee" stroke-width="3"></line><line id="SvgjsLine1076" x1="615.0000000000001" y1="519.8333950160459" x2="620.0000000000001" y2="528.4936490538903" stroke-linecap="round" stroke="#eeeeee"></line><line id="SvgjsLine1077" x1="446.0485673392869" y1="73.54408863268827" x2="450.1159337700449" y2="82.67954320911429" stroke-linecap="round" stroke="#eeeeee" stroke-width="2"></line><line id="SvgjsLine1078" x1="517.8725091344135" y1="45.97346052306216" x2="520.962679078163" y2="55.48402568601364" stroke-linecap="round" stroke="#eeeeee" stroke-width="2"></line><line id="SvgjsLine1079" x1="592.1849072489472" y1="26.061513460652804" x2="594.2640241571247" y2="35.84298946799083" stroke-linecap="round" stroke="#eeeeee" stroke-width="2"></line><line id="SvgjsLine1080" x1="668.1715794982747" y1="14.026406904319174" x2="669.2168641309513" y2="23.971625858001858" stroke-linecap="round" stroke="#eeeeee" stroke-width="2"></line><path id="SvgjsPath1081" d="M 398 745.0000000000001 
        A 347 347 0 0 1 913.7583770069512 441.80103860669357
        L 876.3105527143424 509.0814997804244
        A 270 270 0 0 0 475 745
        Z" fill="#592626"></path><text id="SvgjsText1082" font-family="Roboto" font-size="28" font-weight="300" fill="#eeeeee" size="28" weight="300" family="Roboto"><textPath id="SvgjsTextPath1084" xlink:href="#SvgjsPath1085" startOffset="10"><tspan id="SvgjsTspan1083" dy="36.4" x="0">Casino</tspan></textPath></text><path id="SvgjsPath1086" d="M 313 745.0000000000001 
        A 432 432 0 0 1 434.7694393663026 444.36567187212
        L 490.06516429406815 497.95095720972824
        A 355 355 0 0 0 390 745.0000000000001
        Z" fill="#594d26"></path><text id="SvgjsText1087" font-family="Roboto" font-size="28" font-weight="300" fill="#eeeeee" size="28" weight="300" family="Roboto"><textPath id="SvgjsTextPath1089" xlink:href="#SvgjsPath1090" startOffset="10"><tspan id="SvgjsTspan1088" dy="36.4" x="0">Remy and co</tspan></textPath></text><path id="SvgjsPath1091" d="M 439.5298705274114 439.52987052741156 
        A 432 432 0 0 1 626.6496175248692 329.5277542747407
        L 647.7444773641865 403.58183511003
        A 355 355 0 0 0 493.97709267877553 493.97709267877565
        Z" fill="#475926"></path><text id="SvgjsText1092" font-family="Roboto" font-size="28" font-weight="300" fill="#eeeeee" size="28" weight="300" family="Roboto"><textPath id="SvgjsTextPath1094" xlink:href="#SvgjsPath1095" startOffset="10"><tspan id="SvgjsTspan1093" dy="36.4" x="0">Jazz</tspan></textPath></text><path id="SvgjsPath1096" d="M 633.1901725157106 327.7200430431226 
        A 432 432 0 0 1 955.0968843429479 367.530399648679
        L 917.6490600503391 434.81086082240984
        A 355 355 0 0 0 653.1192389886048 402.0963316673808
        Z" fill="#315926"></path><text id="SvgjsText1097" font-family="Roboto" font-size="28" font-weight="300" fill="#eeeeee" size="28" weight="300" family="Roboto"><textPath id="SvgjsTextPath1099" xlink:href="#SvgjsPath1100" startOffset="10"><tspan id="SvgjsTspan1098" dy="36.4" x="0">Bruce Bracebridge</tspan></textPath></text><path id="SvgjsPath1101" d="M 245.61634780855167 878.8094463180032 
        A 517 517 0 0 1 243.57616809778585 619.0510389066266
        L 318.2563132747114 637.8093948141502
        A 440 440 0 0 0 319.99263643280995 858.880379845109
        Z" fill="#265941"></path><text id="SvgjsText1102" font-family="Roboto" font-size="28" font-weight="300" fill="#eeeeee" size="28" weight="300" family="Roboto"><textPath id="SvgjsTextPath1104" xlink:href="#SvgjsPath1105" startOffset="10"><tspan id="SvgjsTspan1103" dy="36.4" x="0">Redford-Jones</tspan></textPath></text><path id="SvgjsPath1106" d="M 245.6163478085516 611.190553681997 
        A 517 517 0 0 1 373.72870405643164 385.2130841617732
        L 429.02442898419713 438.79836949938147
        A 440 440 0 0 0 319.9926364328099 631.1196201548911
        Z" fill="#265359"></path><text id="SvgjsText1107" font-family="Roboto" font-size="28" font-weight="300" fill="#eeeeee" size="28" weight="300" family="Roboto"><textPath id="SvgjsTextPath1109" xlink:href="#SvgjsPath1110" startOffset="10"><tspan id="SvgjsTspan1108" dy="36.4" x="0">OOTB</tspan></textPath></text><path id="SvgjsPath1111" d="M 379.4257941265548 379.42579412655505 
        A 517 517 0 0 1 603.3630839360125 247.77974296305774
        L 624.4579437753298 321.833823798347
        A 440 440 0 0 0 433.873016277919 433.8730162779192
        Z" fill="#264259"></path><text id="SvgjsText1112" font-family="Roboto" font-size="28" font-weight="300" fill="#eeeeee" size="28" weight="300" family="Roboto"><textPath id="SvgjsTextPath1114" xlink:href="#SvgjsPath1115" startOffset="10"><tspan id="SvgjsTspan1113" dy="36.4" x="0">Hoosiers</tspan></textPath></text><path id="SvgjsPath1116" d="M 611.1905536819963 245.61634780855178 
        A 517 517 0 0 1 1188.6195562591242 479.49917268592606
        L 1122.5485585184038 519.0418490944052
        A 440 440 0 0 0 631.1196201548905 319.99263643281006
        Z" fill="#263059"></path><text id="SvgjsText1117" font-family="Roboto" font-size="28" font-weight="300" fill="#eeeeee" size="28" weight="300" family="Roboto"><textPath id="SvgjsTextPath1119" xlink:href="#SvgjsPath1120" startOffset="10"><tspan id="SvgjsTspan1118" dy="36.4" x="0">DFOSE</tspan></textPath></text><path id="SvgjsPath1121" d="M 1192.7351337565547 486.49999999999994 
        A 517 517 0 0 1 1196.7402393093355 996.4353916789446
        L 1129.4597781356047 958.9875673863357
        A 440 440 0 0 0 1126.0511776651529 525
        Z" fill="#422659"></path><text id="SvgjsText1122" font-family="Roboto" font-size="28" font-weight="300" fill="#eeeeee" size="28" weight="300" family="Roboto"><textPath id="SvgjsTextPath1124" xlink:href="#SvgjsPath1125" startOffset="10"><tspan id="SvgjsTspan1123" dy="36.4" x="0">Silent Disco</tspan></textPath></text><path id="SvgjsPath1126" d="M 143 745.0000000000001 
        A 602 602 0 0 1 218.98912173265 452.2261009850586
        L 286.26958290638083 489.6739252776674
        A 525 525 0 0 0 220 745.0000000000001
        Z" fill="#592645"></path><text id="SvgjsText1127" font-family="Roboto" font-size="28" font-weight="300" fill="#eeeeee" size="28" weight="300" family="Roboto"><textPath id="SvgjsTextPath1129" xlink:href="#SvgjsPath1130" startOffset="10"><tspan id="SvgjsTspan1128" dy="36.4" x="0">Little Sparta</tspan></textPath></text><path id="SvgjsPath1131" d="M 223.65270692176796 443.99999999999994 
        A 602 602 0 0 1 435.8481662609814 228.44492675436607
        L 475.3908426694605 294.5159244950867
        A 525 525 0 0 0 290.33666301316975 482.49999999999994
        Z" fill="#592626"></path><text id="SvgjsText1132" font-family="Roboto" font-size="28" font-weight="300" fill="#eeeeee" size="28" weight="300" family="Roboto"><textPath id="SvgjsTextPath1134" xlink:href="#SvgjsPath1135" startOffset="10"><tspan id="SvgjsTspan1133" dy="36.4" x="0">Emily the Snake</tspan></textPath></text><path id="SvgjsPath1136" d="M 443.9999999999997 223.65270692176807 
        A 602 602 0 0 1 891.6562370951856 161.13704679858245
        L 872.8978811876618 235.81719197550797
        A 525 525 0 0 0 482.4999999999998 290.33666301316987
        Z" fill="#594d26"></path><text id="SvgjsText1137" font-family="Roboto" font-size="28" font-weight="300" fill="#eeeeee" size="28" weight="300" family="Roboto"><textPath id="SvgjsTextPath1139" xlink:href="#SvgjsPath1140" startOffset="10"><tspan id="SvgjsTspan1138" dy="36.4" x="0">Garfunkel</tspan></textPath></text><path id="SvgjsPath1141" d="M 900.8090651517175 163.51265257398086 
        A 602 602 0 0 1 1261.555073245634 435.8481662609816
        L 1195.4840755049133 475.39084266946065
        A 525 525 0 0 0 880.8799986788234 237.88894119823914
        Z" fill="#475926"></path><text id="SvgjsText1142" font-family="Roboto" font-size="28" font-weight="300" fill="#eeeeee" size="28" weight="300" family="Roboto"><textPath id="SvgjsTextPath1144" xlink:href="#SvgjsPath1145" startOffset="10"><tspan id="SvgjsTspan1143" dy="36.4" x="0">Burning Down the House</tspan></textPath></text><path id="SvgjsPath1146" d="M 1266.347293078232 443.99999999999994 
        A 602 602 0 0 1 1271.01087826735 1037.7738990149412
        L 1203.7304170936193 1000.3260747223325
        A 525 525 0 0 0 1199.6633369868302 482.49999999999994
        Z" fill="#315926"></path><text id="SvgjsText1147" font-family="Roboto" font-size="28" font-weight="300" fill="#eeeeee" size="28" weight="300" family="Roboto"><textPath id="SvgjsTextPath1149" xlink:href="#SvgjsPath1150" startOffset="10"><tspan id="SvgjsTspan1148" dy="36.4" x="0">iPod</tspan></textPath></text><path id="SvgjsPath1151" d="M 150.0405476000908 1088.5000000000002 
        A 687 687 0 0 1 58.08475348509921 755.7909269932209
        L 135.07525418618707 754.5814635602106
        A 610 610 0 0 0 216.7245036914925 1050.0000000000002
        Z" fill="#265941"></path><text id="SvgjsText1152" font-family="Roboto" font-size="28" font-weight="300" fill="#eeeeee" size="28" weight="300" family="Roboto"><textPath id="SvgjsTextPath1154" xlink:href="#SvgjsPath1155" startOffset="10"><tspan id="SvgjsTspan1153" dy="36.4" x="0">Rebecca McNought</tspan></textPath></text><path id="SvgjsPath1156" d="M 132.87851788259115 433.10852667893147 
        A 687 687 0 0 1 277.3447630252231 241.74302853307114
        L 329.7602699350598 298.1488317396993
        A 610 610 0 0 0 201.48602024509546 468.06579515887654
        Z" fill="#265359"></path><text id="SvgjsText1157" font-family="Roboto" font-size="28" font-weight="300" fill="#eeeeee" size="28" weight="300" family="Roboto"><textPath id="SvgjsTextPath1159" xlink:href="#SvgjsPath1160" startOffset="10"><tspan id="SvgjsTspan1158" dy="36.4" x="0">Fire Performance</tspan></textPath></text><path id="SvgjsPath1161" d="M 370.8329829446765 168.83331982149366 
        A 687 687 0 0 1 609.2094071595407 71.553703034877
        L 624.4290223687334 147.03458348074957
        A 610 610 0 0 0 412.77018864083357 233.41095355329134
        Z" fill="#264259"></path><text id="SvgjsText1162" font-family="Roboto" font-size="28" font-weight="300" fill="#eeeeee" size="28" weight="300" family="Roboto"><textPath id="SvgjsTextPath1164" xlink:href="#SvgjsPath1165" startOffset="10"><tspan id="SvgjsTspan1163" dy="36.4" x="0">Ambient Fire Show</tspan></textPath></text></svg>